<svg xmlns="http://www.w3.org/2000/svg" viewBox="0 0 239.47 223.2"><defs><style>.cls-1{fill:#fbf0eb;}.cls-2{fill:#2c282a;}.cls-3{fill:#e5afb0;}.cls-11,.cls-4,.cls-6{fill:#fff;}.cls-5{fill:#151313;}.cls-6,.cls-7{stroke:#151313;}.cls-10,.cls-11,.cls-6,.cls-7,.cls-9{stroke-miterlimit:10;}.cls-7,.cls-9{fill:none;}.cls-8{fill:#df695e;}.cls-10,.cls-11,.cls-9{stroke:#231815;}.cls-10{fill:#ddc52f;}</style></defs><title>丑</title><g id="图层_2" data-name="图层 2"><g id="首页引导页图"><g id="丑"><path class="cls-1" d="M119.54,56.24c-35.36,0-72.25,33.17-56.48,88.5,6.15,27,.27,40.1,21.92,62s42.23,21.92,68.43,0c20.85-17.91,16-39.3,21.65-62C192.71,86.2,154.91,56.24,119.54,56.24Z"/><path class="cls-2" d="M78,128.35S82,124.27,82,119c1-4.53,5.52-6.83,11.3-6.78,7.62.21,11.44-3.31,13.27-3.6a14,14,0,0,1-12,7.69C84.46,116.33,83.28,128.55,78,128.35Z"/><path class="cls-2" d="M162.51,128.35s-4-4.08-4.07-9.33c-1.05-4.53-5.52-6.83-11.3-6.78-7.62.21-11.44-3.31-13.27-3.6a14,14,0,0,0,12,7.69C156,116.33,157.19,128.55,162.51,128.35Z"/><path class="cls-3" d="M105,174.72s-28.22,21-25.11-18.66c0,0-1.36-35.39,18.86-38.7,17.31-4.27,26.25-4.27,43.57-.08,0,0,18.5,4.94,17.61,39.56,0,30.13-9.63,22.15-24.66,17.5l-2.88,1.16s-.49-4.08-4.08-5c-2.14-.29-3.31,5.45-6.23,6s-3.86.36-5.12-.32-6.79-11.39-9.07-.55Z"/><path class="cls-4" d="M106.6,175.27S81.17,194.19,84,158.46c0,0-1.23-31.89,17-34.86,15.59-3.86,23.65-3.86,39.26-.08,0,0,16.67,4.46,15.86,35.64,0,27.15-8.68,20-22.22,15.76L131.28,176s-.44-3.68-3.68-4.47c-1.93-.26-3,4.9-5.61,5.43s-3.47.32-4.61-.29-6.12-10.27-8.18-.5Z"/><path class="cls-5" d="M94.4,152.85s7.31-6.66,12.2-8.23c-.72-2.89-6.09-11.88-7.47-11.39s-13.58,7.36-19.62,8.23C82.85,143.69,87.39,145.06,94.4,152.85Z"/><path class="cls-5" d="M146.07,152.85s-7.32-6.66-12.2-8.23c.72-2.89,6.09-11.88,7.47-11.39s13.57,7.36,19.62,8.23C157.62,143.69,153.07,145.06,146.07,152.85Z"/><path class="cls-6" d="M82.85,141.37s13.81-8.45,22.21,3.1C105.06,144.47,92.34,150.43,82.85,141.37Z"/><path class="cls-6" d="M156.09,141.37s-13.81-8.45-22.22,3.1C133.87,144.47,146.59,150.43,156.09,141.37Z"/><path class="cls-7" d="M108.52,164.28s-6.78,10.05.54,13.25c2.39.27,2.85-6.15,5.85-2.93,2.32,3.2,5.87,7.41,10.1-.12,1.44-1.92,3.62.12,4.7,3.05,2.46.93,8.24-6,1.85-13.25"/><path class="cls-4" d="M108.33,195.81s10.81,20.3,22.51.23C127.23,195.81,122.94,198.66,108.33,195.81Z"/><path class="cls-8" d="M111,195.81s8.17,17.43,17,.2C125.32,195.81,122.08,198.26,111,195.81Z"/><path class="cls-2" d="M110.56,176.73s4.77-.75-2.19,15.93c-1.46,1-1.14,1.53-6.7,0,0,1,1.49,3.81,8.67,3.11,6.83.18,6.83,5.43,16,.11,0,0,9.46,1.21,11.65-3-.61-.88-4.2,2.1-7.09-.44-2.28-3.85-5.78-15.71-2-15.71-.6-1.74-2.46-5.28-5.17-.3-3.68,4.36-6.31,1.36-7.43-.05S113.15,171.36,110.56,176.73Z"/><circle class="cls-5" cx="94.73" cy="142.39" r="3.93"/><circle class="cls-5" cx="144.26" cy="142.39" r="3.93"/><g id="丑-2" data-name="丑"><path class="cls-2" d="M215.82,62.69A23.65,23.65,0,0,0,193.59,78.3H182.52V40.22h-15.6C164.64,17.66,143.9,0,118.64,0s-46,17.66-48.28,40.22H56V78.3H45.88a23.67,23.67,0,1,0-.81,18H56v14.84h.65c17.27-9.85,38.82-15.7,62.22-15.7s44.94,5.85,62.22,15.7h1.48V96.35H194.4a23.65,23.65,0,1,0,21.42-33.66Z"/><line class="cls-9" x1="70.36" y1="40.22" x2="166.92" y2="40.22"/><line class="cls-9" x1="55.95" y1="78.3" x2="55.95" y2="96.35"/><line class="cls-9" x1="182.52" y1="78.3" x2="182.52" y2="96.35"/><path class="cls-10" d="M129.75,79.37c0,2.55-4.89,4.61-10.93,4.61s-10.94-2.06-10.94-4.61,4.89-4.61,10.94-4.61S129.75,76.83,129.75,79.37Z"/><path class="cls-11" d="M182.19,104.7c-67.76-35.12-125.87,0-125.87,0v6.49s56.28-35.43,125.87,0Z"/><path class="cls-11" d="M25.48,70.85h5.44v2.54H25.48v3.88H36V80H25.48v4h7.1l8.8-6.87a19.83,19.83,0,0,0-15.9-10.47Z"/><path class="cls-11" d="M14.27,84H22.2V80H11.52V77.27H22.2V73.39H16.77V70.85H22.2V66.64A19.82,19.82,0,0,0,6.07,77.58Z"/><path class="cls-11" d="M43,91.5a19.5,19.5,0,0,0-.58-12L35,85.28Z"/><path class="cls-11" d="M5.06,80A19.33,19.33,0,0,0,4.53,91l7.28-5.68Z"/><path class="cls-11" d="M33,86.9h-7.5v5.42h5.44v2.54H25.48V99h8.44v2.3H13.28V99H22.2v-4.1H16.77V92.32H22.2V86.9H13.86L5.33,93.56a19.85,19.85,0,0,0,36.84.5Z"/><path class="cls-11" d="M217.85,70.7h5.43v2.54h-5.43v3.88h10.5v2.73h-10.5v4H225l8.8-6.87a19.83,19.83,0,0,0-15.9-10.47Z"/><path class="cls-11" d="M206.63,83.83h7.94v-4H203.88V77.12h10.69V73.24h-5.43V70.7h5.43V66.49a19.82,19.82,0,0,0-16.13,10.94Z"/><path class="cls-11" d="M235.39,91.35a19.5,19.5,0,0,0-.58-12l-7.4,5.78Z"/><path class="cls-11" d="M197.42,79.86a19.58,19.58,0,0,0-.53,11l7.29-5.68Z"/><path class="cls-11" d="M225.35,86.75h-7.5v5.42h5.43v2.54h-5.43v4.1h8.44v2.3H205.65v-2.3h8.92v-4.1h-5.43V92.17h5.43V86.75h-8.34l-8.53,6.66a19.85,19.85,0,0,0,36.84.5Z"/></g></g></g></g></svg>