<svg xmlns="http://www.w3.org/2000/svg" xmlns:xlink="http://www.w3.org/1999/xlink" viewBox="0 0 189.89 250.47"><defs><style>.cls-1{fill:#fbf0eb;}.cls-2{fill:url(#未命名的渐变_5);}.cls-3{fill:url(#未命名的渐变_5-2);}.cls-4{fill:#252527;}.cls-12,.cls-5{fill:#fff;}.cls-5{stroke:#252527;}.cls-11,.cls-12,.cls-5,.cls-6,.cls-8,.cls-9{stroke-miterlimit:10;}.cls-6,.cls-8{fill:none;}.cls-11,.cls-12,.cls-6,.cls-9{stroke:#231815;}.cls-7{fill:#df695e;}.cls-8{stroke:#b3403a;}.cls-13,.cls-9{fill:#ddc52f;}.cls-10{fill:#2c282a;}.cls-11{fill:#e7674a;}</style><linearGradient id="未命名的渐变_5" x1="68.13" y1="130.04" x2="55.4" y2="195.56" gradientUnits="userSpaceOnUse"><stop offset="0.39" stop-color="#e5afb0"/><stop offset="0.47" stop-color="#e5b0b1" stop-opacity="0.98"/><stop offset="0.55" stop-color="#e6b4b5" stop-opacity="0.93"/><stop offset="0.63" stop-color="#e8babb" stop-opacity="0.84"/><stop offset="0.71" stop-color="#eac3c4" stop-opacity="0.71"/><stop offset="0.8" stop-color="#edcfcf" stop-opacity="0.55"/><stop offset="0.88" stop-color="#f0dddd" stop-opacity="0.34"/><stop offset="0.96" stop-color="#f4eded" stop-opacity="0.11"/><stop offset="1" stop-color="#f6f5f5" stop-opacity="0"/><stop offset="1" stop-color="#f7f7f7"/></linearGradient><linearGradient id="未命名的渐变_5-2" x1="133.42" y1="120.2" x2="118.29" y2="198.04" xlink:href="#未命名的渐变_5"/></defs><title>旦</title><g id="图层_2" data-name="图层 2"><g id="首页引导页图"><g id="旦"><g id="旦-2" data-name="旦"><path class="cls-1" d="M95.74,83.52c-35.37,0-72.26,33.16-56.48,88.49,6.14,27,.26,40.1,21.91,62s42.24,21.92,68.44,0c20.85-17.91,16-39.29,21.65-62C168.9,113.47,131.1,83.52,95.74,83.52Z"/><path class="cls-2" d="M89.32,152.15,39.57,123c-4.92,13.39-5.78,29.89-.31,49,1.05,4.63,1.74,8.84,2.29,12.76,8.57,6.57,29,19.3,43.77,4.64,4.59-4.57,5.27-19,6.21-32.56A5,5,0,0,0,89.32,152.15Z"/><path class="cls-3" d="M151.26,172c6-20,5.58-36.68,1-50a3.25,3.25,0,0,0-1.49.47l-50.52,29.63a5,5,0,0,0-2.22,4.7c1,13.54,1.63,28,6.21,32.56,15.42,15.33,37.08.72,44.86-5.49A115.29,115.29,0,0,1,151.26,172Z"/><path class="cls-4" d="M42.52,132.19s32.76,14.89,45.72,25.75C91.22,157.94,87.54,137.1,42.52,132.19Z"/><path class="cls-4" d="M147.53,132.19s-32.76,14.89-45.72,25.75C98.83,157.94,102.51,137.1,147.53,132.19Z"/><path class="cls-4" d="M79.13,171.61s-.17-13-20.84-15.42c-13.14-2.63-17.87-6.3-20.15-10S47.6,176.16,79.13,171.61Z"/><path class="cls-4" d="M111.6,171.61s.17-13,20.84-15.42c13.14-2.63,17.87-6.3,20.15-10S143.13,176.16,111.6,171.61Z"/><path class="cls-5" d="M51.62,161.23s18.94-6.87,26.3,9.32C77.92,170.55,60.93,174.63,51.62,161.23Z"/><path class="cls-5" d="M139.13,161.23s-18.94-6.87-26.31,9.32C112.82,170.55,129.81,174.63,139.13,161.23Z"/><path class="cls-6" d="M83.19,192.12s-3.82,7.83,1.33,11.07c2.31-.95,3.44-5.72,8,1.53a5,5,0,0,0,3.63,0s4.58-7.59,8.2-1.34c3.25.19,4.39-7.25,1-11.26"/><path class="cls-7" d="M77.46,223.55s10.29-8.54,14.63-3a6.24,6.24,0,0,0,6.17-.13s2.89-5.26,13.93,3.15c-2,2.89-7.53,8-17.37,7.75S79.25,226.31,77.46,223.55Z"/><path class="cls-8" d="M77.46,223.55s7.16-2.19,12.06,1.44c1.35,1.23,8.89,1,10.34,0,1.68-1.2,3.64-1.88,12.33-1.44"/><circle class="cls-4" cx="66.79" cy="165.46" r="4.79"/><circle class="cls-4" cx="125.98" cy="165.46" r="4.79"/><path class="cls-9" d="M188.53,101.28A2.84,2.84,0,0,0,184,102h-2.79a2.91,2.91,0,0,0-.64-.94,2.86,2.86,0,0,0-4,0,3,3,0,0,0-.6.9h-6.73a47.8,47.8,0,0,0-.45-12.08l5.89-3.07a2.81,2.81,0,0,0,1.11.65,2.86,2.86,0,0,0,3.58-1.91,2.75,2.75,0,0,0,.09-1.24l2.21-1.15a2.83,2.83,0,0,0,1.29.83A2.86,2.86,0,1,0,181,80.44a2.82,2.82,0,0,0-.11.81l-2.48,1.29A2.85,2.85,0,0,0,173.73,85l-5.41,2.81a34.21,34.21,0,0,0-5.17-12.1L168,71.88a3,3,0,0,0,1.22.43,2.86,2.86,0,0,0,3.15-2.55,2.67,2.67,0,0,0-.15-1.23l2-1.56a2.81,2.81,0,0,0,1.42.58A2.87,2.87,0,1,0,173,64.4a2.81,2.81,0,0,0,0,.82L170.87,67a2.87,2.87,0,0,0-4.24,2.21,2.77,2.77,0,0,0,.1,1.08l-4.8,3.81a32.17,32.17,0,0,0-12.31-9.35l4.45-4.36a2.79,2.79,0,0,0,1.26.3,2.86,2.86,0,0,0,2.86-2.86,2.83,2.83,0,0,0-.27-1.21l1.78-1.75a2.86,2.86,0,1,0-1.39-2.45,2.69,2.69,0,0,0,.13.81l-2,2a2.8,2.8,0,0,0-1.12-.23,2.86,2.86,0,0,0-2.87,2.87,2.9,2.9,0,0,0,.21,1.06l-5.11,5a44.49,44.49,0,0,0-5.64-1.74C137.6,44.05,125.82,25.59,96.76,24S51.6,46.79,49.24,62.11A29.07,29.07,0,0,0,43.11,64l-5.25-5.14a2.71,2.71,0,0,0,.21-1.06,2.86,2.86,0,0,0-2.86-2.87,2.77,2.77,0,0,0-1.12.23l-2-2a3,3,0,0,0,.13-.81,2.89,2.89,0,1,0-1.39,2.45l1.78,1.75a2.83,2.83,0,0,0-.28,1.21,2.87,2.87,0,0,0,2.87,2.86,2.82,2.82,0,0,0,1.26-.3l4.66,4.57a36.58,36.58,0,0,0-11.82,9.56l-4.92-3.9a2.77,2.77,0,0,0,.1-1.08,2.87,2.87,0,0,0-4.24-2.21l-2.18-1.73a3.18,3.18,0,0,0,0-.82,2.87,2.87,0,1,0-2.55,3.15A2.89,2.89,0,0,0,17,67.31l2,1.55a2.67,2.67,0,0,0-.15,1.23,2.85,2.85,0,0,0,3.15,2.55,2.71,2.71,0,0,0,1.22-.43l4.91,3.89a38.62,38.62,0,0,0-5.68,11.48l-5-2.59a2.86,2.86,0,0,0-3.69-3,3,3,0,0,0-1,.54l-2.47-1.29a2.82,2.82,0,0,0-.11-.81A2.87,2.87,0,1,0,8.23,84a2.83,2.83,0,0,0,1.29-.83l2.21,1.15a2.9,2.9,0,0,0,.08,1.24,2.86,2.86,0,0,0,4.7,1.26l5.32,2.77a46.25,46.25,0,0,0-1.34,11.27H14a2.85,2.85,0,0,0-4.64-.94,2.76,2.76,0,0,0-.64.94H5.89a2.86,2.86,0,1,0-.52,3.38,2.76,2.76,0,0,0,.76-1.33h2.5A2.68,2.68,0,0,0,9.28,104a2.86,2.86,0,0,0,4.05,0,2.8,2.8,0,0,0,.69-1.1h6.51c0,.4,0,.8,0,1.21-8.25,9-8.06,31-.1,37.69,2.85,16.5,12.66,56.55,35.83,67.54,0,0-18.85-17.27-21.6-66.36,10.61,3.14,32.6-3.53,35.35-26.7,9.81,7.46,28.27,16.88,50.65,0,2.75,13,8.64,26.7,35.73,25.52-2,25.92-4.31,50.27-22,67.54,14.93-8.63,33.78-24.73,36.92-67.93,7-5.43,7.82-29.27-2-37.4h6.51a2.8,2.8,0,0,0,.69,1.1,2.86,2.86,0,0,0,4.05,0,2.79,2.79,0,0,0,.65-1.06h2.5a2.81,2.81,0,0,0,.76,1.33,2.86,2.86,0,0,0,4-4.09Z"/><path class="cls-10" d="M169.36,104h.22a2.76,2.76,0,0,1-.37-2.3,47.3,47.3,0,0,0-.44-11.61s0,0,0-.05a15.18,15.18,0,0,1-.43-2.27h0a34.21,34.21,0,0,0-5.17-12.1h0A18.36,18.36,0,0,1,162,74l-.1.09a32.14,32.14,0,0,0-11.67-9,8.86,8.86,0,0,1-1.94-.81,3,3,0,0,1-.76-.36h0l-.64-.23a3.91,3.91,0,0,1-.83-.3c-1.32-.45-2.7-.86-4.17-1.21C137.6,44.05,125.82,25.59,96.76,24S51.6,46.79,49.24,62.11A29.07,29.07,0,0,0,43.11,64l-.06-.06a2.84,2.84,0,0,1-.78.45l-.69.24a4.05,4.05,0,0,1-.55.2l.1.1a36.58,36.58,0,0,0-11.82,9.56l0,0a5.5,5.5,0,0,1-1.15,1.45c0,.06-.09.11-.13.16l.09.06a38.62,38.62,0,0,0-5.68,11.48h0c0,.09,0,.18-.07.28a7.6,7.6,0,0,1-.43,1.27,3.63,3.63,0,0,1-.1.45l.07,0a46.25,46.25,0,0,0-1.34,11.27h-.1a3.67,3.67,0,0,1,.11.5l.1.75a1.85,1.85,0,0,1-.09.8h0c0,.4,0,.8,0,1.21-8.25,9-8.06,31-.1,37.69,2.85,16.5,12.66,56.55,35.83,67.54,0,0-18.85-17.27-21.6-66.36,10.61,3.14,32.6-3.53,35.35-26.7,9.81,7.46,28.27,16.88,50.65,0,2.75,13,8.64,26.7,35.73,25.52-2,25.92-4.31,50.27-22,67.54,14.93-8.63,33.78-24.73,36.92-67.93C178.35,136,179.19,112.16,169.36,104Z"/><circle class="cls-11" cx="95.05" cy="98.5" r="9.03" transform="translate(-17.33 176.64) rotate(-80.83)"/><path class="cls-12" d="M92.41,87.63a3.41,3.41,0,1,1-3.4-3.4A3.4,3.4,0,0,1,92.41,87.63Z"/><path class="cls-12" d="M87.33,90.41a3.4,3.4,0,1,1-4.65-1.25A3.4,3.4,0,0,1,87.33,90.41Z"/><path class="cls-12" d="M84.32,95.36a3.4,3.4,0,1,1-4.65,1.24A3.41,3.41,0,0,1,84.32,95.36Z"/><path class="cls-12" d="M84.19,101.14a3.41,3.41,0,1,1-3.41,3.41A3.41,3.41,0,0,1,84.19,101.14Z"/><path class="cls-12" d="M87,106.22a3.4,3.4,0,1,1-1.25,4.65A3.41,3.41,0,0,1,87,106.22Z"/><path class="cls-12" d="M91.91,109.23a3.41,3.41,0,1,1,1.25,4.65A3.4,3.4,0,0,1,91.91,109.23Z"/><path class="cls-12" d="M97.7,109.37a3.41,3.41,0,1,1,3.4,3.4A3.41,3.41,0,0,1,97.7,109.37Z"/><path class="cls-12" d="M102.78,106.59a3.41,3.41,0,1,1,4.65,1.24A3.4,3.4,0,0,1,102.78,106.59Z"/><path class="cls-12" d="M105.79,101.64a3.4,3.4,0,1,1,4.65-1.25A3.4,3.4,0,0,1,105.79,101.64Z"/><path class="cls-12" d="M105.92,95.85a3.41,3.41,0,1,1,3.41-3.4A3.4,3.4,0,0,1,105.92,95.85Z"/><path class="cls-12" d="M103.14,90.77a3.4,3.4,0,1,1,1.25-4.65A3.41,3.41,0,0,1,103.14,90.77Z"/><path class="cls-12" d="M98.2,87.76A3.4,3.4,0,1,1,97,83.11,3.41,3.41,0,0,1,98.2,87.76Z"/><path class="cls-9" d="M38.56,101.1a6.94,6.94,0,1,1-6.94-6.93A6.94,6.94,0,0,1,38.56,101.1Z"/><path class="cls-11" d="M35.21,100.69a3.44,3.44,0,1,1-3.44-3.44A3.44,3.44,0,0,1,35.21,100.69Z"/><path class="cls-9" d="M42.14,82.66a6.94,6.94,0,1,1-6.93-6.94A6.93,6.93,0,0,1,42.14,82.66Z"/><path class="cls-11" d="M38.8,82.24a3.44,3.44,0,1,1-3.44-3.44A3.44,3.44,0,0,1,38.8,82.24Z"/><path class="cls-9" d="M58.52,73.06a6.94,6.94,0,1,1-6.94-6.94A6.94,6.94,0,0,1,58.52,73.06Z"/><path class="cls-11" d="M55.17,72.64a3.44,3.44,0,1,1-3.44-3.44A3.44,3.44,0,0,1,55.17,72.64Z"/><path class="cls-9" d="M146.41,73.06a6.94,6.94,0,1,1-6.94-6.94A6.94,6.94,0,0,1,146.41,73.06Z"/><path class="cls-11" d="M143.06,72.64a3.44,3.44,0,1,1-3.44-3.44A3.44,3.44,0,0,1,143.06,72.64Z"/><path class="cls-9" d="M162.49,82.66a6.94,6.94,0,1,1-6.94-6.94A6.94,6.94,0,0,1,162.49,82.66Z"/><path class="cls-11" d="M159.14,82.24a3.44,3.44,0,1,1-3.44-3.44A3.44,3.44,0,0,1,159.14,82.24Z"/><path class="cls-9" d="M165.67,101.1a6.94,6.94,0,1,1-6.94-6.93A6.94,6.94,0,0,1,165.67,101.1Z"/><path class="cls-11" d="M162.32,100.69a3.44,3.44,0,1,1-3.44-3.44A3.44,3.44,0,0,1,162.32,100.69Z"/><path class="cls-12" d="M53,125.38s-9-4.71-7.46,4.42c-2.36,2-8.94-5.21-7.56-11.68,1.77.09,6.36,5.91,8.22-1.16,0,0-2.23-5.62-5.28-5.91-.54-.52,2.56-.62,3.05-.46s.49-2.69,1-3,.88,8.35,4.71,8,3.83-5.52,2.16-6.73,10.9,2.81,9.43,11.44c-2.85-.39-7.92-3.1-7.66,3.64C53.54,123.91,53.83,125.58,53,125.38Z"/><path class="cls-12" d="M137.9,126.75s9-4.71,7.46,4.42c2.36,2,8.93-5.2,7.56-11.68-1.77.1-6.36,5.91-8.22-1.16,0,0,2.23-5.62,5.27-5.91.54-.52-2.55-.62-3-.46s-.49-2.69-1-3-.88,8.35-4.71,8-3.83-5.51-2.16-6.73-10.9,2.81-9.43,11.45c2.85-.4,7.92-3.11,7.66,3.63C137.31,125.28,137,127,137.9,126.75Z"/><path class="cls-9" d="M104.09,11.82C104.09,5.57,100.27.5,95.55.5S87,5.57,87,11.82s3.83,11.32,8.54,11.32S104.09,18.08,104.09,11.82Z"/><polygon class="cls-9" points="94.86 51.51 97.7 51.51 97.7 23.14 95.55 23.14 94.86 23.14 94.86 51.51"/><path class="cls-9" d="M127.85,22.4C131,17,130.2,10.68,126.12,8.33s-9.93.12-13.05,5.53-2.36,11.72,1.73,14.08S124.73,27.81,127.85,22.4Z"/><polygon class="cls-9" points="100.02 52.15 102.48 53.58 116.66 29.01 114.8 27.94 114.2 27.59 100.02 52.15"/><path class="cls-9" d="M143.14,43.44c5.42-3.13,7.9-9,5.54-13s-8.66-4.86-14.07-1.74-7.9,9-5.54,13.06S137.73,46.57,143.14,43.44Z"/><polygon class="cls-9" points="104.16 55.29 105.58 57.75 130.15 43.57 129.07 41.71 128.72 41.11 104.16 55.29"/><path class="cls-9" d="M77.6,14.85c-3.13-5.41-9-7.89-13-5.54S59.69,18,62.81,23.39s9,7.89,13.06,5.53S80.73,20.27,77.6,14.85Z"/><polygon class="cls-9" points="89.45 53.83 91.91 52.41 77.73 27.85 75.87 28.93 75.27 29.27 89.45 53.83"/><path class="cls-9" d="M56.17,30.72c-5.41-3.13-11.71-2.35-14.07,1.73s.12,9.93,5.54,13,11.71,2.36,14.07-1.73S61.59,33.84,56.17,30.72Z"/><polygon class="cls-9" points="85.93 58.55 87.35 56.09 62.79 41.91 61.71 43.77 61.37 44.37 85.93 58.55"/><path class="cls-13" d="M125.33,56.86a3.3,3.3,0,0,0,1,.19,3.2,3.2,0,1,0-1.51-.4C120,61.44,113.15,61.48,110,62.37s-10.34,7.86-10.34,7.86c2.88-3,14.26-4.72,18.71-5.76C122.33,63.53,125.15,59,125.33,56.86Z"/><path class="cls-13" d="M109.18,70.52c-3.38.32-11.56,5.9-11.56,5.9C101,74,112.49,74.3,117.06,74.06s8.52-5.25,8.29-6.89C119.65,71.47,112.57,70.19,109.18,70.52Z"/><path class="cls-12" d="M128.52,63a3.16,3.16,0,1,0,3.16,3.16A3.16,3.16,0,0,0,128.52,63Z"/><path class="cls-13" d="M63.67,56.25a3.2,3.2,0,0,1-1,.18,3.2,3.2,0,1,1,1.52-.4C69,60.83,75.85,60.87,79,61.76s10.34,7.85,10.34,7.85c-2.88-3-14.27-4.71-18.72-5.76C66.68,62.92,63.86,58.34,63.67,56.25Z"/><path class="cls-13" d="M79.82,69.9c3.38.33,11.57,5.9,11.57,5.9C88,73.35,76.51,73.69,72,73.45s-8.53-5.25-8.29-6.89C69.35,70.86,76.44,69.58,79.82,69.9Z"/><path class="cls-12" d="M60.49,62.34a3.17,3.17,0,1,1-3.16,3.17A3.16,3.16,0,0,1,60.49,62.34Z"/><path class="cls-12" d="M62.6,49.84A3.16,3.16,0,1,1,59.44,53,3.16,3.16,0,0,1,62.6,49.84Z"/><path class="cls-12" d="M126.37,50.67a3.16,3.16,0,1,1-3.16,3.16A3.16,3.16,0,0,1,126.37,50.67Z"/><path class="cls-11" d="M101.11,12.24c0,4.63-2.52,8.38-5.63,8.38s-5.62-3.75-5.62-8.38,2.52-8.38,5.62-8.38S101.11,7.61,101.11,12.24Z"/><path class="cls-11" d="M125.06,21.27c-2.31,4-6.37,6-9.06,4.44s-3-6.06-.68-10.06,6.37-6,9.06-4.45S127.37,17.26,125.06,21.27Z"/><path class="cls-11" d="M141.29,41.07c-4,2.31-8.51,2-10.06-.68s.43-6.75,4.44-9.06,8.51-2,10.06.68S145.3,38.75,141.29,41.07Z"/><path class="cls-11" d="M75.23,16.7c2.31,4,2,8.52-.68,10.07s-6.75-.44-9.06-4.44-2-8.52.68-10.07S72.91,12.7,75.23,16.7Z"/><path class="cls-11" d="M55,33.51c4,2.31,6,6.37,4.45,9.06s-6.06,3-10.07.68-6-6.37-4.44-9.06S51,31.2,55,33.51Z"/><path class="cls-12" d="M13.21,101.79a1.8,1.8,0,1,1-1.8-1.79A1.81,1.81,0,0,1,13.21,101.79Z"/><circle class="cls-12" cx="3.21" cy="102.14" r="1.79"/><path class="cls-12" d="M16.25,84.8A1.8,1.8,0,1,1,14.45,83,1.8,1.8,0,0,1,16.25,84.8Z"/><path class="cls-12" d="M9.15,81.21a1.79,1.79,0,1,1-1.79-1.79A1.8,1.8,0,0,1,9.15,81.21Z"/><path class="cls-12" d="M23.51,69.86a1.79,1.79,0,1,1-1.79-1.79A1.8,1.8,0,0,1,23.51,69.86Z"/><path class="cls-12" d="M17,65a1.8,1.8,0,1,1-1.79-1.8A1.79,1.79,0,0,1,17,65Z"/><path class="cls-12" d="M37,57.58a1.8,1.8,0,1,1-1.8-1.79A1.8,1.8,0,0,1,37,57.58Z"/><path class="cls-12" d="M31.12,52.32a1.8,1.8,0,1,1-1.79-1.79A1.8,1.8,0,0,1,31.12,52.32Z"/><path class="cls-12" d="M176.63,103.08a1.8,1.8,0,1,0,1.8-1.79A1.8,1.8,0,0,0,176.63,103.08Z"/><path class="cls-12" d="M184.84,103.43a1.79,1.79,0,1,0,1.79-1.79A1.79,1.79,0,0,0,184.84,103.43Z"/><path class="cls-12" d="M174.85,84.74a1.8,1.8,0,1,0,1.8-1.79A1.8,1.8,0,0,0,174.85,84.74Z"/><path class="cls-12" d="M181.94,81.15a1.8,1.8,0,1,0,1.8-1.79A1.81,1.81,0,0,0,181.94,81.15Z"/><path class="cls-12" d="M167.59,69.48a1.79,1.79,0,1,0,1.79-1.8A1.79,1.79,0,0,0,167.59,69.48Z"/><path class="cls-12" d="M174.13,64.57a1.8,1.8,0,1,0,1.79-1.79A1.79,1.79,0,0,0,174.13,64.57Z"/><path class="cls-12" d="M153.54,57.74A1.79,1.79,0,1,0,155.33,56,1.8,1.8,0,0,0,153.54,57.74Z"/><path class="cls-12" d="M159.41,52.49a1.79,1.79,0,1,0,1.79-1.8A1.79,1.79,0,0,0,159.41,52.49Z"/></g></g></g></g></svg>