<svg xmlns="http://www.w3.org/2000/svg" viewBox="0 0 227.89 246.49"><defs><style>.cls-1{fill:#f6eff6;}.cls-2{fill:none;}.cls-2,.cls-5{stroke:#151313;}.cls-2,.cls-5,.cls-6,.cls-8,.cls-9{stroke-miterlimit:10;}.cls-3{fill:#252527;}.cls-4{fill:#db6059;}.cls-5{fill:#fff;}.cls-6{fill:#2c282a;}.cls-6,.cls-8,.cls-9{stroke:#231815;}.cls-7{fill:#151313;}.cls-8{fill:#ceaa87;}.cls-9{fill:#f2cd26;}</style></defs><title>净</title><g id="图层_2" data-name="图层 2"><g id="首页引导页图"><g id="净"><path class="cls-1" d="M118.05,68.88c-35.36,0-72.25,33.17-56.48,88.5,6.15,27,.27,40.1,21.92,62s42.23,21.92,68.43,0c20.85-17.9,16-39.29,21.65-62C191.21,98.84,153.42,68.88,118.05,68.88Z"/><path class="cls-2" d="M109,169.75s-5.78,8.57.46,11.3c2,.22,2.43-5.24,5-2.5,2,2.72,5,6.32,8.61-.1,1.23-1.64,3.09.1,4,2.6,2.1.79,7-5.12,1.57-11.3"/><path class="cls-3" d="M66.9,176.75s4.38,25.88,18.92,24.94c14.72,0,12.79-20.1,34.34-19.27,18.39,2.08,19.62,20.21,32.76,20.21,17.16-3.78,16.11-25.69,17.16-25.88s9.67,7.56,10.53,48.55c-11.93,17.57-19.38,20.13-61.64,21.12,0,0-55,2.49-62.19-20.93C57.77,201.92,58.32,188.46,66.9,176.75Z"/><path class="cls-4" d="M114.15,134.11s2.74-7.45-1.64-18.79c-3.43-7.71.9-12.78,6.29-12.78,2.67,0,10.27,2.33,6.63,12.53-.43,1.9-4.62,7.76-2,19-1.31-1.56-2.4-3.14-2.13-11.38,0-1.9-.83-3.7-2.5-3.7s-2.81,1.58-2.75,4.18C116.26,124.29,116.43,132.11,114.15,134.11Z"/><path class="cls-5" d="M88.17,77S63.73,94.16,60.71,114.39c2.36,6.75,4.07,11.3,2.89,29.43,1.31,11.17,7.62,16.82,9.46,17.08s16.16-2.81,22.2.79,12.09,4.08,14.85,0,2.1-9.47.52-16.43-.39-8.66.13-14.57S88.17,77,88.17,77Z"/><path class="cls-6" d="M88,83.91S103.14,126.35,74.9,98.5c5.91,7.09,21.54,36.39,28.77,34.94S91.71,90.84,88,83.91Z"/><path class="cls-6" d="M65.86,113.65a.47.47,0,0,0-.64.61,24.66,24.66,0,0,1,1.4,17.08c-2.9,10.59,3.88,22.75,7.18,24.68l.1,0c4.4,0,19.67-1.68,27.78,4.85a.05.05,0,0,0,0,0c2.63,1.43,8.12-.81,7.73-10-.21-3.26-2.93-7.32-1.8-11.07a.18.18,0,0,0-.3-.19c-1.58,1.53-5.92,5.4-17.26.88C77,135.32,87.51,125.31,65.86,113.65Z"/><path class="cls-5" d="M85.3,146.43s15.22-5.52,21.14,7.48C106.44,153.91,92.79,157.2,85.3,146.43Z"/><path class="cls-5" d="M149.7,77s24.44,17.18,27.46,37.41c-2.36,6.75-4.07,11.3-2.89,29.43-1.31,11.17-7.62,16.82-9.46,17.08s-16.16-2.81-22.2.79-12.09,4.08-14.85,0-2.1-9.47-.52-16.43.39-8.66-.13-14.57S149.7,77,149.7,77Z"/><path class="cls-6" d="M149.84,83.91S134.73,126.35,163,98.5c-5.91,7.09-21.54,36.39-28.77,34.94S146.16,90.84,149.84,83.91Z"/><path class="cls-6" d="M172,113.65a.46.46,0,0,1,.64.61,24.66,24.66,0,0,0-1.4,17.08c2.9,10.59-3.88,22.75-7.18,24.68l-.1,0c-4.4,0-19.67-1.68-27.78,4.85l0,0c-2.63,1.43-8.12-.81-7.73-10,.21-3.26,2.93-7.32,1.8-11.07a.18.18,0,0,1,.3-.19c1.58,1.53,5.92,5.4,17.26.88C160.88,135.32,150.36,125.31,172,113.65Z"/><path class="cls-5" d="M152.57,146.43s-15.22-5.52-21.14,7.48C131.43,153.91,145.08,157.2,152.57,146.43Z"/><circle class="cls-7" cx="96.53" cy="149.48" r="4.45"/><ellipse class="cls-7" cx="142" cy="149.48" rx="4.79" ry="4.45"/><g id="图层_8" data-name="图层 8"><path class="cls-6" d="M227.29,80.16,222,78.92l-3.42,14.56H176.8v-72H159.55V.5H71.82v21H56.07v72H9.3L5.89,78.92.6,80.16,5.14,99.55v.68H56.07v12c17.25-7.54,38-12,60.36-12s43.12,4.41,60.37,12v-12h46.32V97.94Z"/><path class="cls-8" d="M168,86.53a7.57,7.57,0,0,0-10.15-3.23,146.45,146.45,0,0,0-33.4-5.14,7.65,7.65,0,0,0-13.2,0A171.92,171.92,0,0,0,75,83.66,7.65,7.65,0,0,0,64,87c-5.07,1.74-7.9,3-7.9,3v17.31s59.32-27.17,120.73,0V90C173.86,88.72,170.92,87.58,168,86.53Z"/><path class="cls-9" d="M123.63,85.83a5.4,5.4,0,1,1-5.4-5.39A5.4,5.4,0,0,1,123.63,85.83Z"/><path class="cls-9" d="M76.64,92.46a5.4,5.4,0,1,1-5.4-5.4A5.4,5.4,0,0,1,76.64,92.46Z"/><path class="cls-9" d="M167.5,92.46a5.4,5.4,0,1,1-5.39-5.4A5.39,5.39,0,0,1,167.5,92.46Z"/><path class="cls-6" d="M56.07,112.18v-4.86s61.18-27.75,120.73,0v4.86S119.79,85.05,56.07,112.18Z"/></g></g></g></g></svg>