<svg xmlns="http://www.w3.org/2000/svg" xmlns:xlink="http://www.w3.org/1999/xlink" viewBox="0 0 227.38 261.45"><defs><style>.cls-1{fill:#fbf0eb;}.cls-2{fill:none;stroke:#151313;}.cls-10,.cls-11,.cls-12,.cls-13,.cls-14,.cls-15,.cls-16,.cls-2,.cls-6,.cls-8,.cls-9{stroke-miterlimit:10;}.cls-3{fill:#252527;}.cls-4{fill:url(#未命名的渐变_31);}.cls-5{fill:url(#未命名的渐变_31-2);}.cls-14,.cls-6{fill:#fff;}.cls-6{stroke:#252527;}.cls-7{fill:url(#未命名的渐变_67);}.cls-8{fill:#e7e5e5;}.cls-10,.cls-11,.cls-12,.cls-13,.cls-14,.cls-15,.cls-16,.cls-8,.cls-9{stroke:#231815;}.cls-9{fill:#323333;}.cls-10{fill:#9fd7e7;}.cls-11{fill:#8cb8c9;}.cls-12{fill:#f4e1db;}.cls-13{fill:#e7674a;}.cls-15{fill:#9ad5e7;}.cls-16{fill:#e9e9e9;}</style><linearGradient id="未命名的渐变_31" x1="84.09" y1="130.91" x2="73.79" y2="183.94" gradientUnits="userSpaceOnUse"><stop offset="0.35" stop-color="#e5afb0"/><stop offset="0.42" stop-color="#e5b1b2" stop-opacity="0.98"/><stop offset="0.51" stop-color="#e7b6b6" stop-opacity="0.91"/><stop offset="0.6" stop-color="#e9bebe" stop-opacity="0.79"/><stop offset="0.71" stop-color="#ebc9c9" stop-opacity="0.63"/><stop offset="0.81" stop-color="#efd7d8" stop-opacity="0.43"/><stop offset="0.93" stop-color="#f3e8e9" stop-opacity="0.18"/><stop offset="1" stop-color="#f6f5f5" stop-opacity="0"/><stop offset="1" stop-color="#f7f7f7"/></linearGradient><linearGradient id="未命名的渐变_31-2" x1="240.03" y1="130.9" x2="229.72" y2="183.92" gradientTransform="matrix(-1, 0, 0, 1, 382.28, 0)" xlink:href="#未命名的渐变_31"/><radialGradient id="未命名的渐变_67" cx="113.86" cy="135.12" fx="105.20409235873255" r="10.14" gradientTransform="translate(-107.49 251.81) rotate(-90.73) scale(1 1.65)" gradientUnits="userSpaceOnUse"><stop offset="0" stop-color="#e5afb0"/><stop offset="0.3" stop-color="#e5b0b1" stop-opacity="0.99"/><stop offset="0.41" stop-color="#e6b2b3" stop-opacity="0.96"/><stop offset="0.49" stop-color="#e7b5b6" stop-opacity="0.91"/><stop offset="0.56" stop-color="#e8bbbc" stop-opacity="0.84"/><stop offset="0.61" stop-color="#eac2c2" stop-opacity="0.74"/><stop offset="0.66" stop-color="#eccacb" stop-opacity="0.62"/><stop offset="0.7" stop-color="#eed4d5" stop-opacity="0.48"/><stop offset="0.74" stop-color="#f1e0e1" stop-opacity="0.32"/><stop offset="0.78" stop-color="#f5eded" stop-opacity="0.14"/><stop offset="0.8" stop-color="#f7f7f7" stop-opacity="0"/><stop offset="1" stop-color="#e0acad" stop-opacity="0"/></radialGradient></defs><title>净 (2)</title><g id="图层_2" data-name="图层 2"><g id="首页引导页图"><g id="净"><g id="图层_3" data-name="图层 3"><path class="cls-1" d="M113.54,86.1c-35.37,0-72.26,33.17-56.49,88.5,6.15,27,.27,40.1,21.92,62s42.24,21.92,68.43,0c20.85-17.91,16-39.3,21.66-62C186.7,116.06,148.9,86.1,113.54,86.1Z"/><path class="cls-2" d="M103,189.87s-5.78,8.57.46,11.3c2,.23,2.44-5.24,5-2.49,2,2.72,5,6.31,8.6-.1,1.24-1.64,3.09.1,4,2.59,2.1.79,7-5.12,1.58-11.3"/><path class="cls-3" d="M59.63,188.91s4.53,26.92,19.54,25.93c15.21,0,13.22-20.9,35.47-20,19,2.16,20.27,21,33.84,21,17.74-3.93,16.65-26.72,17.74-26.92s10,7.86,10.87,50.49c-12.32,18.27-20,20.94-63.67,22,0,0-56.78,2.59-64.24-21.77C50.2,215.09,50.76,201.09,59.63,188.91Z"/><path class="cls-4" d="M109.37,150.83,54.59,124s-4,18.13,3.53,49.13c0,0,27.11,21.56,45.16,6.38C108,175.52,108.33,162.34,109.37,150.83Z"/><path class="cls-5" d="M116.91,150.83,171.69,124s5.59,16.76-3.52,49.13c0,0-27.12,21.56-45.16,6.38C118.32,175.52,118,162.34,116.91,150.83Z"/><path class="cls-3" d="M69.17,133.9a112.65,112.65,0,0,1,17.33,2.92c4.28,1.6,21.61,12.88,20.65,14.43C105,154.23,96.88,151.08,69.17,133.9Z"/><path class="cls-3" d="M157.08,133.9a112.87,112.87,0,0,0-17.34,2.92c-4.28,1.6-21.61,12.88-20.65,14.43C121.28,154.23,129.36,151.08,157.08,133.9Z"/><path class="cls-3" d="M103.19,167.11s-1.32-11.43-15.9-12.48c-10.91.06-11.17-.92-17.54-5.39C69.75,149.24,77.5,171.37,103.19,167.11Z"/><path class="cls-3" d="M123.1,167.11s1.32-11.43,15.9-12.48c10.91.06,11.17-.92,17.54-5.39C156.54,149.24,148.79,171.37,123.1,167.11Z"/><path class="cls-6" d="M80.39,158.76s15.22-5.51,21.15,7.49C101.54,166.25,87.88,169.54,80.39,158.76Z"/><path class="cls-6" d="M145.81,158.76s-15.22-5.51-21.14,7.49C124.67,166.25,138.32,169.54,145.81,158.76Z"/><path class="cls-7" d="M101,132.67l3.41,8.75s9.55-4.55,19.19,0l3.53-8.75A26.25,26.25,0,0,0,101,132.67Z"/><circle class="cls-3" cx="134.29" cy="162.16" r="3.78"/><circle class="cls-3" cx="91.96" cy="162.16" r="3.78"/></g><g id="图层_1-2" data-name="图层 1"><path class="cls-8" d="M173.87,128.09c-8.52-15.65-21.94-30.46-62.52-32s-59.51,32-59.51,32H50.27v-5.23l2.39-3s19.26-33.56,59.84-32,52.11,16.36,60.63,32l2.87,2v5.41Z"/><path class="cls-9" d="M174.43,133.71c-8.53-15.65-21.94-30.46-62.52-32s-59.51,32-59.51,32H50.82v-5.23l2.39-3s19.27-33.57,59.85-32,52.1,16.36,60.63,32l2.87,2v5.4Z"/><path class="cls-10" d="M201.75,114.81,200.37,111l5.86-.43-3.29-4.12,2.65-4.35L196.9,77.67,201.31,72l-5.49,1L177.21,56.64l-2.43-.32-.31-4L151.29,38.71l-4.45,6.1-8.48-9.09H89l-8.48,9.09-4.45-6.1L52.91,52.27l-.31,4-2.43.32L31.56,73l1.49,2.57-3.38.27L21.8,102.08l2.64,4.35-3.29,4.12L27,111l-1.38,3.83h8.05S36.09,82.47,61.5,63.18c16.31-12.37,102.26-23,124.07,16.9,11.51,21,5.76,23.92,6.44,28.05l.67,4.12,9.07,2.56"/><path class="cls-11" d="M190.15,127.74s10.62-45-18.82-62.66c-13.78-8.26-24.16-12.32-32.86-14.36a6.89,6.89,0,0,0,.39-1.49,21.23,21.23,0,0,1-2.72,1c-1.36-.27-2.68-.5-4-.69-.31-1.34.39-3.16,3.47-3.57,3.36-.46,3.09-6.25,1.16-6.44a4,4,0,0,0-1.3-.44,22.56,22.56,0,0,0,4.36-11.67C140.87,14,129.74,2.24,115,1.15s-27.53,8.9-28.54,22.31a22.92,22.92,0,0,0,5,15.94c-4.32-.94-7.06,5.53-1.7,6.78,5.74,1.35,3.55,4,1.11,4.18s-3.32.38-4.56-1c-.75-.82-.14,1.24,1.8,3.06C70.32,57.45,49.78,67,41.49,80.82c-13,21.69-5.9,46-5.78,51.9,0,0-20.32-1.13-16.17,19.76,3.14,11.2,6.87,9,13.91,10.06,0,0,23,12.08,19-25.79-2.81-42,51.69-48.54,60.61-47.84,0,0,62.34-.32,61.3,45.92-5.58,36.16,20,29.46,20.16,27.37.13-1.68,13.77,6.27,15.69-19.1C210.77,134,203.21,123.27,190.15,127.74Z"/><path class="cls-10" d="M56.11,117c-3.89-.35-10-1.7-11.34-5.24,0,0-1.77-6.68,1.22-8.49s10.56-2.18,9.42.69-2.43,2.85-2.84,2.67,3.52,2.37,4.57-1.07.45-7.77-.65-9.33S59,93.5,61.17,94.65s4.23.66,5.32,1.31S66,79.47,69.85,79.75,81,85.36,82.3,87.49,84,74.32,87.72,73.33s9.24,6.87,11,8.41,5.49-11.41,9.23-9,1,8.16,5.35,9.25,2.58-8.6,5.61-9.22,2.3,8.26,4.51,9.12,9-10.31,11.95-10.09,5.29,11.08,5.94,13.8S151,77,154.55,78.89s3.37,11,2.58,13.9,9.22-1.36,10.27.69-2.51,8.75,0,11.53,4.32.25,4.17-.53-1.74-1.54-1.78-1,2.34-7.42,10.14-1.29c0,0,3.48,5.81-.29,9.54a15.64,15.64,0,0,1-9,4.38s-7.5-24.32-57.5-27.22C64.21,91.58,56.11,117,56.11,117Z"/><path class="cls-12" d="M78.49,47.47A13.85,13.85,0,1,1,65.71,32.82,13.79,13.79,0,0,1,78.49,47.47Z"/><path class="cls-12" d="M52,64.12A12.67,12.67,0,1,1,40.32,50.71,12.62,12.62,0,0,1,52,64.12Z"/><path class="cls-12" d="M38.88,90.8a13.22,13.22,0,1,1-12.19-14A13.15,13.15,0,0,1,38.88,90.8Z"/><path class="cls-12" d="M26,133.83a12.74,12.74,0,0,1-13.71,11.65,12.63,12.63,0,1,1,1.91-25.18A12.68,12.68,0,0,1,26,133.83Z"/><path class="cls-12" d="M60,79.32a7.3,7.3,0,1,1-6.73-7.71A7.26,7.26,0,0,1,60,79.32Z"/><path class="cls-12" d="M80.41,65.45a7.15,7.15,0,1,1-6.6-7.56A7.13,7.13,0,0,1,80.41,65.45Z"/><path class="cls-12" d="M51.55,99.13A6.77,6.77,0,1,1,45.3,92,6.74,6.74,0,0,1,51.55,99.13Z"/><polyline class="cls-13" points="55.96 85.22 61.3 91.34 64.27 89.16 58.75 82.83"/><polygon class="cls-13" points="74.21 72.07 78.88 80.53 82.24 78.89 78.06 70.17 74.21 72.07"/><path class="cls-12" d="M47.28,126.67A13.63,13.63,0,1,1,34.7,112.25,13.57,13.57,0,0,1,47.28,126.67Z"/><path class="cls-13" d="M39.15,147.46l-1.25-2.2-13.43-1.78a5.2,5.2,0,0,0-10.07-1.33l-3-.4-.28,3.64,3.4.47A5.19,5.19,0,0,0,18.9,149a5.26,5.26,0,0,0,4.48-1.94l5.21.72-5.52,3.12a5.51,5.51,0,1,0,1.37,4c0-.15,0-.3,0-.46Z"/><path class="cls-12" d="M148.89,47.47a13.85,13.85,0,1,0,12.78-14.65A13.8,13.8,0,0,0,148.89,47.47Z"/><path class="cls-12" d="M175.37,64.12a12.67,12.67,0,1,0,11.69-13.41A12.62,12.62,0,0,0,175.37,64.12Z"/><path class="cls-12" d="M188.5,90.8a13.22,13.22,0,1,0,12.2-14A13.15,13.15,0,0,0,188.5,90.8Z"/><path class="cls-12" d="M201.34,133.83a12.79,12.79,0,1,0,11.8-13.53A12.74,12.74,0,0,0,201.34,133.83Z"/><path class="cls-12" d="M147,65.45a7.15,7.15,0,1,0,6.6-7.56A7.13,7.13,0,0,0,147,65.45Z"/><path class="cls-12" d="M175.83,99.13A6.77,6.77,0,1,0,182.08,92,6.74,6.74,0,0,0,175.83,99.13Z"/><path class="cls-12" d="M168,80a6.77,6.77,0,1,0,6.25-7.17A6.75,6.75,0,0,0,168,80Z"/><polyline class="cls-13" points="171.41 85.22 166.08 91.34 163.11 89.16 168.63 82.83"/><polygon class="cls-13" points="153.17 72.07 148.5 80.53 145.14 78.89 149.33 70.17 153.17 72.07"/><path class="cls-12" d="M180.1,126.67a13.63,13.63,0,1,0,12.58-14.42A13.57,13.57,0,0,0,180.1,126.67Z"/><path class="cls-13" d="M188.23,147.46l1.26-2.2,13.42-1.78A5.2,5.2,0,0,1,213,142.15l3-.4.27,3.64-3.4.47a5.19,5.19,0,0,1-4.4,3.16,5.26,5.26,0,0,1-4.48-1.94l-5.2.72,5.51,3.12a5.51,5.51,0,1,1-1.37,4c0-.15,0-.3,0-.46Z"/><path class="cls-14" d="M70.55,94.11A4.87,4.87,0,1,1,66.05,89,4.84,4.84,0,0,1,70.55,94.11Z"/><path class="cls-14" d="M87.76,85a5.4,5.4,0,1,1-5-5.71A5.37,5.37,0,0,1,87.76,85Z"/><path class="cls-14" d="M102.9,80.72a5.41,5.41,0,1,1-5-5.72A5.38,5.38,0,0,1,102.9,80.72Z"/><path class="cls-14" d="M68.16,94.22a2.27,2.27,0,1,1-2.1-2.41A2.26,2.26,0,0,1,68.16,94.22Z"/><path class="cls-14" d="M84.87,84.35a2.32,2.32,0,0,1-2.49,2.11A2.29,2.29,0,0,1,80.24,84a2.32,2.32,0,0,1,4.63.35Z"/><path class="cls-14" d="M100.28,80.26A2.44,2.44,0,1,1,98,77.67,2.43,2.43,0,0,1,100.28,80.26Z"/><path class="cls-14" d="M156.84,94.11A4.86,4.86,0,1,0,161.33,89,4.84,4.84,0,0,0,156.84,94.11Z"/><path class="cls-14" d="M139.62,85a5.4,5.4,0,1,0,5-5.71A5.37,5.37,0,0,0,139.62,85Z"/><path class="cls-14" d="M124.48,80.72a5.41,5.41,0,1,0,5-5.72A5.38,5.38,0,0,0,124.48,80.72Z"/><path class="cls-14" d="M159.22,94.22a2.27,2.27,0,1,0,2.1-2.41A2.26,2.26,0,0,0,159.22,94.22Z"/><path class="cls-14" d="M142.51,84.35A2.32,2.32,0,0,0,145,86.46,2.29,2.29,0,0,0,147.14,84a2.32,2.32,0,0,0-4.63.35Z"/><path class="cls-14" d="M127.1,80.26a2.44,2.44,0,1,0,2.25-2.59A2.43,2.43,0,0,0,127.1,80.26Z"/><ellipse class="cls-12" cx="113.02" cy="27.53" rx="27.38" ry="27.03"/><path class="cls-15" d="M112.46,26s-4.79,1.17-4.14,5.72-2.61,6.28-3.68-2.24c0,0-3.43,2-2,10,.07,1-1.7-5.75-9.14-3.49,0,0,4.8,2.46,4.53,4.13s-1.56,3.82-5.66-.42c-4.82-2.18-8.37,5.14-2.63,6.48s3.55,4,1.11,4.18-3.32.38-4.56-1,1.25,5.23,7.36,5.43c.7,2.06-5.09,1.35-7.36,6.81,0,0,4.82-3.44,6.32-.66S86.8,63.77,87,70.12c.72,1.74,3.61,3.5,9.84-1.81,2.56-2.06,1.13,7.4-2,5.9,0,0,3.6,3.22,7.72-2.25,1.58-2.13-1.78,8.45,2.59,9.06,0,0-.13-7.73,2.35-6.58,4.36.74-1.42,9.32,6.09,9.87,4.65-1.86,2.68-7.12,2.8-8.79s4.44-.19,4,5.12A7.27,7.27,0,0,0,122,71.89c.85-.5,4.36,3.89,9.75,3,0,0-6.88-5.2-2.35-6.69,0,0,6.15,6,8.81,1.59s-4.23-6.22-5.32-6.87.42-5,5.69-1.78c0,0,.61-4.36-7.37-5.51-.2-1.19,6.86-.29,7.7-6.42,0,0-5.7,2.58-6.6.64-.51-1.35,0-3.47,3.38-3.92s3.09-6.25,1.16-6.44c0,0-3.54-2.23-7.56,2.59-1.52-.07-4-3,1.06-5.83s-5.23-.72-8.43,3c-.46,1.38,1.5-7.48-1.85-9.7-1.28.66.71,8.26-3.79,6.15C114.31,35.42,118.35,27.83,112.46,26Z"/><path class="cls-16" d="M110.77,45.28l-10.13.13a15.63,15.63,0,0,0-2.23,3.33l12.41-.16Z"/><path class="cls-16" d="M113.25,48.54l13-.17a15.32,15.32,0,0,0-2.32-3.26l-10.7.14Z"/><path class="cls-16" d="M110.74,42.9l0-2.7A15.62,15.62,0,0,0,103.32,43Z"/><path class="cls-16" d="M127.26,50.81l-14,.19.06,4.41-2.43,0L110.85,51l-13.41.18a15,15,0,0,0-.57,3.1q0,.67,0,1.32L128,55.22A15.37,15.37,0,0,0,127.26,50.81Z"/><path class="cls-16" d="M97.06,58a15.6,15.6,0,0,0,30.77-.41Z"/><path class="cls-16" d="M113.17,42.86l8-.1a15.67,15.67,0,0,0-7.58-2.62h-.44Z"/><polygon class="cls-15" points="110.74 63 110.71 60.73 110.71 60.73 110.71 60.67 108.36 60.7 108.36 60.76 102.38 60.84 102.41 63.11 108.39 63.03 108.46 68.03 110.81 68 110.74 63 110.74 63"/><polygon class="cls-15" points="122.3 62.85 122.27 60.58 116.16 60.66 116.16 60.59 113.81 60.63 113.91 67.95 116.26 67.92 116.19 62.93 122.3 62.85"/><ellipse class="cls-12" cx="19.48" cy="143.66" rx="5.25" ry="5.18"/><ellipse class="cls-12" cx="18.55" cy="154.47" rx="5.61" ry="5.53"/><ellipse class="cls-12" cx="208.08" cy="143.83" rx="5.25" ry="5.18"/><ellipse class="cls-12" cx="209.01" cy="154.64" rx="5.61" ry="5.53"/></g></g></g></g></svg>