<svg xmlns="http://www.w3.org/2000/svg" xmlns:xlink="http://www.w3.org/1999/xlink" viewBox="0 0 121.84 60.98"><defs><style>.cls-1{fill:url(#未命名的渐变_31);}.cls-2{fill:url(#未命名的渐变_31-2);}.cls-3{fill:#252527;}.cls-4{fill:url(#未命名的渐变_67);}</style><linearGradient id="未命名的渐变_31" x1="30.55" y1="7.02" x2="20.24" y2="60.04" gradientUnits="userSpaceOnUse"><stop offset="0.35" stop-color="#e5afb0"/><stop offset="0.42" stop-color="#e5b1b2" stop-opacity="0.98"/><stop offset="0.51" stop-color="#e7b6b6" stop-opacity="0.91"/><stop offset="0.6" stop-color="#e9bebe" stop-opacity="0.79"/><stop offset="0.71" stop-color="#ebc9c9" stop-opacity="0.63"/><stop offset="0.81" stop-color="#efd7d8" stop-opacity="0.43"/><stop offset="0.93" stop-color="#f3e8e9" stop-opacity="0.18"/><stop offset="1" stop-color="#f6f5f5" stop-opacity="0"/><stop offset="1" stop-color="#f7f7f7"/></linearGradient><linearGradient id="未命名的渐变_31-2" x1="99.16" y1="-2.56" x2="86.44" y2="62.88" xlink:href="#未命名的渐变_31"/><radialGradient id="未命名的渐变_67" cx="61.31" cy="11.17" fx="52.660434006458146" r="10.14" gradientTransform="translate(43.67 72.72) rotate(-90.73) scale(1 1.65)" gradientUnits="userSpaceOnUse"><stop offset="0" stop-color="#e5afb0"/><stop offset="0.3" stop-color="#e5b0b1" stop-opacity="0.99"/><stop offset="0.41" stop-color="#e6b2b3" stop-opacity="0.96"/><stop offset="0.49" stop-color="#e7b5b6" stop-opacity="0.91"/><stop offset="0.56" stop-color="#e8bbbc" stop-opacity="0.84"/><stop offset="0.61" stop-color="#eac2c2" stop-opacity="0.74"/><stop offset="0.66" stop-color="#eccacb" stop-opacity="0.62"/><stop offset="0.7" stop-color="#eed4d5" stop-opacity="0.48"/><stop offset="0.74" stop-color="#f1e0e1" stop-opacity="0.32"/><stop offset="0.78" stop-color="#f5eded" stop-opacity="0.14"/><stop offset="0.8" stop-color="#f7f7f7" stop-opacity="0"/><stop offset="1" stop-color="#e0acad" stop-opacity="0"/></radialGradient></defs><title>资源 61</title><g id="图层_2" data-name="图层 2"><g id="嘴鼻_眉眼" data-name="嘴鼻、眉眼"><path class="cls-1" d="M1.05.06s-4,18.13,3.52,49.13c0,0,27.12,21.56,45.16,6.38,4.69-4,5.06-17.12,6.1-28.63ZM5.59,43.7a1.64,1.64,0,1,1,1.64-1.64A1.64,1.64,0,0,1,5.59,43.7Zm21.26-8.88S42.07,29.3,48,42.3C48,42.3,34.34,45.59,26.85,34.82Z"/><path class="cls-2" d="M120.14,0,65.37,26.88c1,11.51,1.41,24.69,6.09,28.63,18.05,15.18,45.16-6.38,45.16-6.38C125.73,16.76,120.14,0,120.14,0Zm-47,42.3c5.92-13,21.14-7.48,21.14-7.48C86.78,45.59,73.13,42.3,73.13,42.3Zm42.54,1.4a1.64,1.64,0,1,1,1.64-1.64A1.63,1.63,0,0,1,115.67,43.7Z"/><path class="cls-3" d="M15.63,10A112.65,112.65,0,0,1,33,12.87c4.28,1.6,21.61,12.88,20.65,14.43C51.42,30.28,43.34,27.13,15.63,10Z"/><path class="cls-3" d="M105.53,10A112.65,112.65,0,0,0,88.2,12.87c-4.28,1.6-21.61,12.88-20.65,14.43C69.74,30.28,77.82,27.13,105.53,10Z"/><path class="cls-3" d="M33.75,30.68c-10.91.06-11.17-.92-17.54-5.39,0,0,7.75,22.13,33.43,17.87C49.64,43.16,48.33,31.73,33.75,30.68Zm-6.9,4.14S42.07,29.3,48,42.3C48,42.3,34.34,45.59,26.85,34.82Z"/><path class="cls-3" d="M87.46,30.68c-14.59,1.05-15.9,12.48-15.9,12.48C97.25,47.42,105,25.29,105,25.29,98.62,29.76,98.36,30.74,87.46,30.68ZM73.13,42.3c5.92-13,21.14-7.48,21.14-7.48C86.78,45.59,73.13,42.3,73.13,42.3Z"/><path class="cls-4" d="M48.42,8.72l3.42,8.75s9.55-4.55,19.18,0l3.53-8.75A26.24,26.24,0,0,0,48.42,8.72Z"/></g></g></svg>