<svg xmlns="http://www.w3.org/2000/svg" xmlns:xlink="http://www.w3.org/1999/xlink" viewBox="0 0 120.23 74.14"><defs><style>.cls-1{fill:url(#未命名的渐变_5);}.cls-2{fill:url(#未命名的渐变_5-2);}.cls-3{fill:#252527;}</style><linearGradient id="未命名的渐变_5" x1="97.92" y1="-1.85" x2="82.79" y2="75.99" gradientUnits="userSpaceOnUse"><stop offset="0.39" stop-color="#e5afb0"/><stop offset="0.47" stop-color="#e5b0b1" stop-opacity="0.98"/><stop offset="0.55" stop-color="#e6b4b5" stop-opacity="0.93"/><stop offset="0.63" stop-color="#e8babb" stop-opacity="0.84"/><stop offset="0.71" stop-color="#eac3c4" stop-opacity="0.71"/><stop offset="0.8" stop-color="#edcfcf" stop-opacity="0.55"/><stop offset="0.88" stop-color="#f0dddd" stop-opacity="0.34"/><stop offset="0.96" stop-color="#f4eded" stop-opacity="0.11"/><stop offset="1" stop-color="#f6f5f5" stop-opacity="0"/><stop offset="1" stop-color="#f7f7f7"/></linearGradient><linearGradient id="未命名的渐变_5-2" x1="32.63" y1="7.99" x2="19.89" y2="73.51" xlink:href="#未命名的渐变_5"/></defs><title>资源 62</title><g id="图层_2" data-name="图层 2"><g id="嘴鼻_眉眼" data-name="嘴鼻、眉眼"><path class="cls-1" d="M116.71,0a3.41,3.41,0,0,0-1.49.47L64.7,30.1a5.05,5.05,0,0,0-2.22,4.7c1,13.54,1.63,28,6.22,32.56,15.41,15.34,37.07.72,44.86-5.49A112,112,0,0,1,115.75,50C121.78,30,121.33,13.28,116.71,0ZM77.31,48.5c7.37-16.19,26.31-9.32,26.31-9.32C94.3,52.59,77.31,48.5,77.31,48.5Zm35.8,2.23a1.65,1.65,0,1,1,1.64-1.65A1.64,1.64,0,0,1,113.11,50.73Z"/><path class="cls-2" d="M53.81,30.1,4.06.92C-.86,14.31-1.71,30.81,3.75,50,4.8,54.59,5.5,58.8,6,62.73c8.57,6.57,29,19.3,43.77,4.63,4.59-4.56,5.27-19,6.22-32.56A5.05,5.05,0,0,0,53.81,30.1ZM5.7,50.73a1.65,1.65,0,1,1,1.64-1.65A1.65,1.65,0,0,1,5.7,50.73ZM16.11,39.18s18.94-6.87,26.31,9.32C42.42,48.5,25.43,52.59,16.11,39.18Z"/><path class="cls-3" d="M117.08,24.16c-2.28,3.68-7,7.36-20.14,10C76.26,36.6,76.09,49.56,76.09,49.56,107.62,54.12,119.36,20.48,117.08,24.16ZM77.31,48.5c7.37-16.19,26.31-9.32,26.31-9.32C94.3,52.59,77.31,48.5,77.31,48.5Z"/><path class="cls-3" d="M22.78,34.14c-13.14-2.62-17.87-6.3-20.15-10s9.46,30,41,25.4C43.63,49.56,43.45,36.6,22.78,34.14Zm-6.67,5s18.94-6.87,26.31,9.32C42.42,48.5,25.43,52.59,16.11,39.18Z"/><path class="cls-3" d="M7,10.14S39.77,25,52.74,35.9C55.71,35.9,52,15.05,7,10.14Z"/><path class="cls-3" d="M112,10.14S79.26,25,66.3,35.9C63.32,35.9,67,15.05,112,10.14Z"/></g></g></svg>