<svg xmlns="http://www.w3.org/2000/svg" viewBox="0 0 113.37 71.82"><defs><style>.cls-1{fill:#e5afb0;}.cls-2{fill:#fff;}.cls-3{fill:#151313;}.cls-4{fill:none;stroke:#231815;stroke-miterlimit:10;}</style></defs><title>资源 63</title><g id="图层_2" data-name="图层 2"><g id="嘴鼻_眉眼" data-name="嘴鼻、眉眼"><path class="cls-1" d="M56.6,6.57C52.36,6.22,35,8.9,30.07,22S14.25,35.46,7.77,46.42A23.25,23.25,0,0,0,6.15,67.35s14.52,14.18,32.76-8C51.12,44.55,51.49,44.55,56.6,44.18"/><path class="cls-1" d="M56.6,6.57C60.83,6.22,78.19,8.9,83.13,22S99,35.46,105.43,46.42a23.25,23.25,0,0,1,1.62,20.93s-14.52,14.18-32.76-8C62.08,44.55,61.71,44.55,56.6,44.18"/><path class="cls-2" d="M56.6,9.49c-3.86-.32-19.66,2.12-24.16,14S18,35.79,12.14,45.77a21.19,21.19,0,0,0-1.48,19.06s13.22,12.91,29.83-7.26C51.61,44.07,52,44.07,56.6,43.73"/><path class="cls-2" d="M56.6,9.49c3.86-.32,19.66,2.12,24.16,14s14.4,12.28,20.3,22.26a21.19,21.19,0,0,1,1.48,19.06S89.32,77.74,72.71,57.57C61.59,44.07,61.25,44.07,56.6,43.73"/><path class="cls-3" d="M30.15,24.08c-1.2.43-11.73,6.36-16.94,7.11,2.88,1.92,6.8,3.1,12.85,9.83,0,0,6.32-5.74,10.53-7.11C36,31.42,31.34,23.66,30.15,24.08Zm-14.06,7S28,23.81,35.27,33.79C35.27,33.79,24.29,38.93,16.09,31.11Z"/><path class="cls-3" d="M79.67,23.53c-1.16-.41-5.59,7-6.38,9.62,7.26-9.85,19.11-2.59,19.11-2.59-7.93,7.57-18.48,3-19.14,2.69,0,0,0,.08,0,.11,4.22,1.36,10.53,7.11,10.53,7.11,6-6.73,10-7.91,12.86-9.83C91.39,29.88,80.86,24,79.67,23.53Z"/><path class="cls-3" d="M0,13.79s10.27,12.55,23.71-1.37c3.17-3.28,9-4.79,15.88,1.14C42,15.6,47.19,0,27.92,0,21.18,0,16.11,4.51,17.69,9.49S14.18,22.41,0,13.79Z"/><path class="cls-3" d="M113.37,13.79S103.1,26.34,89.66,12.42c-3.17-3.28-9-4.79-15.87,1.14C71.4,15.6,66.19,0,85.45,0c6.74,0,11.81,4.51,10.23,9.49S99.19,22.41,113.37,13.79Z"/><path class="cls-4" d="M40.27,57.64s-3.33,10.14,4.46,10.14c1.66,0,1.59-1.82,0-3.86s4.6-3.86,5.36,1.44,5.68,4.91,6.51,5"/><path class="cls-4" d="M72.93,57.64s3.33,10.14-4.46,10.14c-1.66,0-1.59-1.82,0-3.86s-4.6-3.86-5.36,1.44-5.68,4.91-6.51,5"/></g></g></svg>