<svg xmlns="http://www.w3.org/2000/svg" viewBox="0 0 118.22 82.82"><defs><style>.cls-1,.cls-3,.cls-5{fill:#fff;}.cls-1,.cls-4,.cls-5{stroke:#231815;}.cls-1,.cls-3,.cls-4,.cls-5{stroke-miterlimit:10;}.cls-2{fill:#231815;}.cls-3{stroke:#fff;}.cls-4{fill:#e8d52f;}.cls-4,.cls-5{stroke-width:0.25px;}</style></defs><title>资源 66</title><g id="图层_2" data-name="图层 2"><g id="嘴鼻_眉眼" data-name="嘴鼻、眉眼"><path class="cls-1" d="M18.7,1.12S2.17,19.32.5,36.91c0,1.68,3.41,12.43,6.14,23.35s8.64,19.56,25.25,21.6,24.56-3,23.2-12S50.78,42.15,50.31,40.7,47.14,27.07,38,22.28C31.1,18.64,20.74,15.45,18.7,1.12Z"/><path class="cls-2" d="M50.76,61.51S53.42,71.25,49,75.27s-21.76,2.35-29.57-3.72S12.93,58.36,3.68,33c0,0,24.82,20.19,30.63,23.28C39.91,59.29,47.66,65,50.76,61.51Z"/><path class="cls-3" d="M29.57,63.71s14-5.52,19.8,6.38C49.37,70.09,36.8,73.5,29.57,63.71Z"/><path class="cls-2" d="M48.6,53.21s-6-8.76-14.32-12.17S19.38,14,19.38,14s8.07,10,16.71,14S48.6,53.21,48.6,53.21Z"/><path class="cls-1" d="M99.53,1.12s16.53,18.2,18.19,35.79c0,1.68-3.41,12.43-6.14,23.35s-8.64,19.56-25.24,21.6-24.57-3-23.2-12,4.3-27.66,4.77-29.11S71.08,27.07,80.2,22.28C87.12,18.64,97.48,15.45,99.53,1.12Z"/><path class="cls-2" d="M67.46,61.51s-2.65,9.74,1.82,13.76S91,77.62,98.85,71.55,105.29,58.36,114.54,33c0,0-24.82,20.19-30.63,23.28C78.32,59.29,70.57,65,67.46,61.51Z"/><path class="cls-3" d="M88.66,63.71s-14-5.52-19.81,6.38C68.85,70.09,81.43,73.5,88.66,63.71Z"/><path class="cls-2" d="M69.62,53.21S75.65,44.45,84,41,98.85,14,98.85,14,90.77,24,82.13,28,69.62,53.21,69.62,53.21Z"/><path class="cls-4" d="M58.52,1.12c-.4-.08-1.44,3.7-1.17,7.12s-1,.27-1,.27S54.2,5,51.27,7.34s.27,8.2,1.49,10.61A31.27,31.27,0,0,1,55,33.64c-.36,5.4,2.34,3.87,2.61,2.25a43.41,43.41,0,0,1,1-4.55"/><path class="cls-4" d="M58.52,1.12C58.93,1,60,4.82,59.69,8.24s1,.27,1,.27,2.11-3.51,5-1.17S65.5,15.54,64.29,18a31.13,31.13,0,0,0-2.21,15.69c.36,5.4-2.34,3.87-2.61,2.25a43.41,43.41,0,0,0-.95-4.55"/><path class="cls-5" d="M58.52,18.6c-1,.09-1-3.83-1-3.83s-1.17-5.63-3.64-6-2.44,3.11,0,7.21S56.18,31,56,32.87s1.31,2,1.8-2.11.32-4.15.77-4.1"/><path class="cls-5" d="M58.52,26.66c.45-.05.27,0,.77,4.1s2,4,1.8,2.11S60.77,20,63.2,15.94s2.48-7.61,0-7.21-3.64,6-3.64,6-.05,3.92-1,3.83"/></g></g></svg>