<svg xmlns="http://www.w3.org/2000/svg" viewBox="0 0 117.49 88.84"><defs><style>.cls-1{fill:#fff;stroke:#151313;stroke-miterlimit:10;}.cls-2{fill:#db6059;}.cls-3{fill:#2c282a;}</style></defs><title>资源 67</title><g id="图层_2" data-name="图层 2"><g id="嘴鼻_眉眼" data-name="嘴鼻、眉眼"><path class="cls-1" d="M50.44,69c-1.58-7-.39-8.67.13-14.58S28,.75,28,.75,3.53,17.92.51,38.16C2.88,44.9,4.59,49.46,3.4,67.59,4.72,78.76,11,84.41,12.86,84.67s16.16-2.82,22.21.79,12.09,4.07,14.84,0S52,76,50.44,69ZM25.11,70.19s15.22-5.52,21.14,7.49C46.25,77.68,32.6,81,25.11,70.19Z"/><path class="cls-1" d="M117,38.16C112.5,12.38,89.51.75,89.51.75s-23.12,47.79-22.6,53.7S68.62,62.07,67,69s-2.23,12.35.53,16.43,8.8,3.6,14.85,0,20.36-.53,22.2-.79,8.15-5.91,9.46-17.08C112.9,49.46,114.61,44.9,117,38.16ZM71.23,77.68c5.92-13,21.15-7.49,21.15-7.49C84.89,81,71.23,77.68,71.23,77.68Z"/><path class="cls-2" d="M54,57.88s2.74-7.45-1.64-18.79c-3.44-7.72.9-12.78,6.29-12.78,2.67,0,10.26,2.33,6.63,12.53-.43,1.89-4.62,7.75-1.95,19-1.31-1.56-2.4-3.14-2.13-11.39,0-1.9-.84-3.69-2.5-3.69S55.84,44.37,55.91,47C56.07,48.06,56.24,55.88,54,57.88Z"/><path class="cls-3" d="M27.84,7.68S43,50.11,14.7,22.26c5.91,7.1,21.55,36.39,28.78,35S31.52,14.6,27.84,7.68Z"/><path class="cls-3" d="M89.64,7.68S74.53,50.11,102.78,22.26c-5.91,7.1-21.55,36.39-28.77,35S86,14.6,89.64,7.68Z"/><path class="cls-3" d="M49.26,74.68c-.21-3.25-2.93-7.32-1.8-11.07a.19.19,0,0,0-.31-.19c-1.58,1.54-5.92,5.4-17.25.88C16.8,59.08,27.32,49.08,5.67,37.42A.46.46,0,0,0,5,38a24.74,24.74,0,0,1,1.4,17.09C3.53,65.69,10.3,77.85,13.6,79.78l.1,0c4.41,0,19.67-1.68,27.79,4.85l0,0C44.16,86.1,49.65,83.86,49.26,74.68ZM25.11,70.19s15.22-5.52,21.14,7.49C46.25,77.68,32.6,81,25.11,70.19Z"/><path class="cls-3" d="M111.82,37.42C90.17,49.08,100.69,59.08,87.59,64.3c-11.34,4.52-15.68.66-17.26-.88a.19.19,0,0,0-.31.19c1.14,3.75-1.59,7.82-1.79,11.07-.4,9.18,5.1,11.42,7.73,10l0,0c8.12-6.53,23.39-4.87,27.79-4.85a.17.17,0,0,0,.1,0c3.3-1.93,10.07-14.09,7.18-24.67A24.68,24.68,0,0,1,112.46,38,.46.46,0,0,0,111.82,37.42ZM71.23,77.68c5.92-13,21.15-7.49,21.15-7.49C84.89,81,71.23,77.68,71.23,77.68Z"/></g></g></svg>