<svg xmlns="http://www.w3.org/2000/svg" viewBox="0 0 111.19 103.64"><defs><style>.cls-1{fill:#2c282a;}.cls-2,.cls-3{fill:#fff;stroke-miterlimit:10;}.cls-2{stroke:#151313;}.cls-3{stroke:#141212;}.cls-4{fill:#e9cc2c;}</style></defs><title>资源 68</title><g id="图层_2" data-name="图层 2"><g id="嘴鼻_眉眼" data-name="嘴鼻、眉眼"><path class="cls-1" d="M26.45,0S44.18,41,46,52.35s6.35,27.88-3.85,31.51C31.49,86.35,24.24,58.47,12.23,66c-4.46,5.44,2.87,7.94-4.46,34.68,0,0-2.34-36.14-6.42-46.52C-2,38.53,8.5,6.8,26.45,0Z"/><path class="cls-2" d="M27.36,66s14-5.52,19.8,6.38C47.16,72.39,34.59,75.8,27.36,66Z"/><path class="cls-3" d="M9.66,92.81C11,85.8,7.47,65.27,5.2,61.19,3.9,58.68-.41,46,6.61,42.81c7.5-3,15.06,2.18,18.57,9.87s9.37,10.37,13.26,10.1c8.76-.6,7.23-10.36,7.23-10.36-.6-3.89-5.12-16.58-5.12-16.58,1.16,3.14,1.82,16.51-.37,17.42-7.39,3-14.81-17.9-19.12-25.16s-14.88-5-14.88-5-8.3,18.53-4.83,31c2.35,8.5,4.24,18.62,6.42,46.52C7.77,100.63,9.24,95,9.66,92.81Z"/><path class="cls-1" d="M84.74,0S67,41,65.2,52.35s-6.35,27.88,3.85,31.51C79.7,86.35,87,58.47,99,66c4.45,5.44-2.88,7.94,4.45,34.68,0,0,2.35-36.14,6.43-46.52C113.25,38.53,102.7,6.8,84.74,0Z"/><path class="cls-2" d="M83.84,66s-14-5.52-19.81,6.38C64,72.39,76.6,75.8,83.84,66Z"/><path class="cls-3" d="M101.54,92.81c-1.36-7,2.19-27.54,4.46-31.62,1.29-2.51,5.61-15.18-1.42-18.38-7.5-3-15,2.18-18.56,9.87s-9.38,10.37-13.27,10.1c-8.76-.6-7.22-10.36-7.22-10.36.6-3.89,5.12-16.58,5.12-16.58C69.48,39,68.83,52.35,71,53.26c7.4,3,14.81-17.9,19.12-25.16s14.88-5,14.88-5,8.3,18.53,4.84,31c-2.36,8.5-4.24,18.62-6.43,46.52C103.42,100.63,102,95,101.54,92.81Z"/><path class="cls-4" d="M55.44,28.88H50.38c-1.78.31,0,3.38.46,5.12s1.45,1.91,1.82,1.75.83-2.08-.33-2.62-.91-2.35-.91-2.35h3.47V41.22a10.55,10.55,0,0,1-5.63-4.78C48,34,47.23,27,47.23,27h7V25.12s-6.39.08-7.34,0-1-1.66-1-1.66h8.31V21.63H45.93c-.72-11.37,6.34-12.7,6.34-12.7v2.91S47.68,13.5,48.6,18c.29,1.12.16,1.16,2.9,1.16,1.9,0,2.53,0,2.53,0V17.3l-3.43,0s-.25-3,3.9-3V8.64h.94"/><path class="cls-4" d="M55.44,28.88h5.07c1.78.31,0,3.38-.46,5.12s-1.45,1.91-1.83,1.75-.83-2.08.34-2.62.91-2.35.91-2.35H56V41.22a10.55,10.55,0,0,0,5.63-4.78c1.28-2.47,2-9.41,2-9.41h-7V25.12s6.39.08,7.34,0,1-1.66,1-1.66H56.65V21.63H65c.72-11.37-6.35-12.7-6.35-12.7v2.91S63.2,13.5,62.29,18c-.29,1.12-.16,1.16-2.9,1.16-1.91,0-2.54,0-2.54,0V17.3l3.43,0s.26-3-3.89-3V8.64h-1"/></g></g></svg>