<svg xmlns="http://www.w3.org/2000/svg" viewBox="0 0 84.56 71.64"><defs><style>.cls-1{fill:#e5afb0;}.cls-2{fill:#2c282a;}.cls-3{fill:#fff;}.cls-4{fill:#151313;}</style></defs><title>资源 64</title><g id="图层_2" data-name="图层 2"><g id="嘴鼻_眉眼" data-name="嘴鼻、眉眼"><path class="cls-1" d="M64.37,8.64C47,4.45,38.1,4.45,20.79,8.72.57,12,1.93,47.42,1.93,47.42-1.18,87.08,27,66.08,27,66.08l2.89,1c2.29-10.84,7.81-.13,9.08.55s2.2.91,5.12.32,4.08-6.32,6.22-6c3.6.88,4.08,5,4.08,5l2.88-1.16C72.35,70.35,82,78.33,82,48.2,82.87,13.58,64.37,8.64,64.37,8.64ZM4.89,32.73s13.81-8.45,22.22,3.1C27.11,35.83,14.39,41.79,4.89,32.73Zm51,3.1c8.41-11.55,22.22-3.1,22.22-3.1C68.63,41.79,55.91,35.83,55.91,35.83Z"/><path class="cls-2" d="M0,19.71s4-4.07,4.07-9.33c1-4.53,5.52-6.83,11.31-6.78C23,3.81,26.81.29,28.64,0A14,14,0,0,1,16.69,7.69C6.5,7.69,5.32,19.91,0,19.71Z"/><path class="cls-2" d="M84.56,19.71s-4-4.07-4.08-9.33c-1-4.53-5.51-6.83-11.3-6.78C61.56,3.81,57.74.29,55.91,0a14,14,0,0,0,12,7.69C78.05,7.69,79.24,19.91,84.56,19.71Z"/><path class="cls-3" d="M76.6,34c-9.28,7.13-20.69,1.79-20.69,1.79,6.36-8.74,15.8-6,20-4.19C71.57,17.37,62.27,14.88,62.27,14.88,46.66,11.1,38.61,11.1,23,15c-8.25,1.34-12.5,8.62-14.7,16.18,4.64-1.73,13-3.27,18.8,4.69,0,0-10.62,5-19.7-1.08A69.45,69.45,0,0,0,6,49.82C3.22,85.55,28.64,66.64,28.64,66.64l2.61.87c2.06-9.77,7-.12,8.17.5s2,.81,4.62.29,3.68-5.69,5.6-5.43c3.24.79,3.68,4.47,3.68,4.47l2.59-1.06c13.55,4.19,22.25,11.39,22.22-15.76A62.73,62.73,0,0,0,76.6,34Z"/><path class="cls-4" d="M21.18,24.59C19.8,25.08,7.6,32,1.55,32.82c3.34,2.23,7.89,3.6,14.9,11.39,0,0,7.31-6.66,12.19-8.23C27.92,33.09,22.55,24.1,21.18,24.59ZM4.89,32.73s13.81-8.45,22.22,3.1C27.11,35.83,14.39,41.79,4.89,32.73Z"/><path class="cls-4" d="M63.38,24.59C62,24.11,56.91,32.64,56,35.74c8.41-11.41,22.14-3,22.14-3C68.94,41.5,56.72,36.2,56,35.85l0,.13c4.89,1.57,12.2,8.23,12.2,8.23,7-7.79,11.55-9.16,14.89-11.39C77,32,64.76,25.08,63.38,24.59Z"/></g></g></svg>