<svg xmlns="http://www.w3.org/2000/svg" viewBox="0 0 115.99 75.66"><defs><style>.cls-1,.cls-3{fill:#fff;}.cls-1,.cls-4{stroke:#231815;}.cls-1,.cls-3,.cls-4{stroke-miterlimit:10;}.cls-2{fill:#231815;}.cls-3{stroke:#151313;}.cls-4{fill:none;}.cls-5{fill:#db6059;}</style></defs><title>资源 65</title><g id="图层_2" data-name="图层 2"><g id="嘴鼻_眉眼" data-name="嘴鼻、眉眼"><path class="cls-1" d="M25.78.67S3.63,8.15.54,38.32c0,0,6.93,2.7,4.61,13.14S7.21,69.77,19.46,70.41c6.32-1.16,5.8-4.38,15.6,2.19,7.22,4.77,16.39,2.33,16.39-2.83,0,0-2.47-25.45-5.05-32S43.18,31.23,40,29,27.32,16.4,25.78.67Z"/><path class="cls-2" d="M21.91,2.51S19.59,13.8,35.32,29.67c9.92,10.19,10.57,10.84,9.28,16.51-1.55,3.74-8.38.77-9.93-4S22.09,24.31,4.14,23.32C4.14,23.32,7.48,10.54,21.91,2.51Z"/><path class="cls-2" d="M3.35,36.64A27.5,27.5,0,0,1,26,49.27c2.48,3.74,16.66,16.5,21,3,0,0,4.29,16.35,0,18.56,0,0-3.74,3.74-10.32-1.16S22.47,64.73,18,67.06c-1.29.78-14.44-2.45-10.31-16.63C8.89,46.69,10.44,43.34,3.35,36.64Z"/><path class="cls-3" d="M28.44,60.61s13.61-5.38,19.3,6.22C47.74,66.83,35.48,70.16,28.44,60.61Z"/><path class="cls-4" d="M90.22.67s22.14,7.48,25.24,37.65c0,0-6.94,2.7-4.62,13.14s-2.06,18.31-14.31,18.95c-6.31-1.16-5.8-4.38-15.6,2.19-7.21,4.77-16.39,2.33-16.39-2.83,0,0,2.47-25.45,5-32S72.81,31.23,76,29,88.67,16.4,90.22.67Z"/><path class="cls-2" d="M94.08,2.51S96.4,13.8,80.68,29.67C70.75,39.86,70.11,40.51,71.4,46.18c1.54,3.74,8.37.77,9.92-4s12.59-17.87,30.53-18.86C111.85,23.32,108.51,10.54,94.08,2.51Z"/><path class="cls-2" d="M112.65,36.64A27.49,27.49,0,0,0,90,49.27c-2.49,3.74-16.67,16.5-21,3,0,0-4.29,16.35,0,18.56,0,0,3.73,3.74,10.31-1.16S93.52,64.73,98,67.06c1.29.78,14.44-2.45,10.31-16.63C107.1,46.69,105.56,43.34,112.65,36.64Z"/><path class="cls-3" d="M87.56,60.61s-13.62-5.38-19.31,6.22C68.25,66.83,80.51,70.16,87.56,60.61Z"/><path class="cls-5" d="M57.8,3.08,53.21,23.19l3.65-5.91a97.3,97.3,0,0,1-3.65,15.56c-1.46,4.26-.1,20.95,4.32,12.9,6-14.22,4-1.29,2.56,2.08S55.21,53.92,56.86,70c0,1.29.59-4.74,1.22-10.33.58-5,3.27-9.41,4.32-12.78s1.77-10.84-.88-10.7-4.76,8-5.82,7.83-.81-8.89,0-11.36c1.4-4,2.79-15.8,2.79-15.8L62,22Z"/></g></g></svg>