<svg xmlns="http://www.w3.org/2000/svg" viewBox="0 0 106.55 37.44"><defs><style>.cls-1{fill:none;stroke:#252527;stroke-miterlimit:10;stroke-width:3px;}.cls-2{fill:#252527;}</style></defs><title>资源 15</title><g id="图层_2" data-name="图层 2"><g id="图层_44" data-name="图层 44"><path class="cls-1" d="M6,2A118.92,118.92,0,0,1,24.25,5.05C28.75,6.73,47,18.58,46,20.2,43.65,23.34,35.16,20,6,2Z"/><path class="cls-1" d="M100.51,2A118.92,118.92,0,0,0,82.3,5.05C77.8,6.73,59.59,18.58,60.6,20.2,62.9,23.34,71.39,20,100.51,2Z"/><path class="cls-2" d="M25.08,23.76c-11.46.07-11.73-1-18.43-5.66,0,0,8.15,23.25,35.14,18.77C41.79,36.87,40.4,24.86,25.08,23.76Zm-7.25,4.35s16-5.8,22.22,7.86C40.05,36,25.7,39.43,17.83,28.11Z"/><path class="cls-2" d="M81.52,23.76c-15.33,1.1-16.71,13.11-16.71,13.11C91.8,41.35,100,18.1,100,18.1,93.25,22.79,93,23.83,81.52,23.76ZM66.46,36c6.22-13.66,22.21-7.86,22.21-7.86C80.81,39.43,66.46,36,66.46,36Z"/></g></g></svg>