<svg xmlns="http://www.w3.org/2000/svg" viewBox="0 0 103.88 66.17"><defs><style>.cls-1{fill:none;stroke:#231815;stroke-miterlimit:10;stroke-width:6px;}</style></defs><title>资源 10</title><g id="图层_2" data-name="图层 2"><g id="图层_44" data-name="图层 44"><path class="cls-1" d="M79.45,33.67V18.1H72.16V3H31V18.1H24.31V33.69C15.25,35.38,1.92,39.92,3.07,51.92,4.8,70,12.1,61.52,13,59c1.68-3.24.55-3.68,2.25-7.06,1.15-2.32,4.78-5.5,9.18-8.16a87.15,87.15,0,0,1,27.8-4.44,87,87,0,0,1,26.71,4.1c4.66,2.72,8.57,6.08,9.78,8.5,1.69,3.38.56,3.82,2.25,7.06.86,2.54,8.15,11,9.88-7.06C102,39.86,88.51,35.34,79.45,33.67Z"/><line class="cls-1" x1="24.31" y1="33.69" x2="24.31" y2="43.76"/><line class="cls-1" x1="79.45" y1="33.67" x2="79.45" y2="43.42"/><line class="cls-1" x1="30.96" y1="18.1" x2="72.16" y2="18.1"/></g></g></svg>