<svg xmlns="http://www.w3.org/2000/svg" viewBox="0 0 38.76 41.67"><defs><style>.cls-1{fill:none;stroke:#231815;stroke-miterlimit:10;stroke-width:3px;}</style></defs><title>资源 16</title><g id="图层_2" data-name="图层 2"><g id="图层_44" data-name="图层 44"><path class="cls-1" d="M7.71,1S3.9,8.8,9.05,12.05c2.31-1,3.44-5.73,8,1.52a4.87,4.87,0,0,0,3.62,0S25.27,6,28.9,12.24c3.25.19,4.39-7.26,1-11.26"/><path class="cls-1" d="M2,32.4s10.29-8.54,14.62-3a6.26,6.26,0,0,0,6.18-.13S25.68,24,36.72,32.4c-2,2.9-7.54,8-17.37,7.76S3.78,35.16,2,32.4Z"/><path class="cls-1" d="M2,32.4s7.15-2.18,12.06,1.45c1.35,1.23,8.88,1,10.33,0C26.07,32.65,28,32,36.72,32.4"/></g></g></svg>