<svg xmlns="http://www.w3.org/2000/svg" viewBox="0 0 34.9 39.52"><defs><style>.cls-1,.cls-3{fill:none;stroke-miterlimit:10;}.cls-1{stroke:#231815;}.cls-2{fill:#df695e;}.cls-3{stroke:#b3403a;}</style></defs><title>资源 75</title><g id="图层_2" data-name="图层 2"><g id="嘴鼻_眉眼" data-name="嘴鼻、眉眼"><path class="cls-1" d="M5.87.33S2.06,8.15,7.21,11.4c2.31-1,3.44-5.73,8,1.52a4.87,4.87,0,0,0,3.62,0s4.59-7.58,8.21-1.33c3.25.19,4.39-7.26,1-11.26"/><path class="cls-2" d="M.15,31.75s10.29-8.54,14.62-3A6.26,6.26,0,0,0,21,28.6s2.89-5.25,13.93,3.15c-2,2.89-7.54,8-17.37,7.76S1.94,34.51.15,31.75Z"/><path class="cls-3" d="M.15,31.75S7.3,29.57,12.21,33.2c1.35,1.23,8.88,1,10.33,0,1.69-1.2,3.65-1.89,12.34-1.45"/></g></g></svg>