<svg xmlns="http://www.w3.org/2000/svg" viewBox="0 0 123.83 76.07"><defs><style>.cls-1{fill:none;stroke:#151313;stroke-miterlimit:10;}.cls-2{fill:#252527;}</style></defs><title>资源 74</title><g id="图层_2" data-name="图层 2"><g id="嘴鼻_眉眼" data-name="嘴鼻、眉眼"><path class="cls-1" d="M52.22.33s-5.78,8.57.46,11.3c2,.23,2.43-5.24,5-2.5,2,2.73,5,6.32,8.61-.1,1.23-1.64,3.09.1,4,2.6,2.1.79,7-5.12,1.57-11.3"/><path class="cls-2" d="M10.12,6.33S14.5,32.21,29,31.27c14.72,0,12.79-20.1,34.34-19.27C81.77,14.08,83,32.21,96.14,32.21,113.3,28.44,112.25,6.52,113.3,6.33s9.67,7.56,10.53,48.55C111.9,72.45,104.46,75,62.19,76c0,0-55,2.49-62.19-20.93C1,31.5,1.54,18.05,10.12,6.33Z"/></g></g></svg>