<svg xmlns="http://www.w3.org/2000/svg" viewBox="0 0 73.73 66.67"><defs><style>.cls-1{fill:#fff;stroke:#231815;}.cls-1,.cls-2{stroke-miterlimit:10;}.cls-2{fill:none;stroke:#040000;}.cls-3{fill:#df695e;}.cls-4{fill:#040000;}</style></defs><title>资源 69</title><g id="图层_2" data-name="图层 2"><g id="嘴鼻_眉眼" data-name="嘴鼻、眉眼"><path class="cls-1" d="M36.86,16c-1.63.13-4.65-3.52-4.65-3.52S27.94,26.57,21.28,23.68,28.19,1.05,29.7.55,11.6,2.94,2.42,26.82,19.14,64.28,34.35,66.17h5c15.21-1.89,41.1-15.46,31.93-39.35S42.52.05,44,.55s15.08,20.24,8.42,23.13S41.51,12.49,41.51,12.49s-3,3.65-4.65,3.52"/><path class="cls-2" d="M29.89.5s-9.23,9.8-3.59,14.85c1.32,1.23,3.46-3.74,4.62-3.67S35.1,16.2,36.86,16"/><path class="cls-2" d="M43.84.5s9.22,9.8,3.58,14.85C46.1,16.58,44,11.61,42.8,11.68S38.62,16.2,36.86,16"/><path class="cls-3" d="M36.86,37.51c-1.13-.14-.66.89-5.23,1s-10-6.6-10-6.6,10-.72,12.93.15c1.51.45,2.13.62,2.34.68"/><path class="cls-3" d="M36.86,37.51c1.13-.14.66.89,5.24,1s10-6.6,10-6.6-10-.72-12.94.15c-1.5.45-2.12.62-2.34.68"/><path class="cls-4" d="M36.86,16.39c-1,0-2.07-1.41-2.07-1.41S28.28,31.29,19.42,26.76s3.49-20.27,4.15-21.5S-3.77,23.46,6.22,45.14,36,65.7,36.86,66.17c0,0-16,1.26-20.11-18.1-1-8,2.27-15.89,5.41-16.1,3.41-.22,8.79-1,14.7.76"/><path class="cls-4" d="M36.86,16.39c1,0,2.08-1.41,2.08-1.41s6.5,16.31,15.36,11.78S50.82,6.49,50.16,5.26,77.5,23.46,67.5,45.14s-29.79,20.56-30.64,21c0,0,16,1.26,20.12-18.1,1-8-2.27-15.89-5.41-16.1-3.42-.22-8.8-1-14.71.76"/></g></g></svg>