<svg xmlns="http://www.w3.org/2000/svg" viewBox="0 0 69.02 56.11"><defs><style>.cls-1{fill:#df695e;}.cls-2{fill:#fff;stroke:#040000;}.cls-2,.cls-4{stroke-miterlimit:10;}.cls-3{fill:#040000;}.cls-4{fill:none;stroke:#231815;}</style></defs><title>资源 70</title><g id="图层_2" data-name="图层 2"><g id="嘴鼻_眉眼" data-name="嘴鼻、眉眼"><path class="cls-1" d="M19.83,28.27s6.25,6,8.19,6.34,11.91,1.07,13.8,0A95.56,95.56,0,0,0,50.61,29c.52-.43-7.11-3.22-9.86-2.2s-5,2.84-6.24,2.91-3.83-3.15-7-2.95A17.43,17.43,0,0,0,19.83,28.27Z"/><path class="cls-2" d="M34.51,29.35A17.52,17.52,0,0,1,30.3,27.3C27.94,26,18.79,27,16,31.38,9.82,40.66,13.12,50.76,15,54.9,6.14,49.76,3.23,46,1.54,42.17-2.14,35.58,4.61,18.1,11.43,6.36S25.07,4.13,25.07,4.13,18.63,14.75,27.3,13.9c.66-.06-1.22-1.86-.95-2.63s3.41-2.87,3.87,1.53c.15,1.31,2.72,3.07,4.29,3"/><path class="cls-2" d="M34.51,29.35a17.51,17.51,0,0,0,4.22-2.05C41.09,26,50.23,27,53,31.38c6.21,9.28,2.91,19.38,1.07,23.52C62.88,49.76,65.8,46,67.48,42.17c3.69-6.59-3.06-24.07-9.89-35.81S44,4.13,44,4.13s6.44,10.62-2.24,9.77c-.65-.06,1.23-1.86,1-2.63S39.27,8.4,38.81,12.8c-.16,1.31-2.73,3.07-4.3,3"/><path class="cls-3" d="M34.51,29.35c-1.15,0-3.52-2.28-7.36-2.6-4.52,0-9.64,1.93-10.86,4.25a23,23,0,0,0-1.94,22.41A36.46,36.46,0,0,1,4.53,40.18c-3.3-8,11.58-34,13-36s5.6-.84,4.12,1.76c-3.93,6.93,1.48,6.4,1.48,6.4a3.79,3.79,0,0,0,4.25,1.46c.21-.32-1.28-2-1.19-2.37s2.48-2.29,3.47-.54c.21.38.31,4.41,4.87,4.94"/><path class="cls-3" d="M34.51,29.35c1.15,0,3.53-2.28,7.36-2.6,4.53,0,9.65,1.93,10.86,4.25a23,23,0,0,1,2,22.41,36.37,36.37,0,0,0,9.81-13.23c3.3-8-11.57-34-13-36s-5.6-.84-4.13,1.76c3.93,6.93-1.47,6.4-1.47,6.4a3.81,3.81,0,0,1-4.26,1.46c-.21-.32,1.29-2,1.19-2.37s-2.47-2.29-3.47-.54c-.21.38-.31,4.41-4.87,4.94"/><path class="cls-4" d="M27.07.92s-9.66,13.42,0,13c1.23,0-1.38-2.15-.69-2.84s3.38-2.38,3.76,1.46c.39,2.53,3.76,3.29,4.37,3.29"/><path class="cls-4" d="M42,.92s9.66,13.42,0,13c-1.23,0,1.38-2.15.69-2.84s-3.37-2.38-3.76,1.46c-.38,2.53-3.75,3.29-4.37,3.29"/></g></g></svg>