<svg xmlns="http://www.w3.org/2000/svg" viewBox="0 0 75.02 66.46"><defs><style>.cls-1{fill:#df695e;}.cls-2{fill:#fff;stroke:#040000;stroke-miterlimit:10;}.cls-3{fill:#040000;}</style></defs><title>资源 71</title><g id="图层_2" data-name="图层 2"><g id="嘴鼻_眉眼" data-name="嘴鼻、眉眼"><path class="cls-1" d="M20.85,34.2s5.7,6.15,7.77,6.53a35,35,0,0,0,8.89-.59c3.59.64,7.91,1,8.93.46A66.53,66.53,0,0,0,54.15,35c.56-.45-8.62-3.77-11.62-2.87-3.44,1-4,3.22-5.23,3.09s-2.86-3.31-7.63-3.29C26.89,31.75,22.89,33.24,20.85,34.2Z"/><path class="cls-2" d="M37.51,35c-8.6-7.63-21.39.64-23.51,8.73-2.29,8.75,6.36,23,4.73,22.23S8.18,59.74,5.34,55.62c-7.43-10.74-5.4-22,0-28.72S12.3,11.57,12.91,9,14.61,2.12,19.15,1c9.38-2.25,9.76,3.27,9.39,5.09s-5.33,3.82-2.36,9.33,5.6,1.46,5.45,1-3.09.29-1.74-2.51c1.18-2.46,4.52,1.77,5,4.13.28,1.5,2.11,1.82,2.67,1.87"/><path class="cls-2" d="M37.51,35c8.6-7.63,21.39.64,23.51,8.73,2.3,8.75-6.36,23-4.73,22.23s10.55-6.18,13.39-10.3c7.43-10.74,5.4-22,0-28.72S62.72,11.57,62.11,9,60.41,2.12,55.87,1c-9.38-2.25-9.76,3.27-9.39,5.09s5.33,3.82,2.36,9.33-5.6,1.46-5.45,1,3.09.29,1.74-2.51c-1.18-2.46-4.52,1.77-5,4.13-.28,1.5-2.11,1.82-2.67,1.87"/><path class="cls-3" d="M37.42,34.88c-9.69-7.25-19.21.17-22.93,7.63s4.72,22.54,4.36,23.17-1.67-1-8.27-7.45a22.37,22.37,0,0,1-.73-31.45C19,17,13.85,10.6,18.58,6s7.54-.55,4,5.09,3.37,11.18,6.55,10.27c6.82-2.73,2.54-4.91,2.54-4.91s-2.54.46-2-1.82,3.45-1.75,5,2.91A3.45,3.45,0,0,0,37.42,20"/><path class="cls-3" d="M37.42,34.88c9.69-7.25,19.21.17,22.93,7.63S55.63,65.05,56,65.68s1.67-1,8.27-7.45A22.37,22.37,0,0,0,65,26.78C55.83,17,61,10.6,56.26,6s-7.54-.55-4,5.09S48.9,22.24,45.72,21.33c-6.82-2.73-2.54-4.91-2.54-4.91s2.54.46,2-1.82-3.45-1.75-5,2.91A3.45,3.45,0,0,1,37.42,20"/></g></g></svg>