<svg xmlns="http://www.w3.org/2000/svg" viewBox="0 0 107.88 25.22"><defs><style>.cls-1{fill:#211714;}.cls-2{fill:#fff;stroke:#211714;stroke-miterlimit:10;stroke-width:0.5px;}.cls-3{fill:#df695e;}</style></defs><title>资源 72</title><g id="图层_2" data-name="图层 2"><g id="嘴鼻_眉眼" data-name="嘴鼻、眉眼"><path class="cls-1" d="M0,1.87S15.77,2.09,17.24,6s6.62,12.55,17.13,5.33c1.74-1,14.67-6.84,15.76-7.71.77-.61-1.7-7.72-16.56,0-7.94,4.08-11.45,4.42-12,.91S16.56.28,0,1.87Z"/><path class="cls-1" d="M107.88,1.87S92.11,2.09,90.64,6,84,18.5,73.51,11.28c-1.74-1-14.67-6.84-15.77-7.71C57,3,59.45-4.15,74.31,3.57c7.93,4.08,11.45,4.42,12,.91S91.32.28,107.88,1.87Z"/><path class="cls-2" d="M53.54,6.52s-24.17,1.58-25,11.57c0,3.17,5,8.39,15.25,6.46,7.42-1.4,8.75-1.47,9.77-1.44"/><path class="cls-2" d="M53.54,6.52s24.16,1.58,25,11.57c0,3.17-5,8.39-15.24,6.46-7.43-1.4-8.75-1.47-9.77-1.44"/><path class="cls-3" d="M53.54,15.1a27.29,27.29,0,0,1-6.24-.45c-1.79-.53-12.1.07-10.06,3s9,.53,10.89.45,4.76-.22,5.41-.15"/><path class="cls-3" d="M53.54,15.1a27.29,27.29,0,0,0,6.24-.45c1.79-.53,12.09.07,10,3s-9,.53-10.89.45-4.76-.22-5.4-.15"/></g></g></svg>