<svg xmlns="http://www.w3.org/2000/svg" viewBox="0 0 36.35 40.95"><defs><style>.cls-1{fill:none;stroke:#151313;stroke-miterlimit:10;}.cls-2{fill:#fff;}.cls-3{fill:#df695e;}.cls-4{fill:#2c282a;}</style></defs><title>资源 73</title><g id="图层_2" data-name="图层 2"><g id="嘴鼻_眉眼" data-name="嘴鼻、眉眼"><path class="cls-1" d="M6.85.33S.07,10.38,7.39,13.58c2.39.27,2.85-6.15,5.85-2.93,2.32,3.2,5.87,7.41,10.1-.12,1.44-1.92,3.62.12,4.7,3.05,2.46.93,8.24-6,1.85-13.25"/><path class="cls-2" d="M6.66,31.86s10.81,20.3,22.51.24C25.56,31.86,21.27,34.71,6.66,31.86Z"/><path class="cls-3" d="M9.37,31.86s8.17,17.43,17,.2C23.65,31.86,20.41,34.31,9.37,31.86Z"/><path class="cls-4" d="M8.89,12.78S13.66,12,6.7,28.71c-1.46,1-1.14,1.54-6.7,0,0,1,1.49,3.81,8.67,3.11,6.83.18,6.83,5.43,16,.11,0,0,9.46,1.21,11.65-3-.61-.87-4.2,2.1-7.09-.44-2.28-3.85-5.79-15.71-2-15.71-.6-1.74-2.46-5.28-5.17-.3-3.68,4.36-6.31,1.36-7.43-.05S11.47,7.41,8.89,12.78Z"/></g></g></svg>