<?xml version="1.0" standalone="no"?><!DOCTYPE svg PUBLIC "-//W3C//DTD SVG 1.1//EN" "http://www.w3.org/Graphics/SVG/1.1/DTD/svg11.dtd"><svg t="1590136388037" class="icon" viewBox="0 0 1024 1024" version="1.1" xmlns="http://www.w3.org/2000/svg" p-id="1151" xmlns:xlink="http://www.w3.org/1999/xlink" width="200" height="200"><defs><style type="text/css"></style></defs><path d="M574.653316 75.894774a43.970782 43.970782 0 0 0 0-62.884241 45.687449 45.687449 0 0 0-63.908219 0L43.35978 473.047308a43.970782 43.970782 0 0 0 0 62.884242l478.859884 475.035028a45.687449 45.687449 0 0 0 63.878102 0 43.970782 43.970782 0 0 0 0-62.914358L184.487919 549.06255l764.218212-0.060234c24.936854 0 45.175461-19.877203 45.175461-44.452653s-20.238606-44.48277-45.175461-44.48277l-764.368797 0.060234L574.653316 75.894774z" fill="#000000" fill-opacity=".85" p-id="1152"></path></svg>