<svg xmlns="http://www.w3.org/2000/svg" viewBox="0 0 237.1 145.76"><defs><style>.cls-1{fill:#2f292b;}.cls-2{fill:none;}.cls-2,.cls-3{stroke:#231815;stroke-miterlimit:10;}.cls-3{fill:#f3f9f5;}</style></defs><title>生 (8)</title><g id="图层_2" data-name="图层 2"><g id="头饰"><g id="生"><g id="头饰-生2"><path class="cls-1" d="M185.19,74.29V36.58H167.52V0H67.74V36.58H51.62V74.34C29.68,78.44-2.62,89.43.17,118.5c4.2,43.68,21.86,23.26,24,17.09,4.08-7.84,1.35-8.9,5.44-17.09,2.81-5.61,11.61-13.32,22.26-19.77A210.7,210.7,0,0,1,119.14,88a211.47,211.47,0,0,1,64.72,9.92c11.29,6.6,20.76,14.75,23.68,20.6,4.09,8.19,1.37,9.25,5.45,17.09,2.08,6.17,19.75,26.59,23.94-17.09C239.74,89.3,207.13,78.34,185.19,74.29Z"/><line class="cls-2" x1="51.62" y1="74.34" x2="51.62" y2="98.73"/><line class="cls-2" x1="185.19" y1="74.29" x2="185.19" y2="97.9"/><path class="cls-3" d="M133,69c0,3.49-5.47,6.31-12.21,6.31s-12.2-2.82-12.2-6.31,5.47-6.31,12.2-6.31S133,65.48,133,69Z"/><line class="cls-2" x1="67.74" y1="36.58" x2="167.52" y2="36.58"/><path class="cls-3" d="M185.19,93.26c-74.7-24.66-133.57,0-133.57,0V90.42s58.87-24.66,133.57,0Z"/></g></g></g></g></svg>