<svg xmlns="http://www.w3.org/2000/svg" viewBox="0 0 339.37 130.75"><defs><style>.cls-1{fill:#2c282a;}.cls-2{fill:none;}.cls-2,.cls-3{stroke:#231815;stroke-miterlimit:10;}.cls-3{fill:#fff;}</style></defs><title>生 (9)</title><g id="图层_2" data-name="图层 2"><g id="头饰"><g id="生"><g id="头饰-生3"><path class="cls-1" d="M316.73,87.94c-17.44,5.59-50.75,10.43-74.32,13.38V42H232.23V0H112.65V42h-11.6v61.27C77.48,100.9,41.32,96.58,23,91.05-5.56,82.42.18,112,1,113.69s.41,14.06,25,14.74c17.44.47,48.51,3,73.22,2.16C116.43,114.4,142.77,104,172.3,104c28.63,0,54.24,9.74,71.46,25.08,23.92-.07,52.55-2.93,69-3.73,24.59-1.19,24.44-13.55,25.34-15.27S345.5,78.71,316.73,87.94Z"/><line class="cls-2" x1="101.05" y1="103.28" x2="99.23" y2="130.59"/><line class="cls-2" x1="242.41" y1="101.32" x2="243.76" y2="129.12"/><path class="cls-2" d="M112.65,42s47.21-21.32,119.58,0"/><path class="cls-3" d="M191,85.66c0,3.91-7.72,7.07-17.25,7.07s-17.24-3.16-17.24-7.07,7.72-7.07,17.24-7.07S191,81.76,191,85.66Z"/></g></g></g></g></svg>