<svg xmlns="http://www.w3.org/2000/svg" viewBox="0 0 186.24 207.76"><defs><style>.cls-1,.cls-5{fill:#ddc52f;}.cls-1,.cls-3,.cls-4{stroke:#231815;}.cls-1,.cls-3,.cls-4,.cls-5{stroke-miterlimit:10;}.cls-2{fill:#2c282a;}.cls-3{fill:#e7674a;}.cls-4{fill:#fff;}.cls-5{stroke:#211714;stroke-width:0.5px;}</style></defs><title>旦 (8)</title><g id="图层_2" data-name="图层 2"><g id="头饰"><g id="旦"><g id="旦1"><path class="cls-1" d="M184.9,99.33a2.81,2.81,0,0,0-4,0,2.7,2.7,0,0,0-.46.66h-2.74a2.82,2.82,0,0,0-4.6-.88,2.64,2.64,0,0,0-.58.88h-6.6a46.91,46.91,0,0,0-.45-11.85l5.78-3a2.61,2.61,0,0,0,1.09.64A2.78,2.78,0,0,0,176,82.72l2.17-1.14a2.8,2.8,0,1,0-.61-2.69,3.21,3.21,0,0,0-.11.8L175,81a2.63,2.63,0,0,0-1-.53,2.79,2.79,0,0,0-3.5,1.87,2.71,2.71,0,0,0-.11,1l-5.3,2.77A34,34,0,0,0,160,74.24l4.72-3.74a2.69,2.69,0,0,0,1.2.42,2.79,2.79,0,0,0,3.08-2.5,2.73,2.73,0,0,0-.14-1.21l1.91-1.52a2.75,2.75,0,0,0,1.4.56,2.81,2.81,0,1,0-2.5-3.09,2.72,2.72,0,0,0,0,.81l-2.14,1.7a2.92,2.92,0,0,0-1.07-.34,2.82,2.82,0,0,0-3.09,2.51,2.63,2.63,0,0,0,.1,1l-4.71,3.74a31.54,31.54,0,0,0-12.07-9.17l4.36-4.28a2.73,2.73,0,0,0,1.24.3,2.8,2.8,0,0,0,2.54-4l1.75-1.71a2.72,2.72,0,0,0,1.44.41,2.81,2.81,0,1,0-2.81-2.81,2.68,2.68,0,0,0,.13.8l-1.95,1.91a2.88,2.88,0,0,0-1.1-.22,2.81,2.81,0,0,0-2.81,2.81,2.75,2.75,0,0,0,.2,1l-5,4.92a43.25,43.25,0,0,0-5.53-1.71C135,43.21,123.4,25.11,94.9,23.57S50.61,45.9,48.3,60.92a28.5,28.5,0,0,0-6,1.83l-5.15-5a2.76,2.76,0,0,0,.21-1,2.81,2.81,0,0,0-2.81-2.81,2.88,2.88,0,0,0-1.1.22l-1.95-1.91a3,3,0,0,0,.12-.8,2.81,2.81,0,1,0-2.81,2.81,2.75,2.75,0,0,0,1.45-.41L32,55.48a2.8,2.8,0,0,0,2.54,4,2.69,2.69,0,0,0,1.23-.3l4.57,4.48a35.83,35.83,0,0,0-11.58,9.39l-4.83-3.83a2.68,2.68,0,0,0,.1-1.06,2.82,2.82,0,0,0-3.09-2.5,2.75,2.75,0,0,0-1.07.34l-2.14-1.71a3,3,0,0,0,0-.8,2.81,2.81,0,1,0-2.5,3.09A2.77,2.77,0,0,0,16.66,66l1.92,1.52a2.71,2.71,0,0,0-.14,1.21,2.81,2.81,0,0,0,3.08,2.5,2.7,2.7,0,0,0,1.2-.43l4.81,3.82A37.85,37.85,0,0,0,22,85.9l-4.89-2.55a2.91,2.91,0,0,0-.1-1,2.81,2.81,0,0,0-3.51-1.87,2.7,2.7,0,0,0-1,.53l-2.42-1.27a2.85,2.85,0,1,0-.72,1.89l2.17,1.14a2.64,2.64,0,0,0,.09,1.21,2.79,2.79,0,0,0,3.5,1.87,2.64,2.64,0,0,0,1.1-.64l5.22,2.72A45.05,45.05,0,0,0,20.1,98.93H13.7a2.64,2.64,0,0,0-.58-.88,2.8,2.8,0,0,0-4,0,2.74,2.74,0,0,0-.63.93H5.78a2.91,2.91,0,0,0-.46-.66A2.86,2.86,0,1,0,6,101H8.47a2.77,2.77,0,0,0,.64,1,2.81,2.81,0,0,0,4,0,2.75,2.75,0,0,0,.68-1.08h6.38c0,.39,0,.78.05,1.19-8.09,8.85-7.9,30.42-.1,37,2.8,16.18,12.42,55.46,35.14,66.24,0,0-18.48-16.94-21.18-65.08,10.4,3.08,32-3.47,34.66-26.19,9.63,7.32,27.73,16.56,49.68,0,2.7,12.71,8.47,26.19,35,25-1.92,25.42-4.23,49.3-21.56,66.24,14.63-8.47,33.12-24.26,36.2-66.62,6.85-5.33,7.67-28.7-2-36.68h6.38a2.75,2.75,0,0,0,.68,1.08,2.8,2.8,0,0,0,4,0,2.7,2.7,0,0,0,.64-1h2.45a2.71,2.71,0,0,0,.74,1.3,2.81,2.81,0,1,0,3.94-4Z"/><path class="cls-2" d="M166.1,102h.21a2.74,2.74,0,0,1-.36-2.26,46.39,46.39,0,0,0-.43-11.38s0,0,0,0a14.42,14.42,0,0,1-.42-2.23h0A34,34,0,0,0,160,74.24h0a15.92,15.92,0,0,1-1.1-1.7l-.11.09a31.3,31.3,0,0,0-11.45-8.87,8.22,8.22,0,0,1-1.9-.79,2.79,2.79,0,0,1-.74-.35h0l-.62-.23a3.62,3.62,0,0,1-.82-.29c-1.29-.44-2.65-.85-4.09-1.19C135,43.21,123.4,25.11,94.9,23.57S50.61,45.9,48.3,60.92a28.5,28.5,0,0,0-6,1.83l-.06,0a2.63,2.63,0,0,1-.77.44l-.67.23a2.76,2.76,0,0,1-.55.19l.1.1a35.83,35.83,0,0,0-11.58,9.39l-.06,0a5.63,5.63,0,0,1-1.13,1.42,1.58,1.58,0,0,1-.12.15l.08.06A37.85,37.85,0,0,0,22,85.9h0a2.68,2.68,0,0,1-.07.27,7.54,7.54,0,0,1-.42,1.24c0,.15-.06.3-.1.45l.07,0A45.05,45.05,0,0,0,20.1,98.93H20a3.86,3.86,0,0,1,.1.49l.1.74a1.89,1.89,0,0,1-.08.78h0c0,.39,0,.78.05,1.19-8.09,8.85-7.9,30.42-.1,37,2.8,16.18,12.42,55.46,35.14,66.24,0,0-18.48-16.94-21.18-65.08,10.4,3.08,32-3.47,34.66-26.19,9.63,7.32,27.73,16.56,49.68,0,2.7,12.71,8.47,26.19,35,25-1.92,25.42-4.23,49.3-21.56,66.24,14.63-8.47,33.12-24.26,36.2-66.62C174.92,133.38,175.74,110,166.1,102Z"/><circle class="cls-3" cx="93.23" cy="96.61" r="8.86" transform="translate(-17 173.24) rotate(-80.83)"/><path class="cls-4" d="M90.63,86a3.34,3.34,0,1,1-3.33-3.34A3.34,3.34,0,0,1,90.63,86Z"/><path class="cls-4" d="M85.65,88.67a3.34,3.34,0,1,1-4.56-1.22A3.33,3.33,0,0,1,85.65,88.67Z"/><path class="cls-4" d="M82.7,93.52a3.34,3.34,0,1,1-4.56,1.23A3.34,3.34,0,0,1,82.7,93.52Z"/><path class="cls-4" d="M82.57,99.2a3.34,3.34,0,1,1-3.34,3.34A3.35,3.35,0,0,1,82.57,99.2Z"/><path class="cls-4" d="M85.3,104.18a3.34,3.34,0,1,1-1.23,4.56A3.35,3.35,0,0,1,85.3,104.18Z"/><path class="cls-4" d="M90.15,107.13a3.34,3.34,0,1,1,1.22,4.56A3.34,3.34,0,0,1,90.15,107.13Z"/><path class="cls-4" d="M95.83,107.26a3.34,3.34,0,1,1,3.33,3.34A3.33,3.33,0,0,1,95.83,107.26Z"/><path class="cls-4" d="M100.81,104.54a3.34,3.34,0,1,1,4.56,1.22A3.33,3.33,0,0,1,100.81,104.54Z"/><path class="cls-4" d="M103.76,99.69a3.34,3.34,0,1,1,4.56-1.23A3.34,3.34,0,0,1,103.76,99.69Z"/><path class="cls-4" d="M103.89,94a3.34,3.34,0,1,1,3.34-3.34A3.33,3.33,0,0,1,103.89,94Z"/><path class="cls-4" d="M101.16,89a3.34,3.34,0,1,1,1.22-4.56A3.35,3.35,0,0,1,101.16,89Z"/><path class="cls-4" d="M96.31,86.08a3.34,3.34,0,1,1-1.22-4.56A3.34,3.34,0,0,1,96.31,86.08Z"/><path class="cls-1" d="M37.82,99.16a6.81,6.81,0,1,1-6.8-6.8A6.81,6.81,0,0,1,37.82,99.16Z"/><path class="cls-3" d="M34.54,98.75a3.37,3.37,0,1,1-3.37-3.37A3.37,3.37,0,0,1,34.54,98.75Z"/><path class="cls-1" d="M41.34,81.07a6.81,6.81,0,1,1-6.8-6.8A6.8,6.8,0,0,1,41.34,81.07Z"/><path class="cls-3" d="M38.06,80.66a3.37,3.37,0,1,1-3.37-3.37A3.37,3.37,0,0,1,38.06,80.66Z"/><path class="cls-1" d="M57.4,71.65a6.81,6.81,0,1,1-6.81-6.8A6.81,6.81,0,0,1,57.4,71.65Z"/><path class="cls-3" d="M54.11,71.25a3.37,3.37,0,1,1-3.37-3.37A3.37,3.37,0,0,1,54.11,71.25Z"/><path class="cls-1" d="M143.59,71.65a6.81,6.81,0,1,1-6.8-6.8A6.8,6.8,0,0,1,143.59,71.65Z"/><path class="cls-3" d="M140.31,71.25a3.37,3.37,0,1,1-3.37-3.37A3.37,3.37,0,0,1,140.31,71.25Z"/><path class="cls-1" d="M159.36,81.07a6.81,6.81,0,1,1-6.8-6.8A6.8,6.8,0,0,1,159.36,81.07Z"/><path class="cls-3" d="M156.08,80.66a3.38,3.38,0,1,1-3.37-3.37A3.37,3.37,0,0,1,156.08,80.66Z"/><path class="cls-1" d="M162.48,99.16a6.81,6.81,0,1,1-6.8-6.8A6.81,6.81,0,0,1,162.48,99.16Z"/><path class="cls-3" d="M159.2,98.75a3.38,3.38,0,1,1-3.37-3.37A3.37,3.37,0,0,1,159.2,98.75Z"/><path class="cls-4" d="M51.94,123s-8.86-4.62-7.32,4.33c-2.31,1.93-8.76-5.1-7.41-11.46,1.73.1,6.23,5.8,8.06-1.13,0,0-2.19-5.51-5.18-5.8-.52-.5,2.51-.6,3-.44s.48-2.64,1-2.93.87,8.19,4.62,7.8,3.76-5.41,2.12-6.6S61.47,109.49,60,118c-2.79-.38-7.76-3-7.51,3.56C52.51,121.52,52.8,123.16,51.94,123Z"/><path class="cls-4" d="M135.25,124.31s8.85-4.62,7.31,4.34c2.31,1.92,8.76-5.11,7.42-11.46-1.74.1-6.24,5.8-8.07-1.13,0,0,2.19-5.51,5.18-5.8.53-.51-2.5-.61-3-.45s-.48-2.64-1-2.92-.87,8.18-4.62,7.8-3.75-5.42-2.12-6.61-10.68,2.76-9.24,11.23c2.79-.39,7.77-3,7.51,3.56C134.67,122.87,134.38,124.51,135.25,124.31Z"/><path class="cls-1" d="M102.09,11.6c0-6.13-3.75-11.1-8.37-11.1s-8.38,5-8.38,11.1,3.75,11.11,8.38,11.11S102.09,17.74,102.09,11.6Z"/><polygon class="cls-1" points="93.04 50.52 95.83 50.52 95.83 22.71 93.72 22.71 93.04 22.71 93.04 50.52"/><path class="cls-1" d="M125.39,22c3.07-5.31,2.31-11.49-1.7-13.81s-9.73.12-12.8,5.43-2.3,11.49,1.7,13.81S122.33,27.29,125.39,22Z"/><polygon class="cls-1" points="98.1 51.16 100.51 52.55 114.42 28.46 112.59 27.41 112.01 27.07 98.1 51.16"/><path class="cls-1" d="M140.39,42.61c5.31-3.06,7.74-8.8,5.43-12.8S137.33,25,132,28.11s-7.74,8.8-5.43,12.8S135.08,45.68,140.39,42.61Z"/><polygon class="cls-1" points="102.16 54.23 103.56 56.65 127.64 42.74 126.59 40.91 126.25 40.33 102.16 54.23"/><path class="cls-1" d="M76.11,14.57C73,9.26,67.31,6.83,63.31,9.14S58.54,17.63,61.61,23s8.8,7.74,12.8,5.43S79.18,19.88,76.11,14.57Z"/><polygon class="cls-1" points="87.74 52.8 90.15 51.41 76.24 27.32 74.41 28.38 73.83 28.71 87.74 52.8"/><path class="cls-1" d="M55.1,30.13c-5.31-3.06-11.49-2.3-13.8,1.7s.12,9.74,5.43,12.81,11.49,2.3,13.8-1.7S60.41,33.2,55.1,30.13Z"/><polygon class="cls-1" points="84.28 57.43 85.67 55.02 61.59 41.11 60.53 42.94 60.19 43.52 84.28 57.43"/><path class="cls-5" d="M122.92,55.77a3.1,3.1,0,1,0-2.08-2.92,3.08,3.08,0,0,0,1.62,2.71c-4.74,4.7-11.48,4.74-14.6,5.62s-10.14,7.7-10.14,7.7c2.83-2.95,14-4.62,18.36-5.65C120,62.31,122.74,57.82,122.92,55.77Z"/><path class="cls-5" d="M107.09,69.16C103.77,69.48,95.74,75,95.74,75c3.3-2.41,14.59-2.07,19.07-2.31s8.36-5.15,8.13-6.75C117.35,70.1,110.4,68.85,107.09,69.16Z"/><path class="cls-4" d="M126,61.75a3.1,3.1,0,1,0,3.1,3.1A3.1,3.1,0,0,0,126,61.75Z"/><path class="cls-5" d="M62.45,55.17a3.09,3.09,0,1,1,2.09-2.92A3.09,3.09,0,0,1,62.92,55c4.73,4.7,11.48,4.74,14.59,5.62s10.14,7.7,10.14,7.7c-2.82-3-14-4.62-18.35-5.65C65.4,61.71,62.64,57.22,62.45,55.17Z"/><path class="cls-5" d="M78.29,68.56c3.32.32,11.34,5.79,11.34,5.79-3.3-2.41-14.58-2.07-19.06-2.31s-8.36-5.15-8.13-6.75C68,69.5,75,68.25,78.29,68.56Z"/><path class="cls-4" d="M59.33,61.15a3.1,3.1,0,1,1-3.1,3.1A3.1,3.1,0,0,1,59.33,61.15Z"/><path class="cls-4" d="M61.4,48.89A3.1,3.1,0,1,1,58.3,52,3.1,3.1,0,0,1,61.4,48.89Z"/><path class="cls-4" d="M123.94,49.7a3.1,3.1,0,1,1-3.1,3.1A3.1,3.1,0,0,1,123.94,49.7Z"/><path class="cls-3" d="M99.16,12c0,4.54-2.46,8.22-5.51,8.22S88.14,16.55,88.14,12,90.6,3.8,93.65,3.8,99.16,7.48,99.16,12Z"/><path class="cls-3" d="M122.66,20.87c-2.27,3.93-6.25,5.88-8.89,4.36s-2.93-5.95-.66-9.88S119.35,9.47,122,11,124.92,16.94,122.66,20.87Z"/><path class="cls-3" d="M138.57,40.28c-3.93,2.27-8.34,2-9.87-.66s.43-6.62,4.36-8.89,8.35-2,9.87.67S142.5,38,138.57,40.28Z"/><path class="cls-3" d="M73.78,16.39c2.27,3.93,2,8.35-.66,9.87s-6.62-.43-8.89-4.36-2-8.34.67-9.87S71.51,12.46,73.78,16.39Z"/><path class="cls-3" d="M54,32.87c3.93,2.27,5.88,6.25,4.36,8.88s-5.94,2.94-9.87.67-5.88-6.24-4.36-8.88S50.06,30.6,54,32.87Z"/><path class="cls-4" d="M13,99.84a1.76,1.76,0,1,1-1.76-1.76A1.76,1.76,0,0,1,13,99.84Z"/><circle class="cls-4" cx="3.16" cy="100.18" r="1.76"/><path class="cls-4" d="M15.94,83.17a1.76,1.76,0,1,1-1.76-1.76A1.76,1.76,0,0,1,15.94,83.17Z"/><path class="cls-4" d="M9,79.66A1.76,1.76,0,1,1,7.23,77.9,1.75,1.75,0,0,1,9,79.66Z"/><path class="cls-4" d="M23.07,68.52a1.76,1.76,0,1,1-1.76-1.75A1.76,1.76,0,0,1,23.07,68.52Z"/><path class="cls-4" d="M16.65,63.71A1.76,1.76,0,1,1,14.89,62,1.76,1.76,0,0,1,16.65,63.71Z"/><path class="cls-4" d="M36.28,56.48a1.76,1.76,0,1,1-1.76-1.76A1.76,1.76,0,0,1,36.28,56.48Z"/><path class="cls-4" d="M30.53,51.32a1.76,1.76,0,1,1-1.76-1.75A1.76,1.76,0,0,1,30.53,51.32Z"/><path class="cls-4" d="M173.23,101.1A1.76,1.76,0,1,0,175,99.34,1.76,1.76,0,0,0,173.23,101.1Z"/><path class="cls-4" d="M181.28,101.44A1.76,1.76,0,1,0,183,99.68,1.76,1.76,0,0,0,181.28,101.44Z"/><path class="cls-4" d="M171.49,83.11a1.76,1.76,0,1,0,1.76-1.76A1.76,1.76,0,0,0,171.49,83.11Z"/><path class="cls-4" d="M178.44,79.6a1.76,1.76,0,1,0,1.76-1.76A1.75,1.75,0,0,0,178.44,79.6Z"/><path class="cls-4" d="M164.36,68.15a1.76,1.76,0,1,0,1.76-1.76A1.75,1.75,0,0,0,164.36,68.15Z"/><path class="cls-4" d="M170.78,63.33a1.76,1.76,0,1,0,1.76-1.75A1.76,1.76,0,0,0,170.78,63.33Z"/><path class="cls-4" d="M150.58,56.64a1.76,1.76,0,1,0,1.76-1.76A1.76,1.76,0,0,0,150.58,56.64Z"/><path class="cls-4" d="M156.34,51.48a1.76,1.76,0,1,0,1.76-1.75A1.76,1.76,0,0,0,156.34,51.48Z"/></g></g></g></g></svg>