<svg xmlns="http://www.w3.org/2000/svg" viewBox="0 0 188.57 176.8"><defs><style>.cls-1,.cls-3{fill:#2c282a;}.cls-1,.cls-4,.cls-5,.cls-6,.cls-7,.cls-8,.cls-9{stroke:#231815;stroke-miterlimit:10;}.cls-2{fill:#e1d485;}.cls-4{fill:none;}.cls-5{fill:#fff;}.cls-6{fill:#942223;}.cls-7{fill:#e7e5e5;}.cls-8{fill:#ddc52f;}.cls-9{fill:#d9654c;}</style></defs><title>旦 (9)</title><g id="图层_2" data-name="图层 2"><g id="头饰"><g id="旦"><g id="旦2"><path class="cls-1" d="M171.83.5a8.11,8.11,0,0,0-7.56,11.15l-3.91,2.66a5.29,5.29,0,0,0-3.24-1.11A5.27,5.27,0,0,0,152,20L148,22.69a10.1,10.1,0,0,0-17.74,6.63A9.9,9.9,0,0,0,131.46,34l-7.87,5.35c-4.27-5.54-11.87-12.16-29.5-12.16-27.68,0-34.29,18.28-34.29,18.28V48.6H33.28v3.58H59.8v6.55l67.31.31V44.36c-.52-.72-1.07-1.58-1.7-2.51l7.86-5.35a10.13,10.13,0,0,0,16.46-11.18l3.94-2.68a5.27,5.27,0,0,0,3.45,1.29,5.31,5.31,0,0,0,5.07-7.07L166,14.29A8.15,8.15,0,1,0,171.83.5Z"/><path class="cls-2" d="M167.48,75.15A149.19,149.19,0,0,0,23,72.39,95,95,0,0,0,6.5,168.87c11.92-15.91,27-28.35,44.13-36,9.5,9.71,24.34,16,41.07,16,15.94,0,30.19-5.69,39.72-14.63,18.62,9,34.74,23.78,46.74,42.53A95,95,0,0,0,167.48,75.15Z"/><path class="cls-3" d="M131.42,134.27c-43.49-26.57-80.79-1.36-80.79-1.36s18.66,17.36,41.07,16S123.47,141.05,131.42,134.27Z"/><line class="cls-4" x1="59.8" y1="48.6" x2="127.11" y2="48.6"/><path class="cls-5" d="M106.94,127.34c0,9.44-7,17.09-15.64,17.09s-15.63-7.65-15.63-17.09,7-17.1,15.63-17.1S106.94,117.9,106.94,127.34Z"/><path class="cls-6" d="M37.16,48.68c.35,1.74-2.2,3.72-5.69,4.41s-6.61-.14-7-1.88,2.2-3.72,5.7-4.42S36.81,46.93,37.16,48.68Z"/><line class="cls-4" x1="123.59" y1="39.3" x2="125.41" y2="41.85"/><line class="cls-4" x1="59.8" y1="48.6" x2="59.8" y2="52.18"/><path class="cls-6" d="M98.73,126.94c0,5.56-3.33,10.07-7.43,10.07s-7.42-4.51-7.42-10.07,3.33-10.07,7.42-10.07S98.73,121.38,98.73,126.94Z"/><path class="cls-4" d="M15.44,82.42S158,82.33,188.17,121.28"/><path class="cls-4" d="M.67,123s110-48.69,172.3-38"/><circle class="cls-7" cx="93.08" cy="85.66" r="22.34" transform="translate(-12.12 155.91) rotate(-76.36)"/><path class="cls-3" d="M94.77,71.24h5.11v2.39H94.77v3.65h9.87v2.56H94.77v3.74h6.68l8.27-6.45a18.69,18.69,0,0,0-15-9.85Z"/><path class="cls-3" d="M84.23,83.58h7.46V79.84h-10V77.28h10V73.63H86.58V71.24h5.11v-4A18.67,18.67,0,0,0,76.53,77.57Z"/><path class="cls-3" d="M111.26,90.66a18.36,18.36,0,0,0-.54-11.28l-7,5.43Z"/><path class="cls-3" d="M75.57,79.86a18.31,18.31,0,0,0-.5,10.29l6.85-5.34Z"/><path class="cls-3" d="M101.83,86.33H94.77v5.1h5.11v2.39H94.77v3.85h7.93v2.16H83.31V97.67h8.38V93.82H86.58V91.43h5.11v-5.1H83.85l-8,6.26a18.66,18.66,0,0,0,34.63.48Z"/><rect class="cls-6" x="59.8" y="48.6" width="67.31" height="10.22"/><rect class="cls-8" x="30.84" y="48.6" width="28.97" height="3.58"/><path class="cls-6" d="M41.62,37.75c-.32.11-.61.24-.9.36-.15-3.86-4.65-6.43-7.35-3.65-.22.25-.41.51-.6.77-2.06-3.27-7.24-3.26-8.19.5,0,.24-.07.46-.1.69-3.43-2-8,.66-7,4.45.08.22.17.43.26.64-4,0-6.64,4.61-3.82,7.35,6.06,5.31,13.75,2.53,13.75,2.53a1.83,1.83,0,0,0,.94-1.51,2,2,0,0,0,1.08-.78,2.1,2.1,0,0,0,1.66-.31,2.24,2.24,0,0,0,1.35.36,2.53,2.53,0,0,0,1.39,1.19c1.88,0,8.22-1.77,11-4.34C48.7,42.6,45.9,36.54,41.62,37.75Z"/><path class="cls-9" d="M27.69,51.39S20,54.17,13.94,48.86c-3.19-3.1.66-8.56,5.42-7.12,3.6,1.09,8.33,5.68,9.24,7.32A2.19,2.19,0,0,1,27.69,51.39Z"/><path class="cls-9" d="M32.55,48.39s1.44-8,9.07-10.64C45.9,36.54,48.7,42.6,45.08,46c-2.75,2.57-9.09,4.38-11,4.34A2.19,2.19,0,0,1,32.55,48.39Z"/><path class="cls-9" d="M29.25,48.91S23,43.64,24.58,35.73c1.09-4.31,7.74-3.71,8.87,1.13.85,3.67-.76,10.06-1.72,11.67A2.22,2.22,0,0,1,29.25,48.91Z"/><path class="cls-6" d="M37.16,48.68c.35,1.74-2.2,3.72-5.69,4.41s-6.61-.14-7-1.88,2.2-3.72,5.7-4.42S36.81,46.93,37.16,48.68Z"/></g></g></g></g></svg>