<svg xmlns="http://www.w3.org/2000/svg" viewBox="0 0 327.97 227.8"><defs><style>.cls-1{fill:#8cb8c9;}.cls-1,.cls-2,.cls-3,.cls-5,.cls-6{stroke:#231815;stroke-miterlimit:10;}.cls-2{fill:#fde198;}.cls-3{fill:#fff;}.cls-4{fill:#2c282a;}.cls-5{fill:#f7c18b;}.cls-6{fill:#e7674a;}</style></defs><title>净 (5)</title><g id="图层_2" data-name="图层 2"><g id="头饰"><g id="净"><g id="净2"><path class="cls-1" d="M265,191.81h31.26s9.15-6.34,2.11-12.35,2.94-25.05,14.6-11.36c0,0,16.12.67,8.61,18.54,0,0,12.5,8.85,1.09,24.55,0,0-17.5,21-37,4H265Z"/><path class="cls-1" d="M63,191.81H31.71s-9.14-6.34-2.11-12.35S26.67,154.41,15,168.1c0,0-16.12.67-8.61,18.54,0,0-12.49,8.85-1.09,24.55,0,0,17.5,21,37,4H63Z"/><path class="cls-1" d="M270,160.41c14.66-.27,26.27,10.93,15.7,30.38,5,30.17-11.6,28-23,25.5-4.35,6.91-6.53,11-15.33,10.45-13.57-.88-14.83-12.26-14.83-17.5A173.19,173.19,0,0,0,230,187.79c-3.62-20.19-10.8-29.6-10.8-29.6-13.19-20.65-42.7-32.6-80-21.28C102.47,148,98.93,190.49,98.92,194.26c0,4.42-1.37,15.92-1.37,15.92-1.65,13-8.23,17.12-15.33,17.12-9.23.09-12.89-3.73-16.08-11.19,0,0-7.46,5.59-18.66-2.67-11.72-12.26-2.13-21.85-5.06-22.92s-5.06-8.26-4-14.39c1.34-8.88,8.81-11.61,14.17-12.42a27.54,27.54,0,0,1,5.59-.28s21-107.52,103.57-111c78,0,111.75,88.79,108.25,108"/><path class="cls-2" d="M207.82,14.73a8.31,8.31,0,0,0-7.21,12.51L191,35.46a30.78,30.78,0,0,0-7.73-9.28l2.29-3.71a11.51,11.51,0,1,0-3-2l-2.23,3.63a30.4,30.4,0,0,0-31.53-.63l-1.89-3.07a11.53,11.53,0,1,0-2.94,2l1.88,3A30.6,30.6,0,0,0,137.42,35l-8.79-7.48a8.34,8.34,0,1,0-2.49,2.53l9.67,8.24a30.57,30.57,0,1,0,56.68.5L203,29.87a8.22,8.22,0,0,0,4.83,1.56,8.35,8.35,0,0,0,0-16.7Z"/><path class="cls-3" d="M126,119.72a8.7,8.7,0,1,1-8.7-8.7A8.69,8.69,0,0,1,126,119.72Z"/><path class="cls-3" d="M106.14,130a8.71,8.71,0,1,1-8.71-8.7A8.7,8.7,0,0,1,106.14,130Z"/><circle class="cls-3" cx="89.53" cy="149.11" r="7.91"/><path class="cls-4" d="M223,164.87c-57.63-57.1-115.94-.25-115.94-.25s9.79-30.69,58.4-32.06C212,132.83,223,164.87,223,164.87Z"/><path class="cls-5" d="M228.53,180.2c1.08,2.14,4.49-55.76-62.46-55.5s-64.85,55.5-64.85,55.5,7-47.76,64.22-47.64S226.31,175.78,228.53,180.2Z"/><path class="cls-5" d="M82.75,189.1c2.2,12-1.84,14.75-1.84,14.75-6.21,6-12.08-.27-12.08-.27C55.86,206.07,55,190.26,55,190.26c-5.68-5.86.59-11.59.59-11.59L82.75,189.1"/><path class="cls-2" d="M78.33,190.13c1.53,8.39-1.29,10.33-1.29,10.33-4.35,4.17-8.46-.19-8.46-.19C59.5,202,58.88,191,58.88,191c-4-4.11.42-8.12.42-8.12l19,7.3"/><path class="cls-3" d="M202.44,117a8.7,8.7,0,1,0,8.69-8.7A8.69,8.69,0,0,0,202.44,117Z"/><path class="cls-3" d="M222.34,127.27a8.71,8.71,0,1,0,8.7-8.7A8.71,8.71,0,0,0,222.34,127.27Z"/><path class="cls-3" d="M231,146.36a7.91,7.91,0,1,0,7.91-7.91A7.91,7.91,0,0,0,231,146.36Z"/><path class="cls-5" d="M271.94,178.66s7.25,3,1.56,8.84c0,0-.22,17.91-13.19,15.42,0,0-7.42,6.71-13.63.75,0,0-5.11-6.66-1-17.33Z"/><path class="cls-2" d="M268.33,182.79s5.07,2.08,1.09,6.18c0,0-.16,12.54-9.23,10.79,0,0-5.2,4.7-9.55.53,0,0-3.58-4.66-.67-12.13Z"/><path class="cls-6" d="M191.07,72.69a19.54,19.54,0,1,0,19.54-19.54A19.54,19.54,0,0,0,191.07,72.69Z"/><path class="cls-6" d="M226.6,97.38A20.08,20.08,0,1,0,246.68,77.3,20.08,20.08,0,0,0,226.6,97.38Z"/><circle class="cls-6" cx="266.66" cy="135.55" r="19.99" transform="translate(22.59 308.49) rotate(-62.27)"/><path class="cls-6" d="M90.86,174.09a17.95,17.95,0,1,1-17.94-17.94A17.95,17.95,0,0,1,90.86,174.09Z"/><path class="cls-6" d="M137.41,75.45a19.55,19.55,0,1,1-19.54-19.54A19.54,19.54,0,0,1,137.41,75.45Z"/><path class="cls-6" d="M101.88,100.13A20.08,20.08,0,1,1,81.8,80.06,20.08,20.08,0,0,1,101.88,100.13Z"/><circle class="cls-6" cx="61.81" cy="138.3" r="19.99"/><path class="cls-6" d="M237.62,171.34a17.94,17.94,0,1,0,17.94-18A17.94,17.94,0,0,0,237.62,171.34Z"/><circle class="cls-6" cx="139.23" cy="12" r="11.5" transform="translate(5.88 53.81) rotate(-22.33)"/><circle class="cls-6" cx="121.56" cy="23.06" r="8.37" transform="translate(79.28 139.34) rotate(-80.76)"/><circle class="cls-6" cx="190.35" cy="12" r="11.5" transform="translate(4.28 53.88) rotate(-16.29)"/><circle class="cls-6" cx="208.02" cy="23.06" r="8.37" transform="translate(107.5 206.63) rotate(-67.62)"/><circle class="cls-6" cx="164.1" cy="49.55" r="29.89" transform="translate(56.02 182.61) rotate(-67.71)"/><path class="cls-3" d="M205.42,87.52s-1.86-6.94-8.55-5.86-9.32-3.64,3.21-5.41c0,0-3-4.94-14.76-2.7-1.47.12,8.43-2.63,4.89-13.39,0,0-3.5,7-6,6.7s-5.68-2.18.47-8.25c3.08-7.08-7.8-12-9.63-3.65s-5.82,5.26-6.13,1.72-.65-4.81,1.32-6.66-7.67,2-7.81,10.86c-3,1.07-2.12-7.37-10.23-10.52,0,0,5.2,6.92,1.14,9.17s-4.3-8.31-13.65-7.8c-2.55,1.09-5.07,5.35,2.93,14.27,3.1,3.67-10.88,1.84-8.76-2.8,0,0-4.65,5.33,3.52,11.17,3.19,2.26-12.51-2.35-13.28,4,0,0,11.38-.39,9.76,3.24-1,6.37-13.78-1.8-14.39,9.13,2.86,6.72,10.56,3.7,13,3.84s.4,6.45-7.44,5.94a10.8,10.8,0,0,0,12.93,2c.76,1.21-5.61,6.44-4.19,14.26,0,0,7.48-10.14,9.81-3.6,0,0-8.73,9.11-2.1,12.87s9-6.33,10-7.94,7.36.49,2.78,8.24c0,0,6.45.78,7.94-10.88,1.74-.31.61,10,9.66,11,0,0-4-8.23-1.11-9.59,2-.78,5.11,0,5.87,4.82s9.29,4.32,9.52,1.5c0,0,3.19-5.21-4-10.92.06-2.21,4.27-5.84,8.63,1.38s.91-7.62-4.7-12.18c-2-.63,11.07,2,14.25-3-1-1.84-12.16,1.25-9.16-5.34C191.62,90.47,202.9,96.15,205.42,87.52Z"/><circle class="cls-1" cx="162.46" cy="88.82" r="23.63"/><path class="cls-3" d="M160.52,76.55l-12,.16a18.09,18.09,0,0,0-2.66,4l14.74-.2Z"/><path class="cls-3" d="M163.46,80.47l15.39-.2a18.61,18.61,0,0,0-2.75-3.93l-12.7.17Z"/><path class="cls-3" d="M160.48,73.68l0-3.24a18.42,18.42,0,0,0-8.77,3.36Z"/><path class="cls-3" d="M180.09,83.2l-16.6.23.08,5.31-2.89,0-.07-5.31-15.94.21a19.17,19.17,0,0,0-.67,3.73c0,.54,0,1.07,0,1.59l37-.49A18.38,18.38,0,0,0,180.09,83.2Z"/><path class="cls-3" d="M144.23,91.87a18.49,18.49,0,0,0,36.53-.49Z"/><path class="cls-3" d="M163.36,73.64l9.47-.12a18.39,18.39,0,0,0-9-3.15h-.52Z"/><polygon class="cls-1" points="160.47 97.87 160.44 95.14 160.44 95.14 160.44 95.06 157.64 95.1 157.64 95.18 150.55 95.27 150.58 98 157.68 97.91 157.76 103.91 160.56 103.87 160.47 97.87 160.47 97.87"/><polygon class="cls-1" points="174.2 97.68 174.17 94.95 166.91 95.05 166.91 94.97 164.12 95.01 164.24 103.82 167.03 103.79 166.95 97.78 174.2 97.68"/></g></g></g></g></svg>