<svg xmlns="http://www.w3.org/2000/svg" viewBox="0 0 252.63 125.16"><defs><style>.cls-1{fill:#2c282a;}.cls-1,.cls-2,.cls-3{stroke:#231815;stroke-miterlimit:10;}.cls-2{fill:#ceaa87;}.cls-3{fill:#fff;}</style></defs><title>资源 10</title><g id="图层_2" data-name="图层 2"><g id="T-5"><path class="cls-1" d="M252,88.85l-5.87-1.37-3.78,16.15H196V23.79H176.9V.5H79.59V23.79H62.13v79.84H10.25L6.47,87.48.6,88.85l5,21.51v.76H62.13v13.25c19.13-8.37,42.16-13.25,67-13.25S176.9,116,196,124.37V111.12h51.38v-2.54Z"/><path class="cls-2" d="M186.27,95.92A8.43,8.43,0,0,0,175,92.33a163.76,163.76,0,0,0-37-5.7,8.49,8.49,0,0,0-14.65,0,191.86,191.86,0,0,0-40.15,6.09,8.49,8.49,0,0,0-12.27,3.69c-5.62,1.93-8.76,3.36-8.76,3.36V119s65.79-30.13,133.9,0V99.78C192.77,98.34,189.51,97.09,186.27,95.92Z"/><path class="cls-3" d="M137.06,95.15a6,6,0,1,1-6-6A6,6,0,0,1,137.06,95.15Z"/><path class="cls-3" d="M84.94,102.5a6,6,0,1,1-6-6A6,6,0,0,1,84.94,102.5Z"/><path class="cls-3" d="M185.72,102.5a6,6,0,1,1-6-6A6,6,0,0,1,185.72,102.5Z"/><path class="cls-1" d="M62.13,124.37V119S130,88.2,196,119v5.39S132.8,94.28,62.13,124.37Z"/></g></g></svg>