<svg xmlns="http://www.w3.org/2000/svg" viewBox="0 0 307.3 143.59"><defs><style>.cls-1{fill:#2c282a;}.cls-2{fill:none;}.cls-2,.cls-3,.cls-4{stroke:#231815;stroke-miterlimit:10;}.cls-3{fill:#fcd021;}.cls-4{fill:#fff;}</style></defs><title>丑 (3)</title><g id="图层_2" data-name="图层 2"><g id="头饰"><g id="丑"><path class="cls-1" d="M276.94,80.45a30.33,30.33,0,0,0-28.51,20H234.22V51.61h-20C211.27,22.66,184.66,0,152.25,0s-59,22.66-62,51.61H71.8v48.86H58.87a30.36,30.36,0,1,0-1,23.17h14v19h.82c22.17-12.63,49.83-20.15,79.85-20.15s57.68,7.52,79.84,20.15h1.91v-19h15.24a30.35,30.35,0,1,0,27.48-43.19Z"/><line class="cls-2" x1="90.29" y1="51.61" x2="214.2" y2="51.61"/><line class="cls-2" x1="71.8" y1="100.47" x2="71.8" y2="123.64"/><line class="cls-2" x1="234.22" y1="100.47" x2="234.22" y2="123.64"/><path class="cls-3" d="M166.5,101.85c0,3.27-6.28,5.91-14,5.91s-14-2.64-14-5.91,6.28-5.91,14-5.91S166.5,98.59,166.5,101.85Z"/><path class="cls-4" d="M233.79,134.35c-86.94-45.06-161.51,0-161.51,0v8.33s72.21-45.46,161.51,0Z"/><path class="cls-4" d="M32.69,90.91h7v3.26h-7v5H46.17v3.49H32.69v5.11h9.12L53.1,99A25.47,25.47,0,0,0,32.69,85.51Z"/><path class="cls-4" d="M18.31,107.76H28.49v-5.11H14.78V99.16H28.49v-5h-7V90.91h7v-5.4a25.44,25.44,0,0,0-20.7,14Z"/><path class="cls-4" d="M55.2,117.42a24.91,24.91,0,0,0-.74-15.4L45,109.43Z"/><path class="cls-4" d="M6.49,102.67a25,25,0,0,0-.68,14.06l9.34-7.3Z"/><path class="cls-4" d="M42.33,111.51H32.69v7h7v3.26h-7V127H43.53v3H17.05v-3H28.49v-5.25h-7v-3.26h7v-7H17.79L6.84,120.06a25.47,25.47,0,0,0,47.27.65Z"/><path class="cls-4" d="M279.55,90.72h7V94h-7v5H293v3.5H279.55v5.11h9.12L300,98.76a25.47,25.47,0,0,0-20.41-13.44Z"/><path class="cls-4" d="M265.16,107.57h10.19v-5.11H261.63V99h13.72V94h-7V90.72h7v-5.4a25.44,25.44,0,0,0-20.7,14Z"/><path class="cls-4" d="M302.06,117.23a25.11,25.11,0,0,0-.74-15.4l-9.5,7.41Z"/><path class="cls-4" d="M253.34,102.48a24.94,24.94,0,0,0-.68,14l9.35-7.29Z"/><path class="cls-4" d="M289.18,111.32h-9.63v7h7v3.26h-7v5.25h10.83v3H263.9v-3h11.45v-5.25h-7v-3.26h7v-7H264.64l-10.95,8.54a25.47,25.47,0,0,0,47.28.65Z"/></g></g></g></svg>