<svg xmlns="http://www.w3.org/2000/svg" viewBox="0 0 348.14 255.54"><defs><style>.cls-1{fill:#e7e5e5;}.cls-1,.cls-2,.cls-3,.cls-4,.cls-5,.cls-6,.cls-7{stroke:#231815;stroke-miterlimit:10;}.cls-2{fill:#323333;}.cls-3{fill:#f7c2ac;}.cls-4{fill:#f3ada1;}.cls-5{fill:#fdeaba;}.cls-6{fill:#e7674a;}.cls-7{fill:#fff;}</style></defs><title>生</title><g id="图层_2" data-name="图层 2"><g id="头饰"><g id="生"><g id="头饰-生1"><path class="cls-1" d="M266.35,198.69c-13.07-24.31-33.64-47.31-95.87-49.72s-91.25,49.72-91.25,49.72H76.82v-8.12l3.66-4.63s29.54-52.13,91.77-49.72,79.9,25.41,93,49.72l4.4,3.09v8.4Z"/><path class="cls-2" d="M267.2,207.41c-13.06-24.31-33.64-47.31-95.86-49.72s-91.26,49.72-91.26,49.72H77.67v-8.12l3.66-4.63s29.55-52.13,91.77-49.72,79.9,25.41,93,49.72l4.4,3.09v8.4Z"/><path class="cls-3" d="M309.1,178.07l-2.11-6,9-.67-5.05-6.4,4.07-6.75-13.33-37.92,6.76-8.83L300,113.17,271.47,87.7l-3.73-.49-.47-6.3L231.73,59.85l-6.83,9.47-13-14.11H136.24l-13,14.11-6.83-9.47L80.87,80.91l-.47,6.3-3.73.49L48.13,113.17l2.28,4-5.18.42L33.16,158.29,37.22,165l-5,6.4,9,.67-2.12,6H51.39s3.68-50.25,42.66-80.2c25-19.22,156.8-35.7,190.23,26.24,17.66,32.71,8.85,37.17,9.88,43.57l1,6.4,13.9,4"/><path class="cls-4" d="M291.31,198.15s16.3-69.93-28.85-97.34C241.33,88,225.4,81.67,212.07,78.5a10.67,10.67,0,0,0,.6-2.31,33.49,33.49,0,0,1-4.18,1.53c-2.09-.43-4.11-.78-6.08-1.07-.47-2.09.59-4.91,5.32-5.56,5.15-.71,4.73-9.7,1.77-10a5.93,5.93,0,0,0-2-.69,35.47,35.47,0,0,0,6.68-18.12c1.55-20.84-15.52-39.09-38.15-40.78s-42.22,13.82-43.77,34.66a35.91,35.91,0,0,0,7.61,24.75c-6.62-1.45-10.83,8.59-2.61,10.54,8.81,2.09,5.44,6.24,1.7,6.49s-5.08.59-7-1.52c-1.15-1.27-.21,1.93,2.76,4.75-27.19,7.78-58.68,22.66-71.4,44.09-20,33.68-9,71.42-8.86,80.61,0,0-31.15-1.75-24.79,30.7,4.81,17.4,10.53,14,21.33,15.62,0,0,35.3,18.76,29.21-40-4.3-65.19,79.26-75.4,92.94-74.32,0,0,95.59-.5,94,71.34-8.56,56.16,30.66,45.74,30.9,42.5.2-2.6,21.13,9.74,24.07-29.66C322.93,207.79,311.35,191.2,291.31,198.15Z"/><path class="cls-3" d="M85.78,181.53c-6-.55-15.4-2.65-17.39-8.15,0,0-2.72-10.36,1.86-13.19s16.2-3.38,14.45,1.08-3.72,4.42-4.35,4.15,5.4,3.68,7-1.66.69-12.07-1-14.49,3.81-4.3,7.17-2.52,6.48,1,8.16,2-.71-25.62,5.15-25.18,17.16,8.71,19.1,12,2.62-20.45,8.3-22,14.17,10.67,16.94,13.06,8.43-17.72,14.16-14,1.56,12.68,8.21,14.38,3.95-13.36,8.61-14.32,3.52,12.82,6.91,14.17,13.76-16,18.32-15.67,8.11,17.21,9.11,21.43,14.76-13.31,20.22-10.39,5.17,17.1,4,21.59,14.14-2.11,15.76,1.07-3.86,13.59,0,17.91,6.64.39,6.4-.83-2.67-2.38-2.73-1.51,3.59-11.53,15.55-2c0,0,5.33,9-.45,14.82a23.84,23.84,0,0,1-13.83,6.8s-11.5-37.78-88.17-42.28C98.2,142,85.78,181.53,85.78,181.53Z"/><path class="cls-5" d="M120.09,73.46a21.24,21.24,0,1,1-19.6-22.76A21.24,21.24,0,0,1,120.09,73.46Z"/><path class="cls-5" d="M79.49,99.32A19.43,19.43,0,1,1,61.56,78.49,19.43,19.43,0,0,1,79.49,99.32Z"/><path class="cls-5" d="M59.36,140.77a20.27,20.27,0,1,1-18.71-21.72A20.27,20.27,0,0,1,59.36,140.77Z"/><path class="cls-5" d="M39.66,207.61a19.6,19.6,0,1,1-18.09-21A19.59,19.59,0,0,1,39.66,207.61Z"/><path class="cls-5" d="M91.71,122.94a11.19,11.19,0,1,1-10.32-12A11.19,11.19,0,0,1,91.71,122.94Z"/><path class="cls-5" d="M123,101.39a11,11,0,1,1-10.12-11.75A11,11,0,0,1,123,101.39Z"/><path class="cls-5" d="M78.78,153.71a10.38,10.38,0,1,1-9.58-11.13A10.38,10.38,0,0,1,78.78,153.71Z"/><polyline class="cls-6" points="85.55 132.1 93.73 141.61 98.29 138.22 89.82 128.38"/><polygon class="cls-6" points="113.53 111.68 120.69 124.81 125.84 122.26 119.42 108.72 113.53 111.68"/><path class="cls-5" d="M72.24,196.49a20.91,20.91,0,1,1-19.3-22.41A20.91,20.91,0,0,1,72.24,196.49Z"/><path class="cls-6" d="M59.77,228.77l-1.93-3.42L37.26,222.6a8,8,0,0,0-15.44-2.07l-4.64-.62-.42,5.65,5.21.73a8,8,0,0,0,13.61,1.9l8,1.12-8.45,4.85a8.57,8.57,0,1,0,2.09,6.27,5.56,5.56,0,0,0,0-.71Z"/><path class="cls-5" d="M228.05,73.46a21.24,21.24,0,1,0,19.6-22.76A21.24,21.24,0,0,0,228.05,73.46Z"/><path class="cls-5" d="M268.64,99.32a19.43,19.43,0,1,0,17.93-20.83A19.44,19.44,0,0,0,268.64,99.32Z"/><path class="cls-5" d="M288.78,140.77a20.27,20.27,0,1,0,18.71-21.72A20.26,20.26,0,0,0,288.78,140.77Z"/><path class="cls-5" d="M308.48,207.61a19.6,19.6,0,1,0,18.09-21A19.59,19.59,0,0,0,308.48,207.61Z"/><path class="cls-5" d="M225.11,101.39a11,11,0,1,0,10.12-11.75A11,11,0,0,0,225.11,101.39Z"/><path class="cls-5" d="M269.35,153.71a10.39,10.39,0,1,0,9.59-11.13A10.4,10.4,0,0,0,269.35,153.71Z"/><path class="cls-5" d="M257.35,124a10.39,10.39,0,1,0,9.59-11.13A10.41,10.41,0,0,0,257.35,124Z"/><polyline class="cls-6" points="262.59 132.1 254.41 141.61 249.85 138.22 258.32 128.38"/><polygon class="cls-6" points="234.61 111.68 227.45 124.81 222.3 122.26 228.71 108.72 234.61 111.68"/><path class="cls-5" d="M275.9,196.49a20.91,20.91,0,1,0,19.3-22.41A20.91,20.91,0,0,0,275.9,196.49Z"/><path class="cls-6" d="M288.37,228.77l1.93-3.42,20.58-2.75a8,8,0,0,1,15.44-2.07l4.64-.62.42,5.65-5.21.73a8,8,0,0,1-13.61,1.9l-8,1.12,8.45,4.85a8.57,8.57,0,1,1-2.09,6.27c0-.24,0-.48,0-.71Z"/><path class="cls-7" d="M107.91,145.91a7.46,7.46,0,1,1-6.89-8A7.46,7.46,0,0,1,107.91,145.91Z"/><path class="cls-7" d="M134.31,131.73a8.28,8.28,0,1,1-7.64-8.87A8.28,8.28,0,0,1,134.31,131.73Z"/><path class="cls-7" d="M157.53,125.11a8.3,8.3,0,1,1-7.66-8.89A8.31,8.31,0,0,1,157.53,125.11Z"/><path class="cls-7" d="M104.26,146.07a3.49,3.49,0,1,1-3.22-3.73A3.49,3.49,0,0,1,104.26,146.07Z"/><path class="cls-7" d="M129.87,130.74a3.55,3.55,0,1,1-3.28-3.81A3.55,3.55,0,0,1,129.87,130.74Z"/><path class="cls-7" d="M153.5,124.39a3.74,3.74,0,1,1-3.45-4A3.74,3.74,0,0,1,153.5,124.39Z"/><path class="cls-7" d="M240.23,145.91a7.46,7.46,0,1,0,6.89-8A7.46,7.46,0,0,0,240.23,145.91Z"/><path class="cls-7" d="M213.83,131.73a8.28,8.28,0,1,0,7.64-8.87A8.28,8.28,0,0,0,213.83,131.73Z"/><path class="cls-7" d="M190.61,125.11a8.3,8.3,0,1,0,7.66-8.89A8.31,8.31,0,0,0,190.61,125.11Z"/><path class="cls-7" d="M243.88,146.07a3.49,3.49,0,1,0,3.22-3.73A3.49,3.49,0,0,0,243.88,146.07Z"/><path class="cls-7" d="M218.27,130.74a3.55,3.55,0,1,0,3.28-3.81A3.55,3.55,0,0,0,218.27,130.74Z"/><path class="cls-7" d="M194.64,124.39a3.74,3.74,0,1,0,3.45-4A3.74,3.74,0,0,0,194.64,124.39Z"/><circle class="cls-5" cx="173.04" cy="42.48" r="41.98"/><path class="cls-4" d="M172.18,40.14S164.83,42,165.83,49s-4,9.75-5.64-3.48c0,0-5.25,3.1-3.12,15.49.1,1.54-2.61-8.93-14-5.41,0,0,7.37,3.82,6.95,6.42s-2.41,5.93-8.69-.65c-7.39-3.4-12.83,8-4,10.06S142.72,77.7,139,78s-5.08.59-7-1.52,1.91,8.12,11.28,8.43c1.08,3.2-7.8,2.1-11.27,10.58,0,0,7.39-5.35,9.69-1s-8.85,4.37-8.49,14.23c1.11,2.7,5.54,5.43,15.09-2.81,3.93-3.2,1.73,11.49-3.12,9.16,0,0,5.53,5,11.84-3.48,2.44-3.32-2.72,13.12,4,14.06,0,0-.2-12,3.6-10.22,6.69,1.15-2.17,14.48,9.34,15.34,7.14-2.9,4.1-11.06,4.3-13.67s6.8-.29,6.11,8a11.37,11.37,0,0,0,2.4-13.58c1.29-.78,6.68,6,14.94,4.68,0,0-10.54-8.07-3.6-10.39,0,0,9.43,9.37,13.51,2.46s-6.49-9.66-8.16-10.65.65-7.75,8.73-2.77c0,0,.94-6.78-11.3-8.57-.31-1.84,10.51-.45,11.81-10,0,0-8.75,4-10.13,1-.78-2.09.05-5.38,5.19-6.09s4.73-9.7,1.77-10c0,0-5.42-3.46-11.59,4-2.32-.1-6.06-4.6,1.62-9s-8-1.11-12.91,4.71c-.71,2.14,2.29-11.62-2.84-15.06-2,1,1.08,12.82-5.81,9.54C175,54.74,181.22,43,172.18,40.14Z"/><path class="cls-5" d="M169.6,70.06l-15.54.21a23.76,23.76,0,0,0-3.43,5.16l19-.25Z"/><path class="cls-5" d="M173.39,75.13l19.89-.27a24,24,0,0,0-3.56-5.07l-16.4.22Z"/><path class="cls-5" d="M169.55,66.35l-.06-4.18a23.74,23.74,0,0,0-11.33,4.34Z"/><path class="cls-5" d="M194.87,78.65l-21.43.29.1,6.86-3.73,0L169.72,79l-20.58.28a23.71,23.71,0,0,0-.86,4.82c-.05.69-.06,1.37-.05,2L196,85.5A23.34,23.34,0,0,0,194.87,78.65Z"/><path class="cls-5" d="M148.57,89.84a23.87,23.87,0,0,0,47.17-.63Z"/><path class="cls-5" d="M173.27,66.3l12.23-.16a23.7,23.7,0,0,0-11.61-4.06c-.23,0-.45,0-.67,0Z"/><polygon class="cls-4" points="169.55 97.59 169.5 94.06 169.5 94.06 169.5 93.96 165.89 94.01 165.89 94.11 156.73 94.23 156.77 97.76 165.94 97.64 166.05 105.39 169.65 105.34 169.54 97.59 169.55 97.59"/><polygon class="cls-4" points="187.28 97.35 187.23 93.82 177.86 93.95 177.86 93.85 174.25 93.89 174.41 105.28 178.01 105.23 177.91 97.47 187.28 97.35"/><circle class="cls-5" cx="29.6" cy="222.88" r="8.05" transform="translate(-195.14 216.4) rotate(-80.78)"/><circle class="cls-5" cx="28.18" cy="239.66" r="8.6"/><circle class="cls-5" cx="318.81" cy="223.14" r="8.05"/><circle class="cls-5" cx="320.23" cy="239.93" r="8.6"/></g></g></g></g></svg>