<svg xmlns="http://www.w3.org/2000/svg" viewBox="0 0 281.44 214.76"><defs><style>.cls-1{fill:#e5a59b;}.cls-1,.cls-2,.cls-3,.cls-4,.cls-5,.cls-6,.cls-7,.cls-8{stroke:#231815;stroke-miterlimit:10;}.cls-2{fill:#313333;}.cls-3{fill:#f7dae3;}.cls-4{fill:#f6e3b6;}.cls-5{fill:#dd645c;}.cls-6{fill:#edbca7;}.cls-7{fill:#fff;}.cls-8{fill:#f9ddc1;}</style></defs><title>旦</title><g id="图层_2" data-name="图层 2"><g id="头饰"><g id="旦"><g id="旦3"><path class="cls-1" d="M55.38,143.36s-4.68-3.22-5.39-3.44,3.22-1.39,3.85-2.47-3.58-4.93-3-4.84,9.06-3.67,11-2.87l.68-20.56s-6-2.43-5.52-3.31,3.85-.73,3.94-1.47-3.14-1.91-3-2.71S69.47,99.52,70.31,100s8.27-16.13,8.27-16.13-1.72-5.82-1.25-6.58,4.21,2.14,5,1.74-.68-4.37,0-4.78,4.66,2.52,5.63,3,17.71-10.84,17.71-10.84-1.27-3.81-.6-4.39,8.08,1.54,8.15,1.71S168,65.38,168,65.38s7.12-2.41,8.33-1.61.54,3.46,0,4.69,17.09,12,17.09,12,4.11-2.61,5.39-3.15-1.06,2.48,0,3.42,3.88-2.62,4.69-1.31-.69,5.35-.82,6.76,14.83,16.6,14.83,16.6,5.62.4,6.16.81-3.23,1.25-2.83,2.3,3.23,2,3.36,2.7-5.36,2.68-5.1,3.08,5.11,19.6,5.11,19.6,6.45,2.37,6.72,3.82-3.36,2.14-3.36,3.81,2.85,1.5,3.37,2.46-4.88,4-5.33,4.85c-.15.27-9.46,2-18.27,19.5-34.46-41.89-65.93-45-110.69-35.71C83.35,132.72,80.92,195.81,55.38,143.36Z"/><path class="cls-2" d="M139.55,136.86c-8.6,0-13.44-8.66-13.44-8.66,4,19.84-16.81,14.93-16.81,14.93-.09,17.43-21.52,14-21.52,14C79,186,91.83,214,91.83,214c-19.81-6-17.5-70.82-17.5-70.82s65.44-67.85,130.45,0c0,0,2.89,64.32-17.54,70.82,0,0,12.55-29.74,4.08-56.78,0,0-21.43,3.39-21.51-14,0,0-20.84,4.91-16.81-14.93,0,0-4.84,8.7-13.45,8.66"/><path class="cls-3" d="M138.64.48s-9,2.78-9.23,10.31c0,0-14.79-7.53-16.85,5.38-.9,6.63,8,7.35,8,7.35s-7.44,18.19,18.1,15.68"/><path class="cls-3" d="M138.64.48s9,2.78,9.24,10.31c0,0,14.79-7.53,16.85,5.38.9,6.63-8,7.35-8,7.35s7.44,18.19-18.11,15.68"/><path class="cls-1" d="M138.64,3.88S127,11.41,134.4,22.8c3.62,4.84-4.45,9-5.53,3.41,0-2.69,4.41-12.95-4.93-14s-9.32,10.37-2.69,7.74c2.69-1.2,2.15-4.69,2.15-4.69s5.74,2.51.27,10c-2.6,3.65-2.33,11.92,15,12.19"/><path class="cls-1" d="M138.64,3.88s11.62,7.53,4.24,18.92c-3.61,4.84,4.46,9,5.54,3.41,0-2.69-4.41-12.95,4.93-14S162.67,22.59,156,20c-2.68-1.2-2.15-4.69-2.15-4.69s-5.73,2.51-.27,10c2.6,3.65,2.34,11.92-15,12.19"/><path class="cls-4" d="M212.53,48.39s42.16-25.5,67.84.72c0,0,5.38,10.89-16.81,2.15s-39.11,2.09-44.5,6.16Z"/><path class="cls-4" d="M68.91,46.34s-42.15-25.5-67.84.72c0,0-5.38,10.89,16.81,2.15s39.12,2.1,44.5,6.16Z"/><circle class="cls-5" cx="140.57" cy="62.06" r="27.39"/><path class="cls-3" d="M200.53,54.78s6.33-9,17.45-5.63c0,0,5.17,10.43-7.08,17.3Z"/><path class="cls-1" d="M202.13,57s8-7,11.6-3.19c.69.84,1.29,5.43-4.61,11.08Z"/><path class="cls-3" d="M80.92,52.74s-6.34-9-17.45-5.63c0,0-5.17,10.42,7.07,17.29Z"/><path class="cls-1" d="M79.31,54.94s-8-6.95-11.59-3.19c-.69.85-1.29,5.44,4.6,11.08Z"/><rect class="cls-6" x="65.63" y="125.79" width="16.94" height="3.13" rx="1.56" transform="translate(73.6 -19.99) rotate(30)"/><rect class="cls-6" x="80.07" y="108.48" width="19.5" height="3.13" rx="1.56" transform="translate(97.71 -31.79) rotate(42.41)"/><rect class="cls-6" x="98.47" y="94.5" width="19.5" height="3.13" rx="1.56" transform="translate(152.23 -41.79) rotate(66.11)"/><rect class="cls-6" x="76.56" y="115.6" width="18.17" height="3.13" rx="1.56" transform="translate(124.43 -22.69) rotate(51.67)"/><rect class="cls-6" x="73.21" y="122.24" width="18.17" height="3.13" rx="1.56" transform="translate(30.31 -15.47) rotate(13.15)"/><rect class="cls-6" x="93.84" y="98.67" width="18.17" height="3.13" rx="1.56" transform="translate(138.27 -39.03) rotate(60)"/><rect class="cls-6" x="88.29" y="104.31" width="18.17" height="3.13" rx="1.56" transform="translate(61.98 -33.55) rotate(28.36)"/><rect class="cls-6" x="198.49" y="127.74" width="16.94" height="3.13" rx="1.56" transform="translate(450.84 137.81) rotate(150)"/><rect class="cls-6" x="181.49" y="110.43" width="19.5" height="3.13" rx="1.56" transform="translate(407.97 65.71) rotate(137.59)"/><rect class="cls-6" x="163.09" y="96.45" width="19.5" height="3.13" rx="1.56" transform="translate(332.45 -20.32) rotate(113.89)"/><rect class="cls-6" x="186.33" y="117.56" width="18.17" height="3.13" rx="1.56" transform="translate(410.06 39.72) rotate(128.33)"/><rect class="cls-6" x="189.68" y="124.19" width="18.17" height="3.13" rx="1.56" transform="translate(420.93 203.01) rotate(166.85)"/><rect class="cls-6" x="169.05" y="100.62" width="18.17" height="3.13" rx="1.56" transform="translate(355.69 -0.99) rotate(120)"/><rect class="cls-6" x="174.6" y="106.27" width="18.17" height="3.13" rx="1.56" transform="translate(396.54 115.46) rotate(151.64)"/><path class="cls-3" d="M80,148.55s6.59-4.24,5.24,5.11c0,0,6.79,11.43,1.35,18.82s-14.26,9-18.7,6.59-9.27-11.23-9.9-14.23c0,0-4.26-.18-4.84-2.69s.89-6.54,5.83-6.14c0,0-.18-5-.5-4.93s-3.27,3.57-3.4,4.75-2.85-2.3-3.05-5.83,2.62-10.08,11.16-6.27c0,0,1.39-4.31-2.42-2.65s-2.83-5.91-.07-6.58,12.37-2.69,10.76,10.15c-1.41,9.58-7.06,16-1.88,15.43,1.31-.1-.24-3.47.33-5.11s2.49-1.82,4.54-4.68S79.55,147.91,80,148.55Z"/><path class="cls-1" d="M75.67,154.44s.18-3.9,4.8-3.41c1.43.18,2.55-.71,1.34,3.41,0,0,3.76,2.15,3.41,9.28s-2,8.74-7.26,11.92S63,174.43,62.45,166.81c0,0-1.09-5.66-5.76-5.05-1.75.23-.41-5.35,5-1,0,0,2.64-9.57-1.84-11.94-1.75-.81-3.85-.58-4.35.49s-.44-7.93,8.16-1.25c.55.53,5.13-6.32-1.11-10.63-1.58-1.7,6.85-2.42,6.76,4.4s-7.26,18-3.5,23.66,12.28,4.75,14.17-2c.76-2.6-2.47-6.32-2.47-3.41s-4.53,5.16-7.62,2.74c-1.39-1.21,3-3.05,4.71-2.42s3.94-6,1.12-4.66-3.11,1.21-3.68.49S72.8,154,75.67,154.44Z"/><path class="cls-3" d="M197.59,148.55s-6.59-4.24-5.24,5.11c0,0-6.79,11.43-1.35,18.82s14.26,9,18.69,6.59,9.28-11.23,9.91-14.23c0,0,4.26-.18,4.84-2.69s-.9-6.54-5.83-6.14c0,0,.18-5,.5-4.93s3.27,3.57,3.4,4.75,2.85-2.3,3.05-5.83-2.62-10.08-11.16-6.27c0,0-1.39-4.31,2.42-2.65s2.82-5.91.07-6.58-12.37-2.69-10.76,10.15c1.41,9.58,7.06,16,1.88,15.43-1.31-.1.24-3.47-.33-5.11s-2.49-1.82-4.54-4.68S198.06,147.91,197.59,148.55Z"/><path class="cls-1" d="M201.94,154.44s-.18-3.9-4.8-3.41c-1.43.18-2.55-.71-1.34,3.41,0,0-3.77,2.15-3.41,9.28s2,8.74,7.26,11.92,14.93-1.21,15.51-8.83c0,0,1.09-5.66,5.76-5.05,1.75.23.41-5.35-5-1,0,0-2.64-9.57,1.84-11.94,1.75-.81,3.85-.58,4.35.49s.44-7.93-8.16-1.25c-.55.53-5.13-6.32,1.11-10.63,1.58-1.7-6.85-2.42-6.76,4.4s7.26,18,3.5,23.66-12.28,4.75-14.17-2c-.76-2.6,2.47-6.32,2.47-3.41s4.52,5.16,7.62,2.74c1.39-1.21-3-3.05-4.71-2.42s-3.94-6-1.12-4.66,3.1,1.21,3.68.49S204.81,154,201.94,154.44Z"/><path class="cls-6" d="M139.18,114.93c-21.24,0-24.2,5.45-41.27,20.82s-26.1,8.83-25.83,2.45,4.2-7.69,4.2-7.69,4.63-2.08,6.29.21c1.12,1.49-4.17,3.86-2.78,5s4.35-.28,8-8.7,25-30.93,51.1-30.5"/><path class="cls-6" d="M139.18,114.93c21.25,0,24.21,5.45,41.27,20.82s26.1,8.83,25.83,2.45-4.19-7.69-4.19-7.69-4.64-2.08-6.3.21c-1.12,1.49,4.17,3.86,2.78,5s-4.35-.28-8-8.7-25-30.93-51.1-30.5"/><circle class="cls-7" cx="102.2" cy="98.59" r="4.17"/><circle class="cls-7" cx="95.63" cy="104.4" r="4.17"/><circle class="cls-7" cx="85.27" cy="115.81" r="4.17"/><path class="cls-7" d="M83.17,119.72a4.17,4.17,0,1,1-5.88.43A4.17,4.17,0,0,1,83.17,119.72Z"/><path class="cls-7" d="M182.17,97.07a4.17,4.17,0,1,1-5.88.43A4.17,4.17,0,0,1,182.17,97.07Z"/><circle class="cls-7" cx="185.76" cy="106.93" r="4.17" transform="translate(-7.79 14.85) rotate(-4.48)"/><circle class="cls-7" cx="196.08" cy="117.41" r="4.17" transform="translate(72.52 309.67) rotate(-88.19)"/><circle class="cls-7" cx="200.81" cy="124.95" r="4.17" transform="translate(-3.58 5.95) rotate(-1.68)"/><path class="cls-7" d="M101,139.92a3.13,3.13,0,1,1-3.13-3.14A3.13,3.13,0,0,1,101,139.92Z"/><path class="cls-7" d="M102.93,146.86a3.14,3.14,0,1,1-3.13-3.13A3.13,3.13,0,0,1,102.93,146.86Z"/><path class="cls-7" d="M118,128.8a3.14,3.14,0,1,1-3.13-3.14A3.13,3.13,0,0,1,118,128.8Z"/><path class="cls-7" d="M119.87,135.75a3.14,3.14,0,1,1-3.14-3.14A3.14,3.14,0,0,1,119.87,135.75Z"/><path class="cls-7" d="M180.16,142.37a3.14,3.14,0,1,0,3.14-3.13A3.14,3.14,0,0,0,180.16,142.37Z"/><circle class="cls-7" cx="181.41" cy="149.32" r="3.13"/><path class="cls-7" d="M163.22,131.25a3.14,3.14,0,1,0,3.14-3.13A3.15,3.15,0,0,0,163.22,131.25Z"/><circle class="cls-7" cx="164.47" cy="138.2" r="3.13"/><path class="cls-7" d="M132.7,116.11a2.3,2.3,0,1,1-2.29-2.28A2.3,2.3,0,0,1,132.7,116.11Z"/><ellipse class="cls-7" cx="129.83" cy="120.67" rx="2.37" ry="2.39"/><ellipse class="cls-7" cx="131.76" cy="125.07" rx="2.37" ry="2.39"/><path class="cls-7" d="M137.84,127.86a2.38,2.38,0,1,1-2.38-2.39A2.39,2.39,0,0,1,137.84,127.86Z"/><path class="cls-7" d="M142.75,128.33a2.38,2.38,0,1,1-2.38-2.39A2.39,2.39,0,0,1,142.75,128.33Z"/><ellipse class="cls-7" cx="144.95" cy="126.19" rx="2.37" ry="2.39"/><ellipse class="cls-7" cx="147.33" cy="121.76" rx="2.37" ry="2.39"/><path class="cls-7" d="M150,116.68a2.38,2.38,0,1,1-2.38-2.39A2.38,2.38,0,0,1,150,116.68Z"/><path class="cls-7" d="M126.09,66.45S127,59,138.92,59s12.88,6.9,12.88,6.9,6.94-2.59,12.8,9.28,0,12.4,0,12.4,4.79,2.34-.5,13.64-11.83,7.94-11.83,7.94.56,5.45-13.09,5.75S127,109.11,127,109.11s-6.3,4.48-12.15-7.42-.75-13.45-.75-13.45-5.44-5,1-15S126.09,66.45,126.09,66.45Z"/><path class="cls-8" d="M128.39,69.94s.75-6.17,10.64-6.17,10.69,5.73,10.69,5.73,5.76-2.15,10.63,7.7,0,10.29,0,10.29,4,2-.42,11.32-9.82,6.59-9.82,6.59.47,4.53-10.86,4.78-10.11-4.83-10.11-4.83-5.23,3.71-10.09-6.16S118.44,88,118.44,88s-4.52-4.18.83-12.44S128.39,69.94,128.39,69.94Z"/><circle class="cls-7" cx="139.4" cy="87.6" r="12.4"/><circle class="cls-5" cx="139.38" cy="87.73" r="8.24" transform="translate(-21.21 124.25) rotate(-45)"/><path class="cls-5" d="M205,70.28s6.3-1.56,6.31-2.64c0-2.67-9.78-13-11.12-13-.44,0-3.75,5.09-3.7,7.24C196.65,62,205,70.28,205,70.28Z"/><path class="cls-5" d="M76.49,68.23s-6.3-1.55-6.31-2.64c0-2.66,9.78-13,11.12-13,.45,0,3.76,5.08,3.7,7.23C84.79,59.93,76.49,68.23,76.49,68.23Z"/><path class="cls-5" d="M199.6,74.65s6.3-1.55,6.31-2.63c0-2.67-9.78-13-11.12-13-.45,0-3.76,5.08-3.7,7.23C191.3,66.35,199.6,74.65,199.6,74.65Z"/><path class="cls-5" d="M81.85,72.6S75.54,71.05,75.54,70c0-2.67,9.78-13,11.11-13,.45,0,3.76,5.09,3.71,7.24C90.15,64.31,81.85,72.6,81.85,72.6Z"/><path class="cls-5" d="M193.74,79.4s5.86-1.65,6.31-2.64-10.67-13-11.12-13-2.42,4.51-2.21,4.61S193.74,79.4,193.74,79.4Z"/><path class="cls-5" d="M87.7,77.35s-5.86-1.65-6.31-2.63,10.67-13,11.12-13,2.43,4.51,2.21,4.62S87.7,77.35,87.7,77.35Z"/><circle class="cls-5" cx="100.07" cy="77.29" r="12.15" transform="translate(-22.73 47.15) rotate(-23.89)"/><circle class="cls-5" cx="181.59" cy="79.4" r="12.15" transform="translate(62.97 238.17) rotate(-76.85)"/><circle class="cls-6" cx="138.92" cy="119.37" r="6.29" transform="translate(-9.31 226.96) rotate(-76.65)"/><circle class="cls-5" cx="75.77" cy="95.7" r="12.15" transform="translate(-34.65 147.71) rotate(-76.85)"/><circle class="cls-5" cx="62.59" cy="121.33" r="12.15"/><circle class="cls-5" cx="206.41" cy="97.71" r="12.15" transform="translate(73.79 283.63) rotate(-79.83)"/><circle class="cls-5" cx="218.06" cy="121.19" r="12.15"/></g></g></g></g></svg>