<svg xmlns="http://www.w3.org/2000/svg" viewBox="0 0 308.3 144.09"><defs><style>.cls-1{fill:#f3ada1;}.cls-1,.cls-2,.cls-3,.cls-4{stroke:#231815;stroke-miterlimit:10;}.cls-2{fill:none;}.cls-3{fill:#fcd021;}.cls-4{fill:#fff;}</style></defs><title>丑</title><g id="图层_2" data-name="图层 2"><g id="头饰"><g id="丑"><path class="cls-1" d="M277.44,81a30.33,30.33,0,0,0-28.51,20H234.72V52.11h-20C211.77,23.16,185.16.5,152.75.5s-59,22.66-62,51.61H72.3V101H59.37a30.36,30.36,0,1,0-1,23.17h14v19h.82C95.29,130.55,123,123,153,123s57.68,7.52,79.84,20.15h1.91v-19H250A30.35,30.35,0,1,0,277.44,81Z"/><line class="cls-2" x1="90.79" y1="52.11" x2="214.7" y2="52.11"/><line class="cls-2" x1="72.3" y1="100.97" x2="72.3" y2="124.14"/><line class="cls-2" x1="234.72" y1="100.97" x2="234.72" y2="124.14"/><path class="cls-3" d="M167,102.35c0,3.27-6.28,5.91-14,5.91s-14-2.64-14-5.91,6.28-5.91,14-5.91S167,99.09,167,102.35Z"/><path class="cls-4" d="M234.29,134.85c-86.94-45.06-161.51,0-161.51,0v8.33s72.21-45.46,161.51,0Z"/><path class="cls-4" d="M33.19,91.41h7v3.26h-7v5H46.67v3.49H33.19v5.11h9.12L53.6,99.45A25.47,25.47,0,0,0,33.19,86Z"/><path class="cls-4" d="M18.81,108.26H29v-5.11H15.28V99.66H29v-5H22V91.41h7V86a25.44,25.44,0,0,0-20.7,14Z"/><path class="cls-4" d="M55.7,117.92a24.91,24.91,0,0,0-.74-15.4l-9.49,7.41Z"/><path class="cls-4" d="M7,103.17a25,25,0,0,0-.68,14.06l9.34-7.3Z"/><path class="cls-4" d="M42.83,112H33.19v7h7v3.26h-7v5.25H44v3H17.55v-3H29v-5.25H22V119h7v-7H18.29L7.34,120.56a25.47,25.47,0,0,0,47.27.65Z"/><path class="cls-4" d="M280.05,91.22h7v3.26h-7v5h13.48V103H280.05v5.11h9.12l11.29-8.81a25.47,25.47,0,0,0-20.41-13.44Z"/><path class="cls-4" d="M265.66,108.07h10.19V103H262.13v-3.5h13.72v-5h-7V91.22h7v-5.4a25.44,25.44,0,0,0-20.7,14Z"/><path class="cls-4" d="M302.56,117.73a25.11,25.11,0,0,0-.74-15.4l-9.5,7.41Z"/><path class="cls-4" d="M253.84,103a24.94,24.94,0,0,0-.68,14l9.35-7.29Z"/><path class="cls-4" d="M289.68,111.82h-9.63v7h7V122h-7v5.25h10.83v3H264.4v-3h11.45V122h-7v-3.26h7v-7H265.14l-10.95,8.54a25.47,25.47,0,0,0,47.28.65Z"/></g></g></g></svg>