<svg xmlns="http://www.w3.org/2000/svg" viewBox="0 0 304.64 223.64"><defs><style>.cls-1{fill:#e7e5e5;}.cls-1,.cls-2,.cls-3,.cls-4,.cls-5,.cls-6,.cls-7{stroke:#231815;stroke-miterlimit:10;}.cls-2{fill:#323333;}.cls-3{fill:#d2e8ec;}.cls-4{fill:#9ed6dc;}.cls-5{fill:#e8e9cc;}.cls-6{fill:#e7674a;}.cls-7{fill:#fff;}</style></defs><title>生 (4)</title><g id="图层_2" data-name="图层 2"><g id="头饰"><g id="生"><g id="头饰-生1"><path class="cls-1" d="M233,173.85c-11.43-21.26-29.42-41.38-83.85-43.49s-79.82,43.49-79.82,43.49H67.25v-7.1l3.2-4.05s25.85-45.6,80.27-43.49S220.61,141.44,232,162.7l3.85,2.7v7.35Z"/><path class="cls-2" d="M233.78,181.48c-11.43-21.26-29.43-41.38-83.85-43.49s-79.82,43.49-79.82,43.49H68v-7.1l3.2-4s25.84-45.6,80.27-43.49,69.89,22.23,81.32,43.49l3.85,2.7v7.34Z"/><path class="cls-3" d="M270.43,155.81l-1.85-5.21,7.86-.58-4.42-5.6,3.55-5.9-11.65-33.18,5.91-7.71-7.36,1.42-25-22.28-3.26-.43-.41-5.5L202.75,52.41l-6,8.29L185.4,48.36H119.23L107.86,60.7l-6-8.29L70.79,70.84l-.41,5.5-3.26.43-25,22.28,2,3.49-4.54.36L29.06,138.52l3.56,5.9L28.2,150l7.86.58-1.85,5.21H45s3.22-43.94,37.31-70.14c21.87-16.81,137.15-31.23,166.4,23,15.45,28.61,7.74,32.51,8.64,38.11l.91,5.6,12.16,3.48"/><path class="cls-4" d="M254.87,173.38s14.25-61.17-25.24-85.14C211.15,77,197.22,71.5,185.56,68.73a9.61,9.61,0,0,0,.52-2A29.53,29.53,0,0,1,182.42,68q-2.73-.56-5.32-.94c-.41-1.82.52-4.29,4.66-4.86,4.51-.61,4.14-8.48,1.55-8.74a5.2,5.2,0,0,0-1.74-.6,30.89,30.89,0,0,0,5.85-15.85c1.36-18.22-13.58-34.19-33.37-35.67s-36.93,12.1-38.29,30.32a31.48,31.48,0,0,0,6.66,21.65c-5.79-1.27-9.47,7.51-2.28,9.22,7.7,1.83,4.76,5.45,1.49,5.67s-4.45.52-6.12-1.33c-1-1.11-.18,1.69,2.41,4.16-23.78,6.8-51.32,19.82-62.44,38.56C38,139.09,47.56,172.1,47.73,180.14c0,0-27.26-1.53-21.69,26.85,4.21,15.22,9.21,12.23,18.66,13.66,0,0,30.88,16.41,25.55-35-3.77-57,69.32-65.95,81.29-65,0,0,83.61-.44,82.22,62.39-7.48,49.13,26.83,40,27,37.18.17-2.27,18.47,8.52,21.05-25.94C282.52,181.82,272.39,167.3,254.87,173.38Z"/><path class="cls-3" d="M75.09,158.84c-5.21-.48-13.46-2.31-15.21-7.13,0,0-2.38-9.06,1.63-11.53s14.17-3,12.63.94-3.25,3.87-3.8,3.63,4.72,3.22,6.12-1.45.61-10.56-.86-12.68,3.34-3.76,6.28-2.2,5.66.9,7.13,1.77-.62-22.4,4.51-22,15,7.62,16.7,10.52,2.29-17.89,7.26-19.24,12.4,9.34,14.82,11.43,7.37-15.5,12.38-12.26,1.37,11.09,7.18,12.57,3.46-11.68,7.53-12.53,3.08,11.22,6.05,12.4,12-14,16-13.71,7.1,15.06,8,18.75,12.91-11.65,17.68-9.09,4.53,14.95,3.47,18.89,12.37-1.85,13.78.93-3.37,11.88,0,15.67,5.8.34,5.6-.73-2.34-2.08-2.39-1.32,3.14-10.09,13.6-1.76c0,0,4.67,7.9-.39,13a20.82,20.82,0,0,1-12.1,5.94s-10.06-33-77.12-37C86,124.24,75.09,158.84,75.09,158.84Z"/><path class="cls-5" d="M105.11,64.32A18.58,18.58,0,1,1,88,44.41,18.6,18.6,0,0,1,105.11,64.32Z"/><path class="cls-5" d="M69.59,86.93A17,17,0,1,1,53.91,68.72,17,17,0,0,1,69.59,86.93Z"/><path class="cls-5" d="M52,123.19a17.73,17.73,0,1,1-16.36-19A17.72,17.72,0,0,1,52,123.19Z"/><path class="cls-5" d="M34.76,181.65a17.15,17.15,0,1,1-15.83-18.38A17.16,17.16,0,0,1,34.76,181.65Z"/><path class="cls-5" d="M80.28,107.6a9.78,9.78,0,1,1-9-10.49A9.77,9.77,0,0,1,80.28,107.6Z"/><path class="cls-5" d="M107.68,88.75a9.59,9.59,0,1,1-8.86-10.28A9.6,9.6,0,0,1,107.68,88.75Z"/><path class="cls-5" d="M69,134.51a9.09,9.09,0,1,1-8.38-9.73A9.08,9.08,0,0,1,69,134.51Z"/><polyline class="cls-6" points="74.89 115.61 82.05 123.92 86.03 120.96 78.62 112.35"/><polygon class="cls-6" points="99.36 97.74 105.62 109.23 110.14 107 104.52 95.16 99.36 97.74"/><path class="cls-5" d="M63.25,171.93a18.29,18.29,0,1,1-16.88-19.6A18.29,18.29,0,0,1,63.25,171.93Z"/><path class="cls-6" d="M52.34,200.17l-1.68-3-18-2.4A7,7,0,0,0,19.15,193l-4.06-.54-.37,4.93,4.56.64a7,7,0,0,0,11.9,1.67l7,1-7.39,4.23a7.5,7.5,0,1,0,1.83,5.49c0-.21,0-.41,0-.62Z"/><path class="cls-5" d="M199.53,64.32a18.58,18.58,0,1,0,17.14-19.91A18.59,18.59,0,0,0,199.53,64.32Z"/><path class="cls-5" d="M235,86.93a17,17,0,1,0,15.68-18.21A17,17,0,0,0,235,86.93Z"/><path class="cls-5" d="M252.65,123.19a17.73,17.73,0,1,0,16.37-19A17.73,17.73,0,0,0,252.65,123.19Z"/><path class="cls-5" d="M269.88,181.65a17.15,17.15,0,1,0,15.83-18.38A17.15,17.15,0,0,0,269.88,181.65Z"/><path class="cls-5" d="M197,88.75a9.59,9.59,0,1,0,8.85-10.28A9.6,9.6,0,0,0,197,88.75Z"/><path class="cls-5" d="M235.66,134.51a9.09,9.09,0,1,0,8.39-9.73A9.09,9.09,0,0,0,235.66,134.51Z"/><path class="cls-5" d="M225.16,108.52a9.09,9.09,0,1,0,8.39-9.73A9.1,9.1,0,0,0,225.16,108.52Z"/><polyline class="cls-6" points="229.74 115.61 222.59 123.92 218.6 120.96 226.01 112.35"/><polygon class="cls-6" points="205.27 97.74 199.01 109.23 194.5 107 200.11 95.16 205.27 97.74"/><path class="cls-5" d="M241.39,171.93a18.29,18.29,0,1,0,16.88-19.6A18.28,18.28,0,0,0,241.39,171.93Z"/><path class="cls-6" d="M252.29,200.17l1.69-3,18-2.4a7,7,0,0,1,13.5-1.81l4.07-.54.37,4.93-4.56.64a7,7,0,0,1-11.91,1.67l-7,1,7.39,4.23a7.49,7.49,0,1,1-1.84,5.49c0-.21,0-.41,0-.62Z"/><path class="cls-7" d="M94.45,127.69a6.53,6.53,0,1,1-6-7A6.53,6.53,0,0,1,94.45,127.69Z"/><path class="cls-7" d="M117.54,115.28a7.24,7.24,0,1,1-6.68-7.76A7.24,7.24,0,0,1,117.54,115.28Z"/><path class="cls-7" d="M137.85,109.5a7.26,7.26,0,1,1-6.7-7.78A7.27,7.27,0,0,1,137.85,109.5Z"/><path class="cls-7" d="M91.25,127.83a3,3,0,1,1-2.81-3.27A3,3,0,0,1,91.25,127.83Z"/><path class="cls-7" d="M113.66,114.42a3.11,3.11,0,1,1-2.87-3.34A3.11,3.11,0,0,1,113.66,114.42Z"/><path class="cls-7" d="M134.33,108.86a3.27,3.27,0,1,1-3-3.51A3.28,3.28,0,0,1,134.33,108.86Z"/><path class="cls-7" d="M210.19,127.69a6.52,6.52,0,1,0,6-7A6.53,6.53,0,0,0,210.19,127.69Z"/><path class="cls-7" d="M187.09,115.28a7.25,7.25,0,1,0,6.69-7.76A7.24,7.24,0,0,0,187.09,115.28Z"/><path class="cls-7" d="M166.79,109.5a7.26,7.26,0,1,0,6.7-7.78A7.27,7.27,0,0,0,166.79,109.5Z"/><path class="cls-7" d="M213.38,127.83a3,3,0,1,0,2.82-3.27A3,3,0,0,0,213.38,127.83Z"/><path class="cls-7" d="M191,114.42a3.11,3.11,0,1,0,2.87-3.34A3.1,3.1,0,0,0,191,114.42Z"/><path class="cls-7" d="M170.31,108.86a3.27,3.27,0,1,0,3-3.51A3.27,3.27,0,0,0,170.31,108.86Z"/><circle class="cls-5" cx="151.41" cy="37.22" r="36.72"/><path class="cls-3" d="M150.66,35.17s-6.42,1.59-5.55,7.78-3.5,8.52-4.93-3.05c0,0-4.6,2.71-2.73,13.56.09,1.34-2.28-7.82-12.26-4.74,0,0,6.44,3.35,6.08,5.61s-2.11,5.19-7.6-.57c-6.47-3-11.23,7-3.53,8.81s4.76,5.45,1.49,5.67-4.45.52-6.12-1.33,1.67,7.11,9.87,7.38c.94,2.79-6.82,1.83-9.86,9.25,0,0,6.46-4.68,8.47-.9s-7.73,3.82-7.42,12.44c1,2.37,4.84,4.76,13.2-2.45,3.43-2.8,1.52,10.05-2.73,8,0,0,4.84,4.38,10.36-3,2.13-2.89-2.39,11.48,3.48,12.3,0,0-.18-10.49,3.15-8.93,5.85,1-1.9,12.66,8.17,13.41,6.24-2.53,3.59-9.67,3.76-12s5.94-.26,5.34,7a10,10,0,0,0,2.1-11.88c1.13-.68,5.84,5.28,13.07,4.1,0,0-9.22-7.06-3.15-9.09,0,0,8.25,8.19,11.82,2.15s-5.68-8.45-7.14-9.32.57-6.77,7.63-2.42c0,0,.83-5.93-9.88-7.49-.27-1.62,9.2-.4,10.33-8.72,0,0-7.65,3.5-8.86.86-.69-1.83,0-4.71,4.54-5.33s4.14-8.48,1.55-8.74c0,0-4.75-3-10.14,3.52-2-.09-5.3-4,1.42-7.92s-7-1-11.3,4.12c-.61,1.87,2-10.17-2.48-13.18-1.72.89.94,11.22-5.08,8.35C153.15,47.94,158.57,37.64,150.66,35.17Z"/><path class="cls-5" d="M148.41,61.34l-13.59.18a20.9,20.9,0,0,0-3,4.52l16.65-.22Z"/><path class="cls-5" d="M151.73,65.77l17.39-.23A21.1,21.1,0,0,0,166,61.1l-14.35.2Z"/><path class="cls-5" d="M148.36,58.1l-.05-3.66a21,21,0,0,0-9.91,3.79Z"/><path class="cls-5" d="M170.51,68.86l-18.74.25.08,6-3.26,0-.08-6-18,.25a20.85,20.85,0,0,0-.76,4.21c0,.61,0,1.2,0,1.8l41.77-.56A20.53,20.53,0,0,0,170.51,68.86Z"/><path class="cls-5" d="M130,78.65a20.89,20.89,0,0,0,41.27-.56Z"/><path class="cls-5" d="M151.62,58.06l10.7-.15a20.93,20.93,0,0,0-10.16-3.55h-.59Z"/><polygon class="cls-3" points="148.36 85.42 148.32 82.34 148.32 82.34 148.32 82.25 145.16 82.29 145.16 82.38 137.15 82.49 137.19 85.57 145.21 85.46 145.3 92.25 148.45 92.2 148.36 85.42 148.36 85.42"/><polygon class="cls-3" points="163.87 85.21 163.83 82.13 155.63 82.24 155.63 82.15 152.48 82.19 152.61 92.15 155.77 92.11 155.68 85.32 163.87 85.21"/><circle class="cls-5" cx="25.95" cy="195.01" r="7.04" transform="translate(-170.62 187.13) rotate(-80.12)"/><circle class="cls-5" cx="24.71" cy="209.69" r="7.52"/><circle class="cls-5" cx="278.92" cy="195.24" r="7.04"/><circle class="cls-5" cx="280.16" cy="209.92" r="7.52"/></g></g></g></g></svg>