<svg xmlns="http://www.w3.org/2000/svg" viewBox="0 0 238.1 146.76"><defs><style>.cls-1{fill:#d2e8ec;}.cls-1,.cls-2,.cls-3{stroke:#231815;stroke-miterlimit:10;}.cls-2{fill:none;}.cls-3{fill:#f3f9f5;}</style></defs><title>生 (5)</title><g id="图层_2" data-name="图层 2"><g id="头饰"><g id="生"><g id="头饰-生2"><path class="cls-1" d="M185.69,74.79V37.08H168V.5H68.24V37.08H52.12V74.84C30.18,78.94-2.12,89.93.67,119c4.2,43.68,21.86,23.26,24,17.09,4.08-7.84,1.35-8.9,5.44-17.09,2.81-5.61,11.61-13.32,22.26-19.77a210.7,210.7,0,0,1,67.32-10.75,211.47,211.47,0,0,1,64.72,9.92C195.65,105,205.12,113.15,208,119c4.09,8.19,1.37,9.25,5.45,17.09,2.08,6.17,19.75,26.59,23.94-17.09C240.24,89.8,207.63,78.84,185.69,74.79Z"/><line class="cls-2" x1="52.12" y1="74.84" x2="52.12" y2="99.23"/><line class="cls-2" x1="185.69" y1="74.79" x2="185.69" y2="98.4"/><path class="cls-3" d="M133.53,69.47c0,3.49-5.47,6.31-12.2,6.31S109.12,73,109.12,69.47s5.47-6.31,12.21-6.31S133.53,66,133.53,69.47Z"/><line class="cls-2" x1="68.24" y1="37.08" x2="168.02" y2="37.08"/><path class="cls-3" d="M185.69,93.76c-74.7-24.66-133.57,0-133.57,0V90.92s58.87-24.66,133.57,0Z"/></g></g></g></g></svg>