<svg xmlns="http://www.w3.org/2000/svg" viewBox="0 0 340.37 131.75"><defs><style>.cls-1{fill:#d2e8ec;}.cls-1,.cls-2,.cls-3{stroke:#231815;stroke-miterlimit:10;}.cls-2{fill:none;}.cls-3{fill:#fff;}</style></defs><title>生 (6)</title><g id="图层_2" data-name="图层 2"><g id="头饰"><g id="生"><g id="头饰-生3"><path class="cls-1" d="M317.23,88.44c-17.44,5.59-50.75,10.43-74.32,13.38V42.51H232.73V.5H113.15v42h-11.6v61.27C78,101.4,41.82,97.08,23.49,91.55-5.06,82.92.68,112.48,1.54,114.19s.41,14.06,25,14.74c17.44.47,48.51,3,73.22,2.16,17.2-16.19,43.54-26.55,73.07-26.55,28.63,0,54.24,9.74,71.46,25.08,23.92-.07,52.55-2.93,69-3.73,24.59-1.19,24.44-13.55,25.34-15.27S346,79.21,317.23,88.44Z"/><line class="cls-2" x1="101.55" y1="103.78" x2="99.73" y2="131.09"/><line class="cls-2" x1="242.91" y1="101.82" x2="244.26" y2="129.62"/><path class="cls-2" d="M113.15,42.51s47.21-21.32,119.58,0"/><path class="cls-3" d="M191.46,86.16c0,3.91-7.72,7.07-17.25,7.07S157,90.07,157,86.16s7.72-7.07,17.24-7.07S191.46,82.26,191.46,86.16Z"/></g></g></g></g></svg>